<?xml version="1.0" encoding="utf-8"?>
<!-- Generator: Adobe Illustrator 23.0.2, SVG Export Plug-In . SVG Version: 6.00 Build 0)  -->
<svg version="1.1" id="Calque_1" xmlns="http://www.w3.org/2000/svg" xmlns:xlink="http://www.w3.org/1999/xlink" x="0px" y="0px"
	 viewBox="0 0 144.4 117.7" style="enable-background:new 0 0 144.4 117.7;" xml:space="preserve">
<style type="text/css">
	.st0{fill:#FFFFFF;}
</style>
<g>
	<path class="st0" d="M81.9,34.1l-3.3,41.5c-0.2,3.1-3,5.5-6.4,5.5s-6.2-2.4-6.4-5.5l-3.3-41.5c-0.4-5.1,4-9.5,9.7-9.5
		C77.9,24.6,82.3,28.9,81.9,34.1 M72.2,103.8c-5.3,0-9.6-3.9-9.6-8.8c0-4.9,4.3-8.8,9.6-8.8c5.3,0,9.6,3.9,9.6,8.8
		C81.9,99.9,77.5,103.8,72.2,103.8 M142.6,99L84,6.2C81.6,2.4,77.1,0,72.2,0c-4.9,0-9.4,2.4-11.8,6.2L1.8,99
		c-2.4,3.8-2.4,8.6,0,12.5c2.4,3.8,7,6.2,11.8,6.2h117.2c4.9,0,9.4-2.4,11.8-6.2C145,107.6,145,102.8,142.6,99"/>
</g>
</svg>
