<?xml version="1.0" encoding="utf-8"?>
<!-- Generator: Adobe Illustrator 23.0.3, SVG Export Plug-In . SVG Version: 6.00 Build 0)  -->
<svg version="1.1" id="Calque_1" xmlns="http://www.w3.org/2000/svg" xmlns:xlink="http://www.w3.org/1999/xlink" x="0px" y="0px"
	 viewBox="0 0 209.59 49.49" style="enable-background:new 0 0 209.59 49.49;" xml:space="preserve">
<style type="text/css">
	.st0{fill:#D1D3D4;}
	.st1{fill:#696C6D;}
	.st2{fill:#FFFFFF;}
	.st3{fill:#FFE14F;}
	.st4{fill:#006BB6;}
	.st5{fill:#00ADCC;}
	.st6{fill:#009C8B;}
	.st7{fill:#009E89;}
	.st8{clip-path:url(#SVGID_2_);fill:#8A8B8C;}
	.st9{fill:#909092;}
</style>
<g>
	<rect x="74.15" y="10.7" class="st0" width="14.52" height="11.75"/>
	<polygon class="st1" points="88.67,10.7 88.67,10.38 73.83,10.38 73.83,22.77 88.99,22.77 88.99,10.38 88.67,10.38 88.67,10.7 
		88.35,10.7 88.35,22.13 74.47,22.13 74.47,11.01 88.67,11.01 88.67,10.7 88.35,10.7 	"/>
	<polyline class="st2" points="82.36,15.6 80.85,14.54 82.91,13.95 84.62,14.89 	"/>
	<polygon class="st1" points="82.54,15.34 81.57,14.67 82.87,14.29 84.46,15.17 84.77,14.61 82.95,13.6 80.12,14.42 82.18,15.86 	
		"/>
	<rect x="74.15" y="22.31" class="st2" width="14.52" height="3.13"/>
	<polygon class="st1" points="88.67,22.31 88.67,21.99 73.83,21.99 73.83,25.76 88.99,25.76 88.99,21.99 88.67,21.99 88.67,22.31 
		88.35,22.31 88.35,25.12 74.47,25.12 74.47,22.63 88.67,22.63 88.67,22.31 88.35,22.31 	"/>
	<rect x="76.4" y="25.51" class="st1" width="2.86" height="4.28"/>
	<polygon class="st1" points="79.26,25.51 79.26,25.15 76.04,25.15 76.04,30.14 79.61,30.14 79.61,25.15 79.26,25.15 79.26,25.51 
		78.9,25.51 78.9,29.43 76.76,29.43 76.76,25.87 79.26,25.87 79.26,25.51 78.9,25.51 	"/>
	<rect x="83.57" y="25.51" class="st1" width="2.86" height="4.28"/>
	<polygon class="st1" points="86.42,25.51 86.42,25.15 83.21,25.15 83.21,30.14 86.78,30.14 86.78,25.15 86.42,25.15 86.42,25.51 
		86.06,25.51 86.06,29.43 83.92,29.43 83.92,25.87 86.42,25.87 86.42,25.51 86.06,25.51 	"/>
	<polygon class="st2" points="76.72,22.32 86.12,22.32 86.65,20.58 85.49,18.42 83.02,16.95 84.18,15.05 82.39,15.42 79.19,13.68 
		79.97,16.79 77.56,18.53 76.3,21.06 	"/>
	<polygon class="st1" points="76.72,22.32 76.72,22.64 86.36,22.64 86.99,20.55 85.73,18.19 83.46,16.84 84.83,14.59 82.44,15.09 
		78.7,13.06 79.61,16.66 77.31,18.32 75.95,21.03 76.49,22.64 76.72,22.64 76.72,22.32 77.02,22.22 76.64,21.08 77.81,18.74 
		80.34,16.92 79.67,14.31 82.34,15.76 83.52,15.51 82.58,17.06 85.25,18.65 86.3,20.61 85.88,22 76.72,22 76.72,22.32 77.02,22.22 	
		"/>
	
		<rect x="81.13" y="15.4" transform="matrix(0.0496 -0.9988 0.9988 0.0496 60.5682 97.3691)" class="st1" width="0.64" height="2.93"/>
	<polygon class="st1" points="78.32,17.23 81.31,17.11 78.73,15.61 78.41,16.16 79.1,16.56 78.29,16.59 	"/>
	<rect x="75.22" y="25.47" class="st2" width="12.37" height="1.66"/>
	<polygon class="st1" points="87.6,25.47 87.6,25.15 74.91,25.15 74.91,27.45 87.92,27.45 87.92,25.15 87.6,25.15 87.6,25.47 
		87.28,25.47 87.28,26.81 75.54,26.81 75.54,25.78 87.6,25.78 87.6,25.47 87.28,25.47 	"/>
	<rect x="30.09" y="23.91" class="st1" width="2.59" height="3.88"/>
	<rect x="36.57" y="23.91" class="st1" width="2.59" height="3.88"/>
	<rect x="28.05" y="10.77" class="st2" width="13.15" height="14.18"/>
	<polygon class="st1" points="41.2,10.77 41.2,10.46 27.73,10.46 27.73,25.27 41.52,25.27 41.52,10.46 41.2,10.46 41.2,10.77 
		40.88,10.77 40.88,24.64 28.36,24.64 28.36,11.09 41.2,11.09 41.2,10.77 40.88,10.77 	"/>
	<rect x="29.2" y="12.4" class="st0" width="10.84" height="6.18"/>
	<polygon class="st1" points="40.04,12.4 40.04,12.09 28.88,12.09 28.88,18.9 40.36,18.9 40.36,12.09 40.04,12.09 40.04,12.4 
		39.72,12.4 39.72,18.27 29.52,18.27 29.52,12.72 40.04,12.72 40.04,12.4 39.72,12.4 	"/>
	<path class="st3" d="M27.6,26.44h2.08l1.3,2.62c0,0-0.87,0.88-3.38,0.88"/>
	<path class="st1" d="M27.6,26.76h1.88l1.21,2.45l0.28-0.14l-0.23-0.22l0,0l0,0v0l0,0l0,0c-0.05,0.05-0.87,0.78-3.16,0.79v0.64
		c2.59,0,3.56-0.92,3.61-0.98l0.16-0.16l-1.48-3H27.6V26.76z"/>
	<path class="st3" d="M27.63,26.44h-2.08l-1.3,2.62c0,0,0.87,0.88,3.38,0.88"/>
	<path class="st1" d="M27.63,26.12h-2.27l-1.48,3l0.16,0.16c0.05,0.06,1.02,0.98,3.61,0.98v-0.64c-1.22,0-2.02-0.21-2.51-0.42
		c-0.25-0.1-0.41-0.2-0.52-0.27l-0.11-0.08l-0.02-0.02l0,0l0,0h0l0,0l0,0l-0.23,0.22l0.28,0.14l1.21-2.45h1.88V26.12z"/>
	<rect x="26.17" y="24.91" class="st2" width="2.9" height="1.53"/>
	<polygon class="st1" points="29.06,26.45 29.06,26.13 26.48,26.13 26.48,25.23 28.74,25.23 28.74,26.45 29.06,26.45 29.06,26.13 
		29.06,26.45 29.38,26.45 29.38,24.59 25.85,24.59 25.85,26.76 29.38,26.76 29.38,26.45 	"/>
	<polygon class="st2" points="29.36,25.47 27.89,24.4 28.45,23.63 29.92,24.7 	"/>
	<polygon class="st1" points="29.36,25.47 29.54,25.21 28.33,24.33 28.52,24.07 29.47,24.77 29.1,25.28 29.36,25.47 29.54,25.21 
		29.36,25.47 29.61,25.65 30.17,24.88 30.36,24.63 28.38,23.18 27.44,24.47 29.43,25.91 29.61,25.65 	"/>
	<path class="st1" d="M29.02,27.36l0.79,2.07c0.05,0.13,0.2,0.2,0.33,0.15c0.13-0.05,0.2-0.2,0.15-0.33l-0.79-2.07
		c-0.05-0.13-0.2-0.2-0.33-0.15C29.04,27.08,28.97,27.23,29.02,27.36 M28.2,27.46l0.35,2.19c0.02,0.14,0.15,0.23,0.29,0.21
		c0.14-0.02,0.23-0.15,0.21-0.29l-0.35-2.19c-0.02-0.14-0.15-0.23-0.29-0.21C28.28,27.19,28.18,27.32,28.2,27.46 M27.36,27.48v2.22
		c0,0.14,0.11,0.25,0.25,0.25c0.14,0,0.25-0.11,0.25-0.25v-2.22c0-0.14-0.11-0.25-0.25-0.25C27.47,27.23,27.36,27.34,27.36,27.48
		 M25.75,27.19l-0.79,2.07c-0.05,0.13,0.02,0.28,0.15,0.33c0.13,0.05,0.28-0.02,0.33-0.15l0.79-2.07c0.05-0.13-0.02-0.28-0.15-0.33
		C25.95,26.99,25.8,27.06,25.75,27.19 M26.53,27.38l-0.35,2.19c-0.02,0.14,0.07,0.27,0.21,0.29c0.14,0.02,0.27-0.07,0.29-0.21
		l0.35-2.19c0.02-0.14-0.07-0.27-0.21-0.29C26.68,27.15,26.55,27.25,26.53,27.38"/>
	<path class="st3" d="M41.66,26.44h-2.08l-1.3,2.62c0,0,0.87,0.88,3.38,0.88"/>
	<path class="st1" d="M41.66,26.12h-2.27l-1.48,3l0.16,0.16c0.05,0.06,1.02,0.98,3.61,0.98v-0.64c-1.22,0-2.02-0.21-2.51-0.42
		c-0.24-0.1-0.41-0.2-0.52-0.27l-0.11-0.08l-0.02-0.02l0,0l0,0v0l0,0l0,0l-0.23,0.22l0.28,0.14l1.21-2.45h1.88V26.12z"/>
	<path class="st3" d="M41.62,26.44h2.07l1.3,2.62c0,0-0.87,0.88-3.38,0.88"/>
	<path class="st1" d="M41.62,26.76h1.88l1.21,2.45l0.29-0.14l-0.23-0.22l0,0l0,0v0l0,0l0,0c-0.05,0.05-0.87,0.78-3.16,0.79v0.64
		c2.59,0,3.56-0.92,3.61-0.98l0.16-0.16l-1.48-3h-2.27V26.76z"/>
	<rect x="40.19" y="24.91" class="st2" width="2.89" height="1.53"/>
	<polygon class="st1" points="40.19,26.45 40.19,26.76 43.41,26.76 43.41,24.59 39.88,24.59 39.88,26.76 40.19,26.76 40.19,26.45 
		40.51,26.45 40.51,25.23 42.77,25.23 42.77,26.13 40.19,26.13 40.19,26.45 40.51,26.45 	"/>
	<polygon class="st2" points="39.9,25.47 41.37,24.4 40.81,23.63 39.34,24.7 	"/>
	<polygon class="st1" points="39.9,25.47 40.09,25.73 41.81,24.47 40.88,23.18 38.9,24.63 39.83,25.91 40.09,25.73 39.9,25.47 
		40.16,25.28 39.78,24.77 40.74,24.07 40.93,24.33 39.71,25.21 39.9,25.47 40.16,25.28 	"/>
	<path class="st1" d="M39.76,27.18l-0.79,2.07c-0.05,0.13,0.01,0.28,0.15,0.33c0.13,0.05,0.28-0.02,0.33-0.15l0.79-2.07
		c0.05-0.13-0.02-0.28-0.15-0.33C39.96,26.98,39.81,27.05,39.76,27.18 M40.55,27.38l-0.35,2.19c-0.02,0.14,0.07,0.27,0.21,0.29
		c0.14,0.02,0.27-0.07,0.29-0.21l0.35-2.19c0.02-0.14-0.07-0.27-0.21-0.29C40.7,27.15,40.57,27.25,40.55,27.38 M41.39,27.48v2.22
		c0,0.14,0.11,0.25,0.25,0.25c0.14,0,0.25-0.11,0.25-0.25v-2.22c0-0.14-0.11-0.25-0.25-0.25C41.5,27.23,41.39,27.34,41.39,27.48
		 M43.03,27.37l0.79,2.07c0.05,0.13,0.2,0.2,0.33,0.15s0.2-0.2,0.15-0.33l-0.79-2.07c-0.05-0.13-0.2-0.2-0.33-0.15
		C43.05,27.09,42.98,27.24,43.03,27.37 M42.23,27.46l0.35,2.19c0.02,0.14,0.15,0.23,0.29,0.21c0.14-0.02,0.23-0.15,0.21-0.29
		l-0.35-2.19c-0.02-0.14-0.15-0.23-0.29-0.21C42.3,27.2,42.2,27.32,42.23,27.46"/>
	<path class="st3" d="M30.97,21.13c0,0.51-0.42,0.93-0.93,0.93c-0.51,0-0.93-0.42-0.93-0.93c0-0.51,0.42-0.93,0.93-0.93
		C30.55,20.2,30.97,20.62,30.97,21.13"/>
	<path class="st1" d="M30.97,21.13h-0.32c0,0.34-0.27,0.61-0.61,0.61c-0.34,0-0.61-0.27-0.61-0.61c0-0.34,0.27-0.61,0.61-0.61
		c0.34,0,0.61,0.27,0.61,0.61H30.97h0.32c0-0.69-0.56-1.25-1.25-1.25c-0.69,0-1.25,0.56-1.25,1.25s0.56,1.25,1.25,1.25
		c0.69,0,1.25-0.56,1.25-1.25H30.97z"/>
	<path class="st3" d="M40.01,21.03c0,0.51-0.42,0.93-0.93,0.93c-0.51,0-0.93-0.42-0.93-0.93c0-0.51,0.42-0.93,0.93-0.93
		C39.59,20.1,40.01,20.52,40.01,21.03"/>
	<path class="st1" d="M40.01,21.03h-0.32c0,0.34-0.27,0.61-0.61,0.61c-0.34,0-0.61-0.27-0.61-0.61c0-0.34,0.27-0.61,0.61-0.61
		c0.34,0,0.61,0.27,0.61,0.61H40.01h0.32c0-0.69-0.56-1.25-1.25-1.25c-0.69,0-1.25,0.56-1.25,1.25c0,0.69,0.56,1.25,1.25,1.25
		c0.69,0,1.25-0.56,1.25-1.25H40.01z"/>
	<rect x="32.08" y="20.34" class="st1" width="5.08" height="0.63"/>
	<rect x="32.08" y="21.43" class="st1" width="5.08" height="0.64"/>
	<polyline class="st2" points="15.98,11.42 13.59,10.07 10.61,10.59 12.87,11.88 	"/>
	<polygon class="st1" points="16.13,11.14 13.65,9.74 9.68,10.42 12.71,12.15 13.02,11.6 11.53,10.75 13.53,10.4 15.82,11.69 	"/>
	<polygon class="st2" points="8.9,9.37 12.9,11.82 15.56,11.48 14.17,13.93 17.59,16.17 19.36,19.29 18.68,23.05 19.44,26.38 
		17.08,28.79 6.7,28.79 5.1,26.17 5.52,23.51 4.84,19.97 6.32,16.17 10.54,14.06 	"/>
	<polygon class="st1" points="8.9,9.37 8.73,9.64 12.83,12.15 14.97,11.88 13.75,14.03 17.35,16.39 19.03,19.35 18.36,23.06 
		19.1,26.28 16.95,28.47 6.88,28.47 5.43,26.11 5.84,23.51 5.17,20 6.57,16.4 10.93,14.22 9.2,9.27 8.9,9.37 8.73,9.64 8.9,9.37 
		8.6,9.48 10.15,13.9 6.07,15.94 4.52,19.94 5.2,23.52 4.77,26.24 6.52,29.11 17.21,29.11 19.79,26.48 19.01,23.04 19.69,19.24 
		17.82,15.95 14.59,13.83 16.15,11.09 12.97,11.49 8.3,8.64 8.6,9.48 	"/>
	<polyline class="st4" points="7.72,14.32 10.62,14.1 8.24,12.98 	"/>
	<polygon points="7.75,14.63 11.85,14.33 8.38,12.69 8.11,13.26 9.4,13.87 7.7,14 	"/>
	<polygon class="st1" points="10.41,13.79 10.43,14.42 14.34,14.3 14.32,13.67 	"/>
	<polyline class="st5" points="13.79,11.81 11.34,10.52 8.35,11.04 10.61,12.33 	"/>
	<polygon class="st1" points="13.94,11.53 11.39,10.19 7.43,10.87 10.46,12.6 10.77,12.05 9.28,11.2 11.29,10.85 13.64,12.09 	"/>
	<polygon class="st5" points="6.64,9.82 10.65,12.27 13.31,11.93 11.92,14.38 15.33,16.62 17.11,19.74 16.43,23.5 17.19,26.83 
		14.83,29.24 4.45,29.24 2.85,26.62 3.27,23.96 2.59,20.42 4.07,16.62 8.29,14.51 	"/>
	<polygon class="st1" points="6.64,9.82 6.48,10.09 10.58,12.6 12.72,12.33 11.49,14.48 15.1,16.84 16.77,19.8 16.11,23.51 
		16.84,26.73 14.7,28.92 4.63,28.92 3.18,26.56 3.59,23.96 2.92,20.45 4.32,16.85 8.68,14.67 6.94,9.72 6.64,9.82 6.48,10.09 
		6.64,9.82 6.34,9.93 7.9,14.35 3.82,16.39 2.26,20.39 2.95,23.97 2.51,26.69 4.27,29.56 14.96,29.56 17.54,26.93 16.76,23.49 
		17.44,19.69 15.57,16.39 12.34,14.28 13.9,11.54 10.72,11.94 6.05,9.09 6.34,9.93 	"/>
	<path class="st1" d="M5.5,15.09l3.99-0.31l-3.37-1.64l-0.28,0.57l1.26,0.61l-1.65,0.13L5.5,15.09z M8.17,14.87l3.91-0.09
		l-0.01-0.64l-3.91,0.09L8.17,14.87z"/>
	<polyline class="st3" points="11.48,12.32 9.09,10.97 6.1,11.49 8.36,12.78 	"/>
	<polygon class="st1" points="11.63,12.04 9.15,10.64 5.18,11.32 8.21,13.05 8.52,12.5 7.03,11.65 9.03,11.3 11.32,12.6 	"/>
	<polygon class="st3" points="4.39,10.27 8.4,12.72 11.06,12.38 9.66,14.83 13.08,17.07 14.85,20.19 14.18,23.95 14.94,27.28 
		12.58,29.69 2.2,29.69 0.59,27.07 1.02,24.41 0.34,20.87 1.82,17.07 6.04,14.96 	"/>
	<polygon class="st1" points="4.39,10.27 4.23,10.54 8.33,13.05 10.47,12.78 9.24,14.93 12.84,17.29 14.52,20.25 13.86,23.96 
		14.59,27.18 12.44,29.37 2.38,29.37 0.93,27.01 1.34,24.41 0.67,20.9 2.07,17.3 6.43,15.12 4.69,10.17 4.39,10.27 4.23,10.54 
		4.39,10.27 4.09,10.38 5.64,14.8 1.57,16.84 0.01,20.84 0.69,24.42 0.26,27.14 2.02,30.01 12.71,30.01 15.29,27.38 14.5,23.94 
		15.19,20.14 13.32,16.85 10.09,14.73 11.65,11.99 8.47,12.39 3.8,9.54 4.09,10.38 	"/>
	<polygon class="st1" points="3.24,15.54 7.34,15.23 3.88,13.59 3.6,14.16 4.89,14.77 3.2,14.9 	"/>
	<polygon class="st1" points="5.91,14.69 5.93,15.33 9.84,15.2 9.81,14.57 	"/>
	<path class="st2" d="M68.48,28.12V14.58c0-0.7-0.57-1.28-1.28-1.28h-3.59c-0.7,0-1.28,0.57-1.28,1.28v13.54"/>
	<path class="st1" d="M68.82,28.12V14.56c0-0.88-0.72-1.59-1.6-1.6h-3.61c-0.88,0-1.6,0.72-1.6,1.6v13.56h0.64V14.56
		c0-0.52,0.43-0.96,0.97-0.96h3.61c0.53,0,0.96,0.44,0.97,0.96v13.56H68.82z"/>
	<path class="st2" d="M56.16,28.12V14.58c0-0.7-0.57-1.28-1.28-1.28H51.3c-0.7,0-1.28,0.57-1.28,1.28v13.54"/>
	<path class="st1" d="M56.5,28.12V14.56c0-0.88-0.72-1.59-1.6-1.6h-3.61c-0.88,0-1.6,0.72-1.6,1.6v13.56h0.64V14.56
		c0-0.52,0.44-0.96,0.97-0.96h3.61c0.53,0,0.97,0.44,0.97,0.96v13.56H56.5z"/>
	<path class="st6" d="M62.32,28.12V11.88c0-0.7-0.57-1.28-1.28-1.28h-3.58c-0.7,0-1.28,0.58-1.28,1.28v16.24"/>
	<path class="st7" d="M62.34,28.12V11.86c0-0.7-0.58-1.28-1.28-1.28h-3.61c-0.71,0-1.28,0.57-1.28,1.28v16.26"/>
	<path class="st1" d="M62.66,28.12V11.86c0-0.88-0.72-1.59-1.6-1.59h-3.61c-0.88,0-1.6,0.71-1.6,1.59v16.26h0.64V11.86
		c0-0.52,0.43-0.96,0.97-0.96h3.61c0.53,0,0.96,0.43,0.97,0.96v16.26H62.66z"/>
	<path class="st0" d="M60.36,16.76c0,0.65-0.52,1.17-1.17,1.17c-0.65,0-1.17-0.52-1.17-1.17c0-0.65,0.52-1.17,1.17-1.17
		C59.84,15.59,60.36,16.12,60.36,16.76"/>
	<path class="st1" d="M60.36,16.76h-0.32c0,0.47-0.38,0.85-0.85,0.85c-0.47,0-0.85-0.38-0.85-0.85c0-0.47,0.38-0.85,0.85-0.85
		s0.85,0.38,0.85,0.85H60.36h0.32c0-0.82-0.67-1.49-1.49-1.49c-0.82,0-1.49,0.67-1.49,1.49c0,0.82,0.67,1.49,1.49,1.49
		c0.82,0,1.49-0.67,1.49-1.49H60.36z"/>
	<path class="st0" d="M66.58,16.76c0,0.65-0.52,1.17-1.17,1.17c-0.65,0-1.17-0.52-1.17-1.17c0-0.65,0.52-1.17,1.17-1.17
		C66.06,15.59,66.58,16.12,66.58,16.76"/>
	<path class="st1" d="M66.58,16.76h-0.32c0,0.47-0.38,0.85-0.85,0.85s-0.85-0.38-0.85-0.85c0-0.47,0.38-0.85,0.85-0.85
		c0.47,0,0.85,0.38,0.85,0.85H66.58h0.32c0-0.82-0.67-1.49-1.49-1.49c-0.82,0-1.49,0.67-1.49,1.49c0,0.82,0.67,1.49,1.49,1.49
		c0.82,0,1.49-0.67,1.49-1.49H66.58z"/>
	<path class="st0" d="M54.26,16.76c0,0.65-0.52,1.17-1.17,1.17c-0.65,0-1.17-0.52-1.17-1.17c0-0.65,0.53-1.17,1.17-1.17
		C53.74,15.59,54.26,16.12,54.26,16.76"/>
	<path class="st1" d="M54.26,16.76h-0.32c0,0.47-0.38,0.85-0.85,0.85s-0.85-0.38-0.85-0.85c0-0.47,0.38-0.85,0.85-0.85
		c0.47,0,0.85,0.38,0.85,0.85H54.26h0.32c0-0.82-0.67-1.49-1.49-1.49c-0.82,0-1.49,0.67-1.49,1.49c0,0.82,0.67,1.49,1.49,1.49
		c0.82,0,1.49-0.67,1.49-1.49H54.26z"/>
	<rect x="50" y="28.21" class="st0" width="18.5" height="1.39"/>
	<polygon class="st1" points="68.5,29.6 68.5,29.28 50.32,29.28 50.32,28.53 68.19,28.53 68.19,29.6 68.5,29.6 68.5,29.28 
		68.5,29.6 68.82,29.6 68.82,27.89 49.68,27.89 49.68,29.92 68.82,29.92 68.82,29.6 	"/>
</g>
<g>
	<defs>
		<rect id="SVGID_1_" x="0" y="0" width="209.58" height="49.49"/>
	</defs>
	<clipPath id="SVGID_2_">
		<use xlink:href="#SVGID_1_"  style="overflow:visible;"/>
	</clipPath>
	<path class="st8" d="M95.61,47.5c0-1.03-0.39-1.61-1.87-1.61c-1.03,0-1.72,0.47-1.72,1.61c0,1.03,0.65,1.68,1.78,1.68
		C94.9,49.18,95.61,48.66,95.61,47.5 M100.74,34.58c0-0.75-0.17-1.2-1.53-1.2c-1.22,0-1.61,0.39-1.61,1.2
		c0,7.37,0.02,11.63,0.02,13.33c0,0.71,0.28,1.1,1.23,1.1c0.73,0,1.16-0.17,1.29-0.84c0.17-0.88,0.15-1.03,0.34-1.03
		c0.41,0,0.39,2.02,3.76,2.02c2.86,0,4.62-2.43,4.62-5.89c0-3.78-1.72-5.74-4.45-5.74c-2.71,0-3.14,1.55-3.5,1.55
		c-0.17,0-0.21-0.09-0.21-0.47c0-0.36,0.04-0.71,0.04-1.81V34.58z M103.13,46.85c-1.51,0-2.54-1.27-2.54-3.37
		c0-2.47,1.14-3.27,2.67-3.27c1.55,0,2.51,0.79,2.51,3.12C105.77,45.61,104.72,46.85,103.13,46.85 M113.25,43.91
		c0-2.17,0.94-3.24,2.75-3.24c1.1,0,1.25-0.71,1.25-1.5c0-0.95-0.39-1.27-1.27-1.27c-2.21,0-2.6,1.89-2.96,1.89
		c-0.15,0-0.21-0.11-0.32-0.84c-0.13-0.82-0.34-1.05-1.25-1.05c-0.9,0-1.18,0.24-1.18,0.94c0,0.73-0.09,3.38-0.09,9.07
		c0,0.79,0.41,1.14,1.55,1.14c1.22,0,1.53-0.37,1.53-1.14V43.91z M128.6,47.86c0-0.73,0.07-7.69,0.07-8.98
		c0-0.8-0.49-0.99-1.59-0.99c-1.14,0-1.53,0.28-1.53,0.94c0,0.69,0.04,1.61,0.04,4.28c0,2.36-0.75,3.54-2.28,3.54
		c-1.25,0-1.96-0.94-1.96-2.84c0-1.1,0.04-4.58,0.04-4.97c0-0.84-0.45-1.03-1.55-1.03c-1.22,0-1.53,0.37-1.53,1.07
		c0,3.8,0.02,2.21,0.02,5.65c0,3.16,1.23,4.73,3.74,4.73c3.07,0,3.18-2.21,3.55-2.21c0.19,0,0.19,0.41,0.3,0.88
		c0.15,0.67,0.43,1.05,1.38,1.05C128.21,49,128.6,48.57,128.6,47.86 M131.16,45.22c-0.75,0-1.07,0.37-1.07,1.14
		c0,1.07,1.27,2.92,4.82,2.92c3.59,0,5.18-1.57,5.18-3.42c0-1.53-0.64-2.54-4.21-3.16c-2.43-0.43-2.79-0.82-2.79-1.63
		c0-0.77,0.69-1.16,1.91-1.16c1.03,0,1.72,0.32,2.21,1.16c0.17,0.3,0.51,0.69,1.12,0.69c0.88,0,1.4-0.39,1.4-1.12
		c0-1.55-1.4-2.99-4.71-2.99c-2.43,0-4.79,1.14-4.79,3.63c0,1.5,0.65,2.86,3.74,3.38c2.47,0.41,3.16,0.58,3.16,1.33
		c0,0.54-0.41,1.08-1.91,1.08C132.32,47.07,132.53,45.22,131.16,45.22 M142.27,45.22c-0.75,0-1.07,0.37-1.07,1.14
		c0,1.07,1.27,2.92,4.82,2.92c3.59,0,5.18-1.57,5.18-3.42c0-1.53-0.64-2.54-4.21-3.16c-2.43-0.43-2.79-0.82-2.79-1.63
		c0-0.77,0.69-1.16,1.91-1.16c1.03,0,1.72,0.32,2.21,1.16c0.17,0.3,0.52,0.69,1.12,0.69c0.88,0,1.4-0.39,1.4-1.12
		c0-1.55-1.4-2.99-4.71-2.99c-2.43,0-4.79,1.14-4.79,3.63c0,1.5,0.65,2.86,3.74,3.38c2.47,0.41,3.16,0.58,3.16,1.33
		c0,0.54-0.41,1.08-1.91,1.08C143.43,47.07,143.64,45.22,142.27,45.22 M162.82,46.25c0-0.73-0.52-1.12-1.07-1.12
		c-1.57,0-1.08,1.74-3.76,1.74c-1.63,0-2.75-1.1-2.75-2.56c0-0.34,0.04-0.56,0.52-0.56c0.49,0,5.54,0.02,6.15,0.02
		c0.84,0,1.25-0.26,1.25-1.55c0-2.94-1.91-4.6-5.27-4.6c-3.57,0-5.57,2.34-5.57,5.63c0,3.68,2.13,6,5.55,6
		C161.48,49.26,162.82,47.33,162.82,46.25 M155.79,42.23c-0.39,0-0.47-0.13-0.47-0.45c0-0.75,0.75-1.91,2.64-1.91
		c1.83,0,2.58,1.08,2.58,1.87c0,0.34-0.13,0.49-0.54,0.49H155.79z M164.64,46.55c0,1.63,0.86,2.73,2.67,2.73
		c1.31,0,1.93-0.47,1.93-1.38c0-0.64-0.28-0.99-0.84-0.99c-0.24,0-0.34,0.04-0.49,0.04c-0.28,0-0.37-0.15-0.37-0.56
		c0-1.05,0.09-10.55,0.09-11.82c0-0.95-0.43-1.2-1.46-1.2c-1.12,0-1.53,0.41-1.53,1.16V46.55z M170.77,45.22
		c-0.75,0-1.07,0.37-1.07,1.14c0,1.07,1.27,2.92,4.81,2.92c3.59,0,5.18-1.57,5.18-3.42c0-1.53-0.64-2.54-4.21-3.16
		c-2.43-0.43-2.79-0.82-2.79-1.63c0-0.77,0.69-1.16,1.91-1.16c1.03,0,1.72,0.32,2.21,1.16c0.17,0.3,0.51,0.69,1.12,0.69
		c0.88,0,1.4-0.39,1.4-1.12c0-1.55-1.4-2.99-4.71-2.99c-2.43,0-4.79,1.14-4.79,3.63c0,1.5,0.65,2.86,3.74,3.38
		c2.47,0.41,3.16,0.58,3.16,1.33c0,0.54-0.41,1.08-1.91,1.08C171.93,47.07,172.14,45.22,170.77,45.22"/>
	<path class="st8" d="M186.94,40.23c-2.01,0-4.01,1.52-4.01,4.06c0,2.46,2.28,3.99,4.26,3.99c2.18,0,3.23-0.68,5.07-0.31
		c1.44,0.29,2.21,0.99,2.6,1.36c0.18,0.18,0.42,0.2,0.58,0.09c0.16-0.11,0.27-0.3,0.16-0.78c-0.25-1.11-0.84-2.35-1.53-3.41
		C192.71,43.15,189.98,40.23,186.94,40.23"/>
	<path class="st8" d="M205.57,40.23c2.01,0,4.01,1.52,4.01,4.06c0,2.46-2.28,3.99-4.26,3.99c-2.18,0-3.23-0.68-5.07-0.31
		c-1.44,0.29-2.21,0.99-2.6,1.36c-0.18,0.18-0.42,0.2-0.58,0.09c-0.16-0.11-0.27-0.3-0.16-0.78c0.25-1.11,0.84-2.35,1.53-3.41
		C199.8,43.15,202.53,40.23,205.57,40.23"/>
</g>
<g>
	<path class="st9" d="M198.83,33.38c-1.12,0-2.06,0.47-2.58,1.16c-0.52-0.69-1.45-1.16-2.58-1.16c-2.04,0-3.9,1.62-3.9,3.97
		c0,1.03,0.41,1.81,0.79,2.36c0.43,0.62,0.99,1.16,1.88,1.93c1.28,1.11,2.34,2.2,3.35,4.33c0.08,0.17,0.25,0.36,0.47,0.36
		s0.39-0.19,0.47-0.36c1.01-2.13,2.06-3.21,3.35-4.33c0.88-0.77,1.45-1.31,1.88-1.93c0.38-0.55,0.79-1.33,0.79-2.36
		C202.74,35,200.87,33.38,198.83,33.38"/>
	<path class="st2" d="M198.74,34.54c-1.35,0-2.19,1.02-2.48,1.74c-0.29-0.72-1.13-1.74-2.48-1.74c-1.55,0-2.81,1.28-2.81,2.84
		c0,0.59,0.2,1.13,0.56,1.62c1.41,1.93,3.33,2.55,4.73,5.58c1.4-3.03,3.32-3.65,4.73-5.58c0.36-0.49,0.56-1.03,0.56-1.62
		C201.55,35.82,200.29,34.54,198.74,34.54"/>
	<path class="st1" d="M0,5.46c0,0.2,0.11,0.38,0.38,0.38h0.25C0.9,5.84,1,5.66,1,5.46L0.99,1.81l2.15,3.81
		C3.2,5.74,3.33,5.84,3.48,5.84h0.34c0.26,0,0.39-0.18,0.39-0.39v-5c0-0.21-0.13-0.39-0.38-0.39H3.6c-0.24,0-0.37,0.18-0.37,0.39
		l0.01,3.53L1.15,0.3C1.08,0.18,0.94,0.07,0.78,0.07H0.4C0.13,0.07,0,0.26,0,0.45V5.46z M12.64,1.04c0.21,0,0.38-0.15,0.38-0.39
		V0.45c0-0.25-0.18-0.39-0.38-0.39H9.7c-0.27,0-0.39,0.18-0.39,0.39v5.01c0,0.21,0.12,0.38,0.39,0.38h3.09c0.24,0,0.4-0.17,0.4-0.38
		V5.26c0-0.21-0.16-0.38-0.4-0.38h-2.47V3.34h1.79c0.22,0,0.4-0.14,0.4-0.39V2.76c0-0.25-0.17-0.39-0.4-0.39h-1.79V1.04H12.64z
		 M18.95,1.04v4.42c0,0.21,0.13,0.38,0.38,0.38h0.22c0.25,0,0.39-0.18,0.39-0.38V1.04h1.37c0.22,0,0.38-0.15,0.38-0.39V0.45
		c0-0.24-0.16-0.39-0.38-0.39h-3.73c-0.22,0-0.38,0.15-0.38,0.39v0.19c0,0.24,0.16,0.39,0.38,0.39H18.95z M34.08,5.85
		c1.05,0,1.77-0.68,1.77-1.73c0-0.67-0.42-1.31-1-1.53c0.22-0.21,0.4-0.56,0.4-0.88c0-0.97-0.7-1.64-1.74-1.64h-1.64
		c-0.27,0-0.39,0.19-0.39,0.39v5.01c0,0.2,0.12,0.38,0.39,0.38H34.08z M32.5,4.88V3.32h1.52c0.46,0,0.82,0.32,0.82,0.79
		c0,0.46-0.33,0.78-0.78,0.78H32.5z M32.5,1.04h1.03c0.43,0,0.73,0.3,0.72,0.71c-0.01,0.3-0.24,0.58-0.49,0.65H32.5V1.04z
		 M43.6,3.48c0.64-0.2,1.17-0.79,1.17-1.64c0-1.04-0.75-1.78-1.88-1.78h-1.86c-0.27,0-0.4,0.19-0.4,0.39v5c0,0.2,0.13,0.38,0.4,0.38
		h0.23c0.27,0,0.39-0.18,0.39-0.38V3.61h0.9l1.3,2.01c0.09,0.13,0.25,0.22,0.4,0.22h0.33c0.3,0,0.47-0.27,0.29-0.52L43.6,3.48z
		 M42.88,1.04c0.53,0,0.85,0.34,0.85,0.84c0,0.47-0.31,0.79-0.9,0.79h-1.19V1.04H42.88z M51.81,5.91c1.29,0,2.09-0.78,2.09-2.03
		V0.46c0-0.2-0.12-0.39-0.39-0.39h-0.22c-0.27,0-0.39,0.19-0.39,0.39v3.44c0,0.67-0.43,1.06-1.09,1.06c-0.65,0-1.1-0.39-1.1-1.06
		V0.46c0-0.2-0.12-0.39-0.39-0.39h-0.23c-0.27,0-0.39,0.19-0.39,0.39v3.42C49.7,5.14,50.51,5.91,51.81,5.91 M61.64,2.51
		c-0.33-0.08-0.59-0.14-0.9-0.23c-0.39-0.1-0.75-0.27-0.76-0.62c-0.01-0.42,0.39-0.72,0.94-0.72c0.55,0,0.97,0.25,1.02,0.72
		c0.02,0.21,0.18,0.36,0.41,0.36h0.23c0.27,0,0.41-0.18,0.38-0.4C62.85,0.65,61.99,0,60.94,0c-1.11,0-1.97,0.61-1.97,1.68
		c0,0.95,0.78,1.34,1.45,1.53c0.33,0.1,0.66,0.18,0.96,0.26c0.51,0.12,0.71,0.34,0.71,0.68c0,0.44-0.43,0.8-1.11,0.8
		c-0.71,0-1.16-0.33-1.21-1.05c-0.02-0.24-0.18-0.37-0.4-0.37h-0.26c-0.23,0-0.37,0.17-0.37,0.39c0.02,1.33,0.97,2,2.25,2
		c1.34,0,2.16-0.88,2.16-1.79C63.13,3.28,62.67,2.74,61.64,2.51 M70.51,2.51c-0.33-0.08-0.59-0.14-0.9-0.23
		c-0.39-0.1-0.75-0.27-0.76-0.62c-0.01-0.42,0.39-0.72,0.94-0.72c0.55,0,0.97,0.25,1.02,0.72c0.02,0.21,0.18,0.36,0.4,0.36h0.23
		c0.27,0,0.4-0.18,0.38-0.4C71.72,0.65,70.86,0,69.81,0c-1.11,0-1.97,0.61-1.97,1.68c0,0.95,0.78,1.34,1.45,1.53
		c0.34,0.1,0.66,0.18,0.96,0.26c0.51,0.12,0.71,0.34,0.71,0.68c0,0.44-0.43,0.8-1.11,0.8c-0.71,0-1.16-0.33-1.21-1.05
		c-0.02-0.24-0.18-0.37-0.4-0.37h-0.26c-0.23,0-0.38,0.17-0.38,0.39c0.03,1.33,0.97,2,2.25,2c1.34,0,2.16-0.88,2.16-1.79
		C72,3.28,71.54,2.74,70.51,2.51 M80.15,1.04c0.21,0,0.38-0.15,0.38-0.39V0.45c0-0.25-0.18-0.39-0.38-0.39h-2.94
		c-0.27,0-0.39,0.18-0.39,0.39v5.01c0,0.21,0.12,0.38,0.39,0.38h3.09c0.24,0,0.4-0.17,0.4-0.38V5.26c0-0.21-0.16-0.38-0.4-0.38
		h-2.47V3.34h1.79c0.22,0,0.4-0.14,0.4-0.39V2.76c0-0.25-0.17-0.39-0.4-0.39h-1.79V1.04H80.15z M88.67,5.85
		c0.2,0,0.38-0.12,0.38-0.38V5.25c0-0.26-0.18-0.38-0.38-0.38h-2.29V0.46c0-0.2-0.13-0.39-0.38-0.39h-0.23
		c-0.25,0-0.38,0.19-0.38,0.39v5.01c0,0.2,0.11,0.38,0.38,0.38H88.67z"/>
	<path class="st5" d="M66.05,47.84c0-3.99-0.07-2.54-0.07-6.14c0-3.4-1.88-4.81-4.29-4.81c-3.31,0-3.57,2.13-4,2.13
		c-0.14,0-0.24-0.11-0.38-0.77c-0.21-0.93-0.48-1.09-1.38-1.09c-1,0-1.31,0.27-1.31,1.04c0,0.75-0.07,3.61-0.07,9.62
		c0,0.86,0.48,1.09,1.64,1.09c1.38,0,1.79-0.11,1.79-1.11c0-0.79-0.02-2.22-0.02-4.97c0-2.07,1.07-3.2,2.48-3.2
		c1.69,0,2.24,1,2.24,3.02c0,1.13-0.07,4.85-0.07,5.26c0,0.91,0.4,0.97,1.76,0.97C65.63,48.88,66.05,48.65,66.05,47.84 M79.2,45.98
		c0-0.77-0.57-1.18-1.19-1.18c-1.74,0-1.19,1.84-4.17,1.84c-1.81,0-3.05-1.16-3.05-2.7c0-0.36,0.05-0.59,0.57-0.59
		c0.55,0,6.14,0.02,6.81,0.02c0.93,0,1.38-0.27,1.38-1.63c0-3.11-2.12-4.85-5.83-4.85c-3.95,0-6.17,2.47-6.17,5.94
		c0,3.88,2.36,6.33,6.14,6.33C77.72,49.15,79.2,47.11,79.2,45.98 M71.41,41.74c-0.43,0-0.52-0.14-0.52-0.48
		c0-0.79,0.83-2.02,2.93-2.02c2.02,0,2.86,1.13,2.86,1.97c0,0.36-0.14,0.52-0.6,0.52H71.41z M87.94,39.56c0.69,0,0.95-0.25,0.95-1.2
		c0-0.98-0.29-1.2-0.88-1.2h-2.14c-0.24,0-0.36-0.07-0.36-0.36v-2.27c0-0.88-0.45-1.25-1.64-1.25c-1.19,0-1.69,0.39-1.69,1.29
		c0,0.59-0.02,1.63-0.02,2.27c0,0.36-0.31,0.52-1.1,0.64c-0.57,0.09-0.76,0.48-0.76,1.07c0,0.82,0.21,1.02,0.67,1.02h0.86
		c0.29,0,0.33,0.14,0.33,0.48c0,1.79,0.02,3.74,0.02,5.85c0,2.02,1.14,3.29,3.62,3.29c2.07,0,3.12-0.54,3.12-1.54
		c0-0.82-0.45-1.2-1.07-1.2c-0.57,0-0.62,0.27-1.31,0.27c-0.76,0-1.07-0.43-1.07-1.29c0-0.7,0.02-4.13,0.02-5.37
		c0-0.34,0.05-0.48,0.52-0.48H87.94z"/>
</g>
</svg>
