<?xml version="1.0" encoding="utf-8"?>
<!-- Generator: Adobe Illustrator 23.0.3, SVG Export Plug-In . SVG Version: 6.00 Build 0)  -->
<svg version="1.1" id="Calque_1" xmlns="http://www.w3.org/2000/svg" xmlns:xlink="http://www.w3.org/1999/xlink" x="0px" y="0px"
	 viewBox="0 0 199.71 51.43" style="enable-background:new 0 0 199.71 51.43;" xml:space="preserve">
<style type="text/css">
	.st0{fill:#D1D2D4;}
	.st1{fill:#6A6C6E;}
	.st2{fill:#FFFFFF;}
	.st3{fill:#FFE150;}
	.st4{fill:#03ADCD;}
	.st5{fill:#009D8C;}
	.st6{fill:#009F89;}
	.st7{fill:#8A8B8C;}
	.st8{fill:#909092;}
</style>
<g>
	<rect x="70.72" y="11.53" class="st0" width="13.83" height="11.19"/>
	<polygon class="st1" points="84.55,11.53 84.55,11.22 70.42,11.22 70.42,23.03 84.85,23.03 84.85,11.22 84.55,11.22 84.55,11.53 
		84.25,11.53 84.25,22.42 71.02,22.42 71.02,11.83 84.55,11.83 84.55,11.53 84.25,11.53 	"/>
	<polyline class="st2" points="78.54,16.2 77.1,15.19 79.06,14.62 80.69,15.52 	"/>
	<polygon class="st1" points="78.71,15.95 77.79,15.31 79.03,14.95 80.54,15.79 80.83,15.26 79.1,14.3 76.4,15.08 78.36,16.45 	"/>
	<rect x="70.72" y="22.59" class="st2" width="13.83" height="2.98"/>
	<polygon class="st1" points="84.55,22.58 84.55,22.28 70.42,22.28 70.42,25.87 84.85,25.87 84.85,22.28 84.55,22.28 84.55,22.58 
		84.25,22.58 84.25,25.26 71.02,25.26 71.02,22.89 84.55,22.89 84.55,22.58 84.25,22.58 	"/>
	<rect x="72.86" y="25.63" class="st1" width="2.72" height="4.08"/>
	<polygon class="st1" points="75.58,25.63 75.58,25.29 72.52,25.29 72.52,30.05 75.92,30.05 75.92,25.29 75.58,25.29 75.58,25.63 
		75.24,25.63 75.24,29.37 73.2,29.37 73.2,25.97 75.58,25.97 75.58,25.63 75.24,25.63 	"/>
	<rect x="79.69" y="25.63" class="st1" width="2.72" height="4.08"/>
	<polygon class="st1" points="82.41,25.63 82.41,25.29 79.34,25.29 79.34,30.05 82.75,30.05 82.75,25.29 82.41,25.29 82.41,25.63 
		82.07,25.63 82.07,29.37 80.03,29.37 80.03,25.97 82.41,25.97 82.41,25.63 82.07,25.63 	"/>
	<polygon class="st2" points="73.16,22.6 82.12,22.6 82.62,20.94 81.52,18.88 79.17,17.48 80.27,15.68 78.57,16.03 75.52,14.37 
		76.27,17.33 73.97,18.99 72.77,21.39 	"/>
	<polygon class="st1" points="73.16,22.6 73.16,22.9 82.34,22.9 82.95,20.91 81.75,18.67 79.59,17.38 80.89,15.24 78.61,15.71 
		75.05,13.78 75.92,17.21 73.73,18.78 72.44,21.37 72.95,22.9 73.16,22.9 73.16,22.6 73.45,22.5 73.09,21.42 74.2,19.19 
		76.61,17.46 75.98,14.97 78.52,16.34 79.65,16.11 78.75,17.58 81.29,19.1 82.29,20.97 81.89,22.29 73.16,22.29 73.16,22.6 
		73.45,22.5 	"/>
	<rect x="77.37" y="16" transform="matrix(0.0495 -0.9988 0.9988 0.0495 56.4441 94.1072)" class="st1" width="0.6" height="2.79"/>
	<polygon class="st1" points="74.69,17.75 77.54,17.63 75.08,16.2 74.78,16.73 75.44,17.11 74.66,17.14 74.69,17.75 	"/>
	<rect x="71.74" y="25.59" class="st2" width="11.78" height="1.58"/>
	<polygon class="st1" points="83.53,25.59 83.53,25.29 71.44,25.29 71.44,27.48 83.83,27.48 83.83,25.29 83.53,25.29 83.53,25.59 
		83.22,25.59 83.22,26.87 72.05,26.87 72.05,25.9 83.53,25.9 83.53,25.59 83.22,25.59 	"/>
	<rect x="28.75" y="24.11" class="st1" width="2.46" height="3.69"/>
	<rect x="34.93" y="24.11" class="st1" width="2.46" height="3.69"/>
	<rect x="26.81" y="11.6" class="st2" width="12.52" height="13.51"/>
	<polygon class="st1" points="39.34,11.6 39.34,11.3 26.51,11.3 26.51,25.41 39.64,25.41 39.64,11.3 39.34,11.3 39.34,11.6 
		39.03,11.6 39.03,24.8 27.11,24.8 27.11,11.9 39.34,11.9 39.34,11.6 39.03,11.6 	"/>
	<rect x="27.91" y="13.15" class="st0" width="10.32" height="5.89"/>
	<polygon class="st1" points="38.24,13.15 38.24,12.85 27.61,12.85 27.61,19.34 38.54,19.34 38.54,12.85 38.24,12.85 38.24,13.15 
		37.93,13.15 37.93,18.74 28.22,18.74 28.22,13.46 38.24,13.46 38.24,13.15 37.93,13.15 	"/>
	<path class="st3" d="M26.38,26.52h1.98l1.23,2.5c0,0-0.83,0.84-3.22,0.84"/>
	<path class="st1" d="M26.38,26.82h1.79l1.15,2.33l0.27-0.13l-0.22-0.21l0,0l0,0l0,0l0,0c-0.05,0.04-0.83,0.75-3.01,0.75v0.61
		c2.47,0,3.39-0.87,3.44-0.93l0.15-0.15l-1.41-2.86h-2.16V26.82z"/>
	<path class="st3" d="M26.42,26.52h-1.98l-1.23,2.5c0,0,0.83,0.84,3.22,0.84"/>
	<path class="st1" d="M26.42,26.22h-2.17l-1.41,2.86l0.15,0.15c0.05,0.05,0.97,0.93,3.44,0.93v-0.6c-1.16,0-1.93-0.2-2.39-0.4
		c-0.23-0.1-0.39-0.19-0.49-0.26l-0.1-0.08l-0.02-0.02l0,0l0,0l0,0l0,0l-0.22,0.21l0.27,0.13l1.15-2.33h1.79V26.22z"/>
	<rect x="25.02" y="25.06" class="st2" width="2.76" height="1.46"/>
	<polygon class="st1" points="27.78,26.53 27.78,26.22 25.32,26.22 25.32,25.37 27.48,25.37 27.48,26.53 27.78,26.53 27.78,26.22 
		27.78,26.53 28.08,26.53 28.08,24.76 24.72,24.76 24.72,26.83 28.08,26.83 28.08,26.53 	"/>
	<polygon class="st2" points="28.06,25.6 26.66,24.58 27.19,23.84 28.59,24.86 	"/>
	<polygon class="st1" points="28.06,25.6 28.24,25.35 27.08,24.51 27.26,24.26 28.17,24.93 27.81,25.42 28.06,25.6 28.24,25.35 
		28.06,25.6 28.3,25.77 28.84,25.04 29.02,24.79 27.12,23.42 26.24,24.64 28.13,26.02 28.3,25.77 	"/>
	<path class="st1" d="M27.74,27.4l0.75,1.98c0.05,0.13,0.19,0.19,0.31,0.14c0.13-0.05,0.19-0.19,0.14-0.31l-0.75-1.98
		c-0.05-0.13-0.19-0.19-0.31-0.14C27.75,27.13,27.69,27.27,27.74,27.4 M26.96,27.5l0.33,2.09c0.02,0.13,0.15,0.22,0.28,0.2
		c0.13-0.02,0.22-0.14,0.2-0.28l-0.33-2.09c-0.02-0.13-0.15-0.22-0.28-0.2C27.03,27.24,26.94,27.36,26.96,27.5 M26.16,27.52v2.12
		c0,0.13,0.11,0.24,0.24,0.24c0.13,0,0.24-0.11,0.24-0.24v-2.12c0-0.13-0.11-0.24-0.24-0.24C26.27,27.27,26.16,27.38,26.16,27.52
		 M24.62,27.23l-0.75,1.98c-0.05,0.13,0.01,0.26,0.14,0.31c0.13,0.05,0.26-0.02,0.31-0.14l0.75-1.98c0.05-0.13-0.02-0.26-0.14-0.31
		C24.81,27.05,24.67,27.11,24.62,27.23 M25.36,27.42l-0.33,2.09c-0.02,0.13,0.07,0.26,0.2,0.28c0.13,0.02,0.26-0.07,0.28-0.2
		l0.33-2.09c0.02-0.13-0.07-0.26-0.2-0.28C25.51,27.2,25.38,27.29,25.36,27.42"/>
	<path class="st3" d="M39.78,26.52H37.8l-1.23,2.5c0,0,0.83,0.84,3.22,0.84"/>
	<path class="st1" d="M39.78,26.22h-2.17l-1.41,2.86l0.15,0.15c0.05,0.05,0.97,0.93,3.44,0.93v-0.6c-1.16,0-1.93-0.2-2.39-0.4
		c-0.23-0.1-0.39-0.19-0.49-0.26l-0.1-0.08l-0.02-0.02l0,0l0,0l0,0l0,0l-0.21,0.21l0.27,0.13l1.15-2.33h1.79V26.22z"/>
	<path class="st3" d="M39.74,26.52h1.98l1.23,2.5c0,0-0.83,0.84-3.22,0.84"/>
	<path class="st1" d="M39.74,26.82h1.79l1.15,2.33l0.27-0.13l-0.21-0.21l0,0l0,0l0,0l0,0c-0.05,0.04-0.83,0.75-3.01,0.75v0.61
		c2.47,0,3.39-0.87,3.44-0.93l0.15-0.15l-1.41-2.86h-2.17V26.82z"/>
	<rect x="38.38" y="25.06" class="st2" width="2.76" height="1.46"/>
	<polygon class="st1" points="38.38,26.53 38.38,26.83 41.44,26.83 41.44,24.76 38.08,24.76 38.08,26.83 38.38,26.83 38.38,26.53 
		38.68,26.53 38.68,25.37 40.83,25.37 40.83,26.22 38.38,26.22 38.38,26.53 38.68,26.53 	"/>
	<polygon class="st2" points="38.1,25.6 39.5,24.58 38.97,23.84 37.57,24.86 	"/>
	<polygon class="st1" points="38.1,25.6 38.28,25.84 39.92,24.64 39.03,23.42 37.14,24.79 38.03,26.02 38.28,25.84 38.1,25.6 
		38.34,25.42 37.99,24.93 38.9,24.26 39.08,24.51 37.92,25.35 38.1,25.6 38.34,25.42 	"/>
	<path class="st1" d="M37.97,27.23l-0.75,1.98c-0.05,0.13,0.01,0.26,0.14,0.31c0.13,0.05,0.27-0.02,0.31-0.14l0.75-1.98
		c0.05-0.13-0.02-0.26-0.14-0.31C38.16,27.04,38.02,27.1,37.97,27.23 M38.72,27.42l-0.33,2.09c-0.02,0.13,0.07,0.26,0.2,0.28
		c0.13,0.02,0.26-0.07,0.28-0.2l0.33-2.09c0.02-0.13-0.07-0.26-0.2-0.28C38.86,27.2,38.74,27.29,38.72,27.42 M39.52,27.52v2.11
		c0,0.13,0.11,0.24,0.24,0.24c0.13,0,0.24-0.11,0.24-0.24v-2.11c0-0.13-0.11-0.24-0.24-0.24C39.63,27.27,39.52,27.38,39.52,27.52
		 M41.08,27.41l0.75,1.98c0.05,0.13,0.19,0.19,0.31,0.14c0.13-0.05,0.19-0.19,0.14-0.31l-0.75-1.98c-0.05-0.13-0.19-0.19-0.31-0.14
		C41.1,27.14,41.04,27.28,41.08,27.41 M40.32,27.5l0.33,2.09c0.02,0.13,0.14,0.22,0.28,0.2c0.13-0.02,0.22-0.15,0.2-0.28l-0.33-2.09
		c-0.02-0.13-0.15-0.22-0.28-0.2C40.38,27.24,40.29,27.36,40.32,27.5"/>
	<path class="st3" d="M29.59,21.46c0,0.49-0.4,0.89-0.89,0.89c-0.49,0-0.89-0.4-0.89-0.89c0-0.49,0.4-0.89,0.89-0.89
		C29.2,20.58,29.59,20.97,29.59,21.46"/>
	<path class="st1" d="M29.59,21.46h-0.3c0,0.32-0.26,0.58-0.58,0.58c-0.32,0-0.58-0.26-0.58-0.58c0-0.32,0.26-0.58,0.58-0.58
		c0.32,0,0.58,0.26,0.58,0.58H29.59h0.3c0-0.66-0.53-1.19-1.19-1.19c-0.66,0-1.19,0.53-1.19,1.19c0,0.65,0.53,1.19,1.19,1.19
		c0.66,0,1.19-0.53,1.19-1.19H29.59z"/>
	<path class="st3" d="M38.21,21.37c0,0.49-0.4,0.89-0.89,0.89s-0.89-0.4-0.89-0.89c0-0.49,0.4-0.89,0.89-0.89
		S38.21,20.88,38.21,21.37"/>
	<path class="st1" d="M38.21,21.37h-0.3c0,0.32-0.26,0.58-0.58,0.58c-0.32,0-0.58-0.26-0.58-0.58c0-0.32,0.26-0.58,0.58-0.58
		c0.32,0,0.58,0.26,0.58,0.58H38.21h0.3c0-0.66-0.53-1.19-1.19-1.19c-0.66,0-1.19,0.53-1.19,1.19c0,0.66,0.53,1.19,1.19,1.19
		c0.66,0,1.19-0.53,1.19-1.19H38.21z"/>
	<rect x="30.65" y="20.71" class="st1" width="4.84" height="0.61"/>
	<rect x="30.65" y="21.75" class="st1" width="4.84" height="0.61"/>
	<polyline class="st2" points="15.32,12.16 13.05,10.88 10.21,11.37 12.36,12.6 	"/>
	<polygon class="st1" points="15.47,11.9 13.11,10.56 9.33,11.22 12.21,12.86 12.51,12.34 11.09,11.53 13,11.2 15.18,12.43 	"/>
	<polygon class="st2" points="8.57,10.27 12.39,12.6 14.92,12.28 13.59,14.61 16.85,16.74 18.54,19.71 17.89,23.29 18.62,26.47 
		16.37,28.76 6.48,28.76 4.96,26.27 5.36,23.73 4.72,20.36 6.12,16.74 10.14,14.73 	"/>
	<polygon class="st1" points="8.57,10.27 8.41,10.52 12.32,12.91 14.36,12.65 13.19,14.7 16.62,16.95 18.22,19.77 17.58,23.3 
		18.29,26.37 16.24,28.45 6.65,28.45 5.27,26.2 5.67,23.73 5.03,20.38 6.36,16.96 10.51,14.88 8.86,10.16 8.57,10.27 8.41,10.52 
		8.57,10.27 8.29,10.37 9.76,14.58 5.88,16.52 4.4,20.33 5.05,23.74 4.64,26.33 6.31,29.06 16.49,29.06 18.95,26.56 18.2,23.28 
		18.85,19.66 17.08,16.53 14,14.51 15.48,11.9 12.46,12.28 8,9.56 8.29,10.37 	"/>
	<polygon class="st4" points="6.43,10.7 10.24,13.03 12.78,12.71 11.45,15.04 14.7,17.17 16.39,20.14 15.75,23.72 16.47,26.9 
		14.22,29.19 4.34,29.19 2.81,26.7 3.21,24.16 2.57,20.79 3.98,17.17 7.99,15.16 	"/>
	<polygon class="st1" points="6.43,10.7 6.27,10.95 10.18,13.34 12.21,13.08 11.05,15.13 14.48,17.38 16.07,20.2 15.44,23.73 
		16.14,26.8 14.1,28.88 4.51,28.88 3.13,26.63 3.52,24.16 2.88,20.81 4.22,17.39 8.37,15.31 6.71,10.59 6.43,10.7 6.27,10.95 
		6.43,10.7 6.14,10.8 7.62,15.01 3.74,16.95 2.26,20.76 2.91,24.17 2.49,26.76 4.17,29.49 14.35,29.49 16.81,26.99 16.06,23.71 
		16.71,20.09 14.93,16.95 11.85,14.94 13.34,12.33 10.31,12.71 5.86,9.99 6.14,10.8 	"/>
	<polygon class="st3" points="4.28,11.12 8.1,13.46 10.63,13.13 9.3,15.47 12.56,17.6 14.25,20.57 13.6,24.15 14.33,27.32 
		12.08,29.62 2.19,29.62 0.67,27.12 1.07,24.59 0.43,21.21 1.83,17.6 5.85,15.59 	"/>
	<polygon class="st1" points="4.28,11.12 4.12,11.38 8.03,13.77 10.07,13.51 8.9,15.56 12.33,17.81 13.93,20.62 13.3,24.16 
		14,27.23 11.95,29.31 2.36,29.31 0.98,27.06 1.38,24.59 0.74,21.24 2.07,17.81 6.22,15.74 4.57,11.02 4.28,11.12 4.12,11.38 
		4.28,11.12 4,11.22 5.48,15.44 1.59,17.38 0.11,21.19 0.76,24.6 0.35,27.19 2.02,29.92 12.2,29.92 14.66,27.42 13.91,24.14 
		14.56,20.52 12.79,17.38 9.71,15.37 11.19,12.76 8.17,13.14 3.72,10.42 4,11.22 	"/>
	<path class="st2" d="M65.32,28.12v-12.9c0-0.67-0.55-1.22-1.22-1.22h-3.41c-0.67,0-1.22,0.55-1.22,1.22v12.9"/>
	<path class="st1" d="M65.64,28.12V15.21c0-0.84-0.68-1.52-1.53-1.52h-3.44c-0.84,0-1.53,0.68-1.53,1.52v12.92h0.61V15.21
		c0-0.5,0.42-0.91,0.92-0.91h3.44c0.51,0,0.92,0.41,0.92,0.91v12.92H65.64z"/>
	<path class="st2" d="M53.58,28.12v-12.9c0-0.67-0.55-1.22-1.21-1.22h-3.42c-0.67,0-1.21,0.55-1.21,1.22v12.9"/>
	<path class="st1" d="M53.9,28.12V15.21c0-0.84-0.68-1.52-1.52-1.52h-3.44c-0.84,0-1.52,0.68-1.52,1.52v12.92h0.61V15.21
		c0-0.5,0.41-0.91,0.92-0.91h3.44c0.51,0,0.92,0.41,0.92,0.91v12.92H53.9z"/>
	<path class="st5" d="M59.45,28.12V12.65c0-0.67-0.55-1.22-1.21-1.22h-3.41c-0.67,0-1.22,0.55-1.22,1.22v15.47"/>
	<path class="st6" d="M59.47,28.12V12.63c0-0.67-0.55-1.22-1.22-1.22h-3.44c-0.67,0-1.22,0.55-1.22,1.22v15.49"/>
	<path class="st1" d="M59.77,28.12V12.63c0-0.84-0.69-1.52-1.53-1.52h-3.44c-0.84,0-1.52,0.68-1.52,1.52v15.49h0.6V12.63
		c0-0.5,0.42-0.91,0.92-0.91h3.44c0.5,0,0.92,0.41,0.92,0.91v15.49H59.77z"/>
	<path class="st0" d="M57.59,17.31c0,0.62-0.5,1.12-1.11,1.12c-0.62,0-1.11-0.5-1.11-1.12s0.5-1.11,1.11-1.11
		C57.09,16.19,57.59,16.69,57.59,17.31"/>
	<path class="st1" d="M57.59,17.31h-0.3c0,0.45-0.36,0.81-0.81,0.81c-0.45,0-0.81-0.36-0.81-0.81c0-0.45,0.36-0.81,0.81-0.81
		c0.45,0,0.81,0.36,0.81,0.81H57.59h0.3c0-0.78-0.63-1.42-1.42-1.42c-0.78,0-1.42,0.63-1.42,1.42s0.63,1.42,1.42,1.42
		c0.78,0,1.42-0.64,1.42-1.42H57.59z"/>
	<path class="st0" d="M63.51,17.31c0,0.62-0.5,1.12-1.11,1.12c-0.62,0-1.11-0.5-1.11-1.12s0.5-1.11,1.11-1.11
		C63.02,16.19,63.51,16.69,63.51,17.31"/>
	<path class="st1" d="M63.51,17.31h-0.3c0,0.45-0.36,0.81-0.81,0.81c-0.45,0-0.81-0.36-0.81-0.81c0-0.45,0.36-0.81,0.81-0.81
		c0.45,0,0.81,0.36,0.81,0.81H63.51h0.3c0-0.78-0.64-1.42-1.42-1.42c-0.78,0-1.42,0.63-1.42,1.42s0.63,1.42,1.42,1.42
		c0.78,0,1.42-0.64,1.42-1.42H63.51z"/>
	<path class="st0" d="M51.78,17.31c0,0.62-0.5,1.12-1.11,1.12c-0.62,0-1.12-0.5-1.12-1.12s0.5-1.11,1.12-1.11
		C51.28,16.19,51.78,16.69,51.78,17.31"/>
	<path class="st1" d="M51.78,17.31h-0.3c0,0.45-0.36,0.81-0.81,0.81c-0.45,0-0.81-0.37-0.81-0.81c0-0.45,0.36-0.81,0.81-0.81
		c0.45,0,0.81,0.36,0.81,0.81H51.78h0.3c0-0.78-0.63-1.42-1.42-1.42c-0.78,0-1.42,0.63-1.42,1.42c0,0.78,0.64,1.42,1.42,1.42
		c0.78,0,1.41-0.64,1.42-1.42H51.78z"/>
	<rect x="47.72" y="28.21" class="st0" width="17.62" height="1.32"/>
	<polygon class="st1" points="65.34,29.53 65.34,29.23 48.02,29.23 48.02,28.51 65.04,28.51 65.04,29.53 65.34,29.53 65.34,29.23 
		65.34,29.53 65.64,29.53 65.64,28.21 65.64,27.9 47.42,27.9 47.42,29.83 65.64,29.83 65.64,29.53 	"/>
	<path class="st1" d="M2.4,6.73c0.97,0,1.64-0.63,1.64-1.61c0-0.62-0.39-1.22-0.93-1.41C3.32,3.52,3.49,3.2,3.49,2.9
		c0-0.9-0.65-1.52-1.61-1.52H0.36C0.11,1.38,0,1.56,0,1.74v4.64c0,0.18,0.11,0.35,0.36,0.35H2.4z M0.93,5.84V4.39h1.41
		c0.43,0,0.76,0.3,0.76,0.73c0,0.43-0.3,0.72-0.72,0.72H0.93z M0.93,2.28h0.95c0.4,0,0.68,0.28,0.67,0.66
		c-0.01,0.28-0.22,0.54-0.45,0.6H0.93V2.28z M7.98,4.55c0.6-0.19,1.08-0.74,1.08-1.52c0-0.97-0.7-1.65-1.75-1.65H5.59
		c-0.25,0-0.37,0.18-0.37,0.36v4.64c0,0.18,0.12,0.35,0.37,0.35h0.21c0.25,0,0.36-0.17,0.36-0.35V4.66H7l1.2,1.86
		c0.08,0.12,0.23,0.2,0.37,0.2h0.3c0.28,0,0.44-0.25,0.27-0.49L7.98,4.55z M7.31,2.28c0.49,0,0.79,0.32,0.79,0.78
		c0,0.43-0.29,0.73-0.83,0.73h-1.1V2.28H7.31z M12.34,6.79c1.19,0,1.94-0.72,1.94-1.89V1.74c0-0.18-0.11-0.36-0.36-0.36h-0.21
		c-0.25,0-0.36,0.18-0.36,0.36v3.18c0,0.63-0.4,0.99-1.01,0.99c-0.6,0-1.02-0.36-1.02-0.99V1.74c0-0.18-0.11-0.36-0.36-0.36h-0.21
		c-0.25,0-0.36,0.18-0.36,0.36v3.17C10.39,6.08,11.13,6.79,12.34,6.79 M16.46,1.57c-0.07-0.1-0.19-0.19-0.34-0.19h-0.33
		c-0.26,0-0.41,0.26-0.24,0.52L16.95,4l-1.48,2.21c-0.18,0.27-0.01,0.52,0.25,0.52h0.31c0.18,0,0.28-0.09,0.35-0.18l1.14-1.74
		l1.14,1.74c0.06,0.1,0.16,0.18,0.34,0.18h0.31c0.27,0,0.43-0.25,0.26-0.51L18.08,4l1.42-2.1c0.17-0.26,0.01-0.52-0.25-0.52H18.9
		c-0.15,0-0.27,0.09-0.34,0.19l-1.05,1.61L16.46,1.57z M23.9,2.28c0.19,0,0.35-0.14,0.35-0.36V1.74c0-0.23-0.16-0.36-0.35-0.36
		h-2.73c-0.25,0-0.36,0.17-0.36,0.36v4.64c0,0.19,0.11,0.35,0.36,0.35h2.86c0.22,0,0.37-0.16,0.37-0.35V6.19
		c0-0.19-0.15-0.35-0.37-0.35h-2.29V4.41h1.66c0.21,0,0.37-0.13,0.37-0.36V3.88c0-0.23-0.16-0.36-0.37-0.36h-1.66V2.28H23.9z
		 M28.55,6.73c0.18,0,0.35-0.11,0.35-0.35v-0.2c0-0.24-0.17-0.35-0.35-0.35h-2.12V1.74c0-0.18-0.12-0.36-0.35-0.36h-0.21
		c-0.24,0-0.35,0.18-0.35,0.36v4.64c0,0.18,0.1,0.35,0.35,0.35H28.55z M32.75,6.73c0.19,0,0.35-0.11,0.35-0.35v-0.2
		c0-0.24-0.17-0.35-0.35-0.35h-2.12V1.74c0-0.18-0.12-0.36-0.35-0.36h-0.21c-0.24,0-0.35,0.18-0.35,0.36v4.64
		c0,0.18,0.1,0.35,0.35,0.35H32.75z M37.01,2.28c0.19,0,0.35-0.14,0.35-0.36V1.74c0-0.23-0.16-0.36-0.35-0.36h-2.73
		c-0.25,0-0.36,0.17-0.36,0.36v4.64c0,0.19,0.11,0.35,0.36,0.35h2.86c0.22,0,0.37-0.16,0.37-0.35V6.19c0-0.19-0.15-0.35-0.37-0.35
		h-2.29V4.41h1.66c0.21,0,0.37-0.13,0.37-0.36V3.88c0-0.23-0.16-0.36-0.37-0.36h-1.66V2.28H37.01z M40.91,3.64
		c-0.3-0.07-0.54-0.13-0.83-0.21c-0.36-0.1-0.69-0.25-0.7-0.57c-0.01-0.39,0.36-0.66,0.87-0.66c0.51,0,0.9,0.23,0.94,0.67
		c0.02,0.19,0.17,0.33,0.38,0.33h0.21c0.25,0,0.38-0.16,0.35-0.38c-0.1-0.9-0.9-1.5-1.87-1.5c-1.03,0-1.83,0.56-1.83,1.56
		c0,0.88,0.72,1.24,1.34,1.42c0.31,0.09,0.61,0.17,0.89,0.24c0.47,0.11,0.66,0.32,0.66,0.63c0,0.4-0.4,0.74-1.03,0.74
		c-0.66,0-1.08-0.31-1.12-0.97C39.16,4.7,39,4.58,38.8,4.58h-0.24c-0.21,0-0.35,0.16-0.35,0.36c0.02,1.23,0.9,1.86,2.08,1.86
		c1.24,0,2-0.82,2-1.66C42.3,4.36,41.87,3.86,40.91,3.64 M45.09,5.28c0.18,0,0.33-0.1,0.33-0.32V4.78c0-0.23-0.15-0.33-0.33-0.33
		h-1.55c-0.18,0-0.33,0.12-0.33,0.33v0.17c0,0.21,0.14,0.32,0.33,0.32H45.09z M46.97,1.38c-0.22,0-0.37,0.16-0.37,0.37v4.62
		c0,0.18,0.13,0.36,0.36,0.36h0.22c0.24,0,0.35-0.18,0.35-0.36v-1.6h1.2c1.19,0,1.8-0.67,1.8-1.69c0-1.02-0.68-1.7-1.79-1.7H46.97z
		 M48.74,2.28c0.54,0,0.86,0.32,0.86,0.83c0,0.5-0.32,0.79-0.86,0.79h-1.2V2.28H48.74z M54.33,4.55c0.6-0.19,1.08-0.74,1.08-1.52
		c0-0.97-0.7-1.65-1.75-1.65h-1.72c-0.25,0-0.37,0.18-0.37,0.36v4.64c0,0.18,0.12,0.35,0.37,0.35h0.21c0.25,0,0.36-0.17,0.36-0.35
		V4.66h0.83l1.2,1.86c0.08,0.12,0.23,0.2,0.37,0.2h0.3c0.28,0,0.44-0.25,0.27-0.49L54.33,4.55z M53.65,2.28
		c0.49,0,0.79,0.32,0.79,0.78c0,0.43-0.29,0.73-0.83,0.73h-1.1V2.28H53.65z M58.55,6.79c1.34,0,2.22-1.14,2.22-2.73
		c0-1.59-0.89-2.74-2.22-2.74c-1.33,0-2.22,1.15-2.22,2.74C56.33,5.65,57.21,6.79,58.55,6.79 M58.55,2.19c0.8,0,1.29,0.83,1.29,1.87
		c0,1.06-0.48,1.84-1.29,1.84c-0.81,0-1.29-0.78-1.29-1.84C57.26,3.01,57.75,2.19,58.55,2.19 M62.35,1.38
		c-0.22,0-0.37,0.16-0.37,0.37v4.62c0,0.18,0.13,0.36,0.36,0.36h0.22c0.24,0,0.35-0.18,0.35-0.36v-1.6h1.2c1.19,0,1.8-0.67,1.8-1.69
		c0-1.02-0.68-1.7-1.79-1.7H62.35z M64.12,2.28c0.54,0,0.86,0.32,0.86,0.83c0,0.5-0.32,0.79-0.86,0.79h-1.2V2.28H64.12z M69.71,4.55
		c0.6-0.19,1.08-0.74,1.08-1.52c0-0.97-0.7-1.65-1.75-1.65h-1.72c-0.25,0-0.37,0.18-0.37,0.36v4.64c0,0.18,0.12,0.35,0.37,0.35h0.21
		c0.25,0,0.36-0.17,0.36-0.35V4.66h0.83l1.2,1.86c0.08,0.12,0.23,0.2,0.37,0.2h0.3c0.28,0,0.44-0.25,0.27-0.49L69.71,4.55z
		 M69.03,2.28c0.49,0,0.79,0.32,0.79,0.78c0,0.43-0.29,0.73-0.83,0.73h-1.1V2.28H69.03z M75.2,2.28c0.19,0,0.35-0.14,0.35-0.36V1.74
		c0-0.23-0.16-0.36-0.35-0.36h-2.73c-0.25,0-0.36,0.17-0.36,0.36v4.64c0,0.19,0.11,0.35,0.36,0.35h2.86c0.22,0,0.37-0.16,0.37-0.35
		V6.19c0-0.19-0.15-0.35-0.37-0.35h-2.29V4.41h1.66c0.21,0,0.37-0.13,0.37-0.36V3.88c0-0.23-0.16-0.36-0.37-0.36h-1.66V2.28H75.2z
		 M77.8,2.28v4.1c0,0.19,0.13,0.35,0.35,0.35h0.21c0.23,0,0.36-0.16,0.36-0.35v-4.1h1.27c0.21,0,0.35-0.14,0.35-0.36V1.74
		c0-0.22-0.15-0.36-0.35-0.36h-3.46c-0.21,0-0.35,0.14-0.35,0.36v0.18c0,0.22,0.15,0.36,0.35,0.36H77.8z M84.28,2.28
		c0.19,0,0.35-0.14,0.35-0.36V1.74c0-0.23-0.16-0.36-0.35-0.36h-2.73c-0.25,0-0.36,0.17-0.36,0.36v4.64c0,0.19,0.11,0.35,0.36,0.35
		h2.86c0.22,0,0.37-0.16,0.37-0.35V6.19c0-0.19-0.15-0.35-0.37-0.35h-2.29V4.41h1.66c0.21,0,0.37-0.13,0.37-0.36V3.88
		c0-0.23-0.16-0.36-0.37-0.36h-1.66V2.28H84.28z M82.57,0.83c-0.07,0.13,0.01,0.24,0.13,0.24h0.32c0.14,0,0.24-0.07,0.34-0.18
		l0.51-0.62C83.96,0.16,83.9,0,83.74,0h-0.46c-0.14,0-0.25,0.09-0.31,0.19L82.57,0.83z"/>
	<path class="st7" d="M91.15,46.58c0-0.98-0.37-1.53-1.78-1.53c-0.98,0-1.64,0.45-1.64,1.53c0,0.98,0.61,1.6,1.7,1.6
		C90.48,48.18,91.15,47.68,91.15,46.58 M96.05,34.28c0-0.72-0.16-1.15-1.45-1.15c-1.17,0-1.53,0.37-1.53,1.15
		c0,7.02,0.02,11.07,0.02,12.69c0,0.67,0.27,1.04,1.17,1.04c0.7,0,1.11-0.17,1.23-0.8c0.16-0.84,0.14-0.98,0.33-0.98
		c0.39,0,0.37,1.92,3.58,1.92c2.72,0,4.4-2.31,4.4-5.61c0-3.6-1.64-5.47-4.24-5.47c-2.58,0-2.99,1.47-3.34,1.47
		c-0.16,0-0.21-0.08-0.21-0.45c0-0.35,0.04-0.67,0.04-1.72V34.28z M98.32,45.96c-1.43,0-2.42-1.21-2.42-3.21
		c0-2.35,1.09-3.11,2.54-3.11c1.47,0,2.4,0.76,2.4,2.97C100.84,44.78,99.83,45.96,98.32,45.96 M107.96,43.16
		c0-2.07,0.9-3.09,2.62-3.09c1.04,0,1.19-0.68,1.19-1.43c0-0.9-0.37-1.21-1.21-1.21c-2.11,0-2.48,1.8-2.82,1.8
		c-0.14,0-0.21-0.1-0.31-0.8c-0.12-0.78-0.33-1-1.19-1c-0.86,0-1.13,0.22-1.13,0.9c0,0.7-0.08,3.21-0.08,8.64
		c0,0.76,0.39,1.08,1.47,1.08c1.17,0,1.46-0.35,1.46-1.08V43.16z M122.57,46.93c0-0.7,0.06-7.33,0.06-8.56
		c0-0.76-0.47-0.94-1.51-0.94c-1.08,0-1.45,0.26-1.45,0.9c0,0.65,0.04,1.53,0.04,4.07c0,2.25-0.72,3.38-2.17,3.38
		c-1.19,0-1.86-0.9-1.86-2.7c0-1.04,0.04-4.36,0.04-4.73c0-0.8-0.43-0.98-1.47-0.98c-1.17,0-1.45,0.35-1.45,1.02
		c0,3.62,0.02,2.11,0.02,5.38c0,3.01,1.17,4.5,3.56,4.5c2.93,0,3.03-2.11,3.38-2.11c0.18,0,0.18,0.39,0.29,0.84
		c0.14,0.63,0.41,1,1.31,1C122.21,48.01,122.57,47.6,122.57,46.93 M125.01,44.41c-0.71,0-1.02,0.35-1.02,1.08
		c0,1.02,1.21,2.78,4.59,2.78c3.42,0,4.93-1.49,4.93-3.25c0-1.45-0.61-2.42-4.01-3.01c-2.31-0.41-2.66-0.78-2.66-1.55
		c0-0.74,0.65-1.11,1.82-1.11c0.98,0,1.64,0.31,2.11,1.11c0.16,0.29,0.49,0.65,1.07,0.65c0.84,0,1.33-0.37,1.33-1.06
		c0-1.47-1.33-2.85-4.48-2.85c-2.31,0-4.57,1.08-4.57,3.46c0,1.43,0.61,2.72,3.56,3.21c2.36,0.39,3.01,0.55,3.01,1.27
		c0,0.51-0.39,1.02-1.82,1.02C126.12,46.17,126.32,44.41,125.01,44.41 M135.59,44.41c-0.72,0-1.02,0.35-1.02,1.08
		c0,1.02,1.21,2.78,4.59,2.78c3.42,0,4.93-1.49,4.93-3.25c0-1.45-0.61-2.42-4.01-3.01c-2.31-0.41-2.66-0.78-2.66-1.55
		c0-0.74,0.66-1.11,1.82-1.11c0.98,0,1.64,0.31,2.11,1.11c0.16,0.29,0.49,0.65,1.07,0.65c0.84,0,1.33-0.37,1.33-1.06
		c0-1.47-1.33-2.85-4.48-2.85c-2.31,0-4.57,1.08-4.57,3.46c0,1.43,0.61,2.72,3.56,3.21c2.35,0.39,3.01,0.55,3.01,1.27
		c0,0.51-0.39,1.02-1.82,1.02C136.7,46.17,136.9,44.41,135.59,44.41 M155.16,45.39c0-0.69-0.49-1.06-1.02-1.06
		c-1.49,0-1.02,1.66-3.58,1.66c-1.55,0-2.62-1.04-2.62-2.44c0-0.33,0.04-0.53,0.49-0.53c0.47,0,5.28,0.02,5.85,0.02
		c0.8,0,1.19-0.24,1.19-1.47c0-2.8-1.82-4.38-5.01-4.38c-3.4,0-5.3,2.23-5.3,5.36c0,3.5,2.03,5.71,5.28,5.71
		C153.89,48.26,155.16,46.41,155.16,45.39 M148.47,41.56c-0.37,0-0.45-0.12-0.45-0.43c0-0.72,0.72-1.82,2.52-1.82
		c1.74,0,2.46,1.02,2.46,1.78c0,0.33-0.12,0.47-0.51,0.47H148.47z M156.9,45.68c0,1.56,0.82,2.6,2.54,2.6
		c1.25,0,1.84-0.45,1.84-1.31c0-0.61-0.27-0.94-0.8-0.94c-0.23,0-0.33,0.04-0.47,0.04c-0.26,0-0.35-0.14-0.35-0.53
		c0-1,0.08-10.05,0.08-11.26c0-0.9-0.41-1.15-1.39-1.15c-1.06,0-1.45,0.39-1.45,1.1V45.68z M162.74,44.41
		c-0.72,0-1.02,0.35-1.02,1.08c0,1.02,1.21,2.78,4.59,2.78c3.42,0,4.93-1.49,4.93-3.25c0-1.45-0.61-2.42-4.01-3.01
		c-2.31-0.41-2.66-0.78-2.66-1.55c0-0.74,0.66-1.11,1.82-1.11c0.98,0,1.64,0.31,2.11,1.11c0.16,0.29,0.49,0.65,1.07,0.65
		c0.84,0,1.33-0.37,1.33-1.06c0-1.47-1.33-2.85-4.48-2.85c-2.31,0-4.57,1.08-4.57,3.46c0,1.43,0.61,2.72,3.56,3.21
		c2.35,0.39,3.01,0.55,3.01,1.27c0,0.51-0.39,1.02-1.82,1.02C163.84,46.17,164.05,44.41,162.74,44.41"/>
	<path class="st4" d="M3.36,47.4c0-0.16,0.06-0.25,0.19-0.25c0.35,0,0.86,1.15,3.12,1.15c2.56,0,4.86-1.96,4.86-5.46
		c0-3.69-1.95-5.63-4.73-5.63c-2.69,0-3.05,1.76-3.55,1.76c-0.15,0-0.24-0.12-0.34-0.53c-0.24-0.92-0.43-1.11-1.27-1.11
		c-1.12,0-1.27,0.29-1.27,0.98s-0.07,6.67-0.07,12.14c0,0.8,0.67,0.98,1.57,0.98c1.25,0,1.53-0.33,1.53-0.98
		c0-0.41-0.04-1.13-0.04-1.66V47.4z M5.94,46c-1.53,0-2.52-1.02-2.52-3.38c0-1.86,1.2-2.91,2.45-2.91c1.55,0,2.58,1.02,2.58,2.87
		C8.46,45.14,7.47,46,5.94,46 M16.02,43.16c0-2.07,0.94-3.09,2.75-3.09c1.1,0,1.25-0.68,1.25-1.43c0-0.9-0.39-1.21-1.27-1.21
		c-2.21,0-2.6,1.8-2.97,1.8c-0.15,0-0.22-0.1-0.32-0.8c-0.13-0.78-0.34-1-1.25-1c-0.9,0-1.18,0.22-1.18,0.9
		c0,0.7-0.09,3.21-0.09,8.64c0,0.76,0.41,1.08,1.55,1.08c1.22,0,1.53-0.35,1.53-1.08V43.16z M26.1,48.26c3.55,0,5.55-2.6,5.55-5.51
		c0-3.77-2.04-5.57-5.68-5.57c-3.67,0.04-5.57,1.97-5.57,5.61C20.41,46.13,22.6,48.26,26.1,48.26 M26.04,45.9
		c-1.87,0-2.75-1.21-2.75-2.95c0-1.66,0.71-3.23,2.67-3.23c2.28,0,2.9,1.45,2.9,3.23C28.86,44.47,27.93,45.9,26.04,45.9 M36.12,47.4
		c0-0.16,0.06-0.25,0.19-0.25c0.35,0,0.86,1.15,3.12,1.15c2.56,0,4.86-1.96,4.86-5.46c0-3.69-1.96-5.63-4.73-5.63
		c-2.69,0-3.05,1.76-3.55,1.76c-0.15,0-0.24-0.12-0.34-0.53c-0.24-0.92-0.43-1.11-1.27-1.11c-1.12,0-1.27,0.29-1.27,0.98
		s-0.06,6.67-0.06,12.14c0,0.8,0.67,0.98,1.57,0.98c1.25,0,1.53-0.33,1.53-0.98c0-0.41-0.04-1.13-0.04-1.66V47.4z M38.7,46
		c-1.53,0-2.52-1.02-2.52-3.38c0-1.86,1.2-2.91,2.45-2.91c1.55,0,2.58,1.02,2.58,2.87C41.22,45.14,40.23,46,38.7,46 M48.78,43.16
		c0-2.07,0.95-3.09,2.75-3.09c1.1,0,1.25-0.68,1.25-1.43c0-0.9-0.39-1.21-1.27-1.21c-2.21,0-2.6,1.8-2.97,1.8
		c-0.15,0-0.22-0.1-0.32-0.8c-0.13-0.78-0.34-1-1.25-1s-1.18,0.22-1.18,0.9c0,0.7-0.09,3.21-0.09,8.64c0,0.76,0.41,1.08,1.55,1.08
		c1.22,0,1.52-0.35,1.52-1.08V43.16z M64.06,45.39c0-0.7-0.51-1.06-1.07-1.06c-1.57,0-1.07,1.66-3.76,1.66
		c-1.63,0-2.75-1.04-2.75-2.44c0-0.33,0.04-0.53,0.52-0.53c0.5,0,5.55,0.02,6.15,0.02c0.84,0,1.25-0.24,1.25-1.47
		c0-2.81-1.91-4.38-5.27-4.38c-3.57,0-5.57,2.23-5.57,5.36c0,3.5,2.13,5.71,5.54,5.71C62.73,48.26,64.06,46.41,64.06,45.39
		 M57.03,41.56c-0.39,0-0.47-0.12-0.47-0.43c0-0.72,0.75-1.82,2.64-1.82c1.83,0,2.58,1.02,2.58,1.78c0,0.33-0.13,0.47-0.54,0.47
		H57.03z M71.95,39.6c0.62,0,0.86-0.23,0.86-1.08c0-0.88-0.26-1.08-0.79-1.08h-1.93c-0.22,0-0.32-0.06-0.32-0.33v-2.05
		c0-0.8-0.41-1.13-1.48-1.13c-1.07,0-1.52,0.35-1.52,1.17c0,0.53-0.02,1.47-0.02,2.05c0,0.33-0.28,0.47-0.99,0.57
		c-0.52,0.08-0.69,0.43-0.69,0.96c0,0.74,0.19,0.92,0.6,0.92h0.77c0.26,0,0.3,0.12,0.3,0.43c0,1.62,0.02,3.38,0.02,5.28
		c0,1.82,1.03,2.97,3.27,2.97c1.87,0,2.82-0.49,2.82-1.39c0-0.74-0.41-1.09-0.97-1.09c-0.52,0-0.56,0.25-1.18,0.25
		c-0.69,0-0.97-0.39-0.97-1.17c0-0.63,0.02-3.72,0.02-4.85c0-0.31,0.04-0.43,0.47-0.43H71.95z M84.33,45.39
		c0-0.7-0.52-1.06-1.07-1.06c-1.57,0-1.07,1.66-3.76,1.66c-1.63,0-2.75-1.04-2.75-2.44c0-0.33,0.04-0.53,0.51-0.53
		c0.5,0,5.54,0.02,6.15,0.02c0.84,0,1.25-0.24,1.25-1.47c0-2.81-1.91-4.38-5.27-4.38c-3.57,0-5.57,2.23-5.57,5.36
		c0,3.5,2.13,5.71,5.55,5.71C83,48.26,84.33,46.41,84.33,45.39 M77.3,41.56c-0.39,0-0.47-0.12-0.47-0.43c0-0.72,0.75-1.82,2.64-1.82
		c1.83,0,2.58,1.02,2.58,1.78c0,0.33-0.13,0.47-0.54,0.47H77.3z M79.19,36.18c0.56,0,0.79-0.19,1.42-1.27
		c0.47-0.82,0.62-1.13,0.62-1.39c0-0.49-0.47-0.72-1.18-0.72c-0.69,0-0.88,0.2-1.4,1.29c-0.41,0.86-0.54,1.15-0.54,1.49
		C78.12,35.95,78.57,36.18,79.19,36.18"/>
	<path class="st7" d="M178.14,39.66c-1.92,0-3.82,1.44-3.82,3.86c0,2.34,2.17,3.8,4.06,3.8c2.08,0,3.08-0.65,4.83-0.3
		c1.37,0.28,2.11,0.94,2.47,1.29c0.18,0.17,0.4,0.19,0.55,0.09c0.15-0.1,0.25-0.29,0.15-0.74c-0.24-1.06-0.8-2.24-1.45-3.24
		C183.63,42.44,181.03,39.66,178.14,39.66"/>
	<path class="st7" d="M195.88,39.66c1.92,0,3.82,1.44,3.82,3.86c0,2.34-2.17,3.8-4.06,3.8c-2.08,0-3.08-0.65-4.83-0.3
		c-1.37,0.28-2.11,0.94-2.47,1.29c-0.18,0.17-0.4,0.19-0.55,0.09c-0.15-0.1-0.25-0.29-0.15-0.74c0.24-1.06,0.8-2.24,1.45-3.24
		C190.38,42.44,192.99,39.66,195.88,39.66"/>
	<path class="st8" d="M189.46,33.13c-1.07,0-1.96,0.45-2.46,1.11c-0.5-0.66-1.38-1.11-2.46-1.11c-1.94,0-3.72,1.54-3.72,3.78
		c0,0.98,0.4,1.73,0.75,2.25c0.41,0.59,0.94,1.11,1.79,1.84c1.22,1.06,2.23,2.1,3.19,4.12c0.08,0.16,0.24,0.34,0.45,0.34
		c0.21,0,0.37-0.18,0.45-0.34c0.96-2.03,1.97-3.06,3.19-4.12c0.84-0.73,1.38-1.25,1.79-1.84c0.36-0.52,0.75-1.27,0.75-2.25
		C193.18,34.67,191.4,33.13,189.46,33.13"/>
	<path class="st2" d="M189.37,34.24c-1.29,0-2.09,0.97-2.37,1.66c-0.28-0.69-1.08-1.66-2.36-1.66c-1.48,0-2.68,1.22-2.68,2.7
		c0,0.56,0.19,1.07,0.53,1.54c1.35,1.84,3.18,2.43,4.51,5.31c1.33-2.88,3.16-3.47,4.51-5.31c0.34-0.47,0.53-0.98,0.53-1.54
		C192.05,35.46,190.85,34.24,189.37,34.24"/>
</g>
</svg>
