<?xml version="1.0" encoding="utf-8"?>
<!-- Generator: Adobe Illustrator 23.0.2, SVG Export Plug-In . SVG Version: 6.00 Build 0)  -->
<svg version="1.1" id="icons" xmlns="http://www.w3.org/2000/svg" xmlns:xlink="http://www.w3.org/1999/xlink" x="0px" y="0px"
	 viewBox="0 0 408 380" style="enable-background:new 0 0 408 380;" xml:space="preserve">
<style type="text/css">
	.st0{fill:#FFFFFF;}
</style>
<g>
	<g>
		<g>
			<path class="st0" d="M209.6,282.3c-3.4,0-6.2-2.8-6.2-6.2v-16.5c0-3.4,2.8-6.2,6.2-6.2s6.2,2.8,6.2,6.2v16.5
				C215.8,279.5,213,282.3,209.6,282.3z M208.9,233.2c0,0-0.1,0-0.1,0c-3.4-0.1-6.2-2.9-6.1-6.3c0.2-9,0.8-15.5,2-19.7
				c1.2-4.5,3.1-8.5,5.6-12c2.4-3.3,7.1-8,14.3-14.4c9.6-8.5,16.1-15.7,19.3-21.4c3-5.4,4.5-11.2,4.5-17.7
				c0-11.2-4.2-20.5-12.9-28.5c-8.9-8.1-20.6-12.1-35.9-12.1c-14.4,0-25.5,3.7-34,11.2c-8.4,7.4-13.6,18.4-15.3,32.8
				c-0.4,3.4-3.5,5.9-6.9,5.4c-3.4-0.4-5.8-3.5-5.4-6.9c2.1-17.5,8.7-31.1,19.4-40.6c10.7-9.5,25-14.3,42.3-14.3
				c18.3,0,33.2,5.2,44.3,15.3c11.3,10.3,17,23,17,37.7c0,8.5-2,16.5-6,23.7c-3.9,7-11.1,15.1-21.9,24.7
				c-8.1,7.2-11.3,10.7-12.5,12.4c-1.6,2.3-2.9,4.9-3.7,7.9c-0.6,2.2-1.4,6.9-1.5,16.7C215,230.5,212.2,233.2,208.9,233.2z"/>
		</g>
	</g>
	<g>
		<path class="st0" d="M100.6,363.4c-1.1,0-2.3-0.3-3.3-0.9c-1.8-1.1-2.9-3.1-2.9-5.3v-64.5c-31.9-30.1-50.2-72.3-50.2-116.3
			c0-88.1,71.7-159.8,159.8-159.8s159.8,71.7,159.8,159.8S292.1,336.2,204,336.2c-12.9,0-25.6-1.5-38-4.6l-62.6,31.1
			C102.5,363.2,101.6,363.4,100.6,363.4z M204,29C122.7,29,56.6,95.1,56.6,176.4c0,41.4,17.6,81.1,48.2,109c1.3,1.2,2,2.8,2,4.6
			v57.2l55.7-27.7c1.3-0.7,2.9-0.8,4.3-0.4c12.1,3.1,24.6,4.7,37.2,4.7c81.3,0,147.4-66.1,147.4-147.4S285.3,29,204,29z"/>
	</g>
</g>
</svg>
