<?xml version="1.0" encoding="utf-8"?>
<!-- Generator: Adobe Illustrator 23.0.2, SVG Export Plug-In . SVG Version: 6.00 Build 0)  -->
<svg version="1.1" id="icons" xmlns="http://www.w3.org/2000/svg" xmlns:xlink="http://www.w3.org/1999/xlink" x="0px" y="0px"
	 viewBox="0 0 408 380" style="enable-background:new 0 0 408 380;" xml:space="preserve">
<style type="text/css">
	.st0{fill:#1d1d1b;}
</style>
<g>
	<path class="st0" d="M204,343.8c-2.3,0-4.6-1.1-6-2.9C96.3,213.2,96.3,176.4,96.3,143.9c0-59.4,48.3-107.7,107.7-107.7
		c59.4,0,107.7,48.3,107.7,107.7c0,32.5,0,69.3-101.6,197C208.6,342.7,206.3,343.8,204,343.8z M204,51.6
		c-50.9,0-92.3,41.4-92.3,92.3c0,29.3,0,62.5,92.3,179.9c92.3-117.3,92.3-150.5,92.3-179.9C296.3,93,254.9,51.6,204,51.6z"/>
	<path class="st0" d="M204,190c-25.4,0-46.1-20.7-46.1-46.1s20.7-46.1,46.1-46.1c25.4,0,46.1,20.7,46.1,46.1S229.4,190,204,190z
		 M204,113.1c-17,0-30.8,13.8-30.8,30.8s13.8,30.8,30.8,30.8c17,0,30.8-13.8,30.8-30.8S221,113.1,204,113.1z"/>
</g>
</svg>
