<?xml version="1.0" encoding="utf-8"?>
<!-- Generator: Adobe Illustrator 23.0.3, SVG Export Plug-In . SVG Version: 6.00 Build 0)  -->
<svg version="1.1" id="Calque_1" xmlns="http://www.w3.org/2000/svg" xmlns:xlink="http://www.w3.org/1999/xlink" x="0px" y="0px"
	 viewBox="0 0 127.56 45.06" style="enable-background:new 0 0 127.56 45.06;" xml:space="preserve">
<style type="text/css">
	.st0{fill:#E6EFD3;}
	.st1{fill:none;stroke:#E6EFD3;stroke-width:0.06;stroke-linejoin:round;stroke-miterlimit:10;}
	.st2{fill-rule:evenodd;clip-rule:evenodd;fill:#E0ECC9;}
	.st3{fill:none;stroke:#E0ECC9;stroke-width:0.06;stroke-linejoin:round;stroke-miterlimit:10;}
	.st4{fill-rule:evenodd;clip-rule:evenodd;fill:#DDE9C1;}
	.st5{fill:none;stroke:#DDE9C1;stroke-width:0.06;stroke-linejoin:round;stroke-miterlimit:10;}
	.st6{fill-rule:evenodd;clip-rule:evenodd;fill:#D7E6B8;}
	.st7{fill:none;stroke:#D7E6B8;stroke-width:0.06;stroke-linejoin:round;stroke-miterlimit:10;}
	.st8{fill-rule:evenodd;clip-rule:evenodd;fill:#D2E3B0;}
	.st9{fill:none;stroke:#D2E3B0;stroke-width:0.06;stroke-linejoin:round;stroke-miterlimit:10;}
	.st10{fill-rule:evenodd;clip-rule:evenodd;fill:#CEE1A8;}
	.st11{fill:none;stroke:#CEE1A8;stroke-width:0.06;stroke-linejoin:round;stroke-miterlimit:10;}
	.st12{fill-rule:evenodd;clip-rule:evenodd;fill:#CADFA1;}
	.st13{fill:none;stroke:#CADFA1;stroke-width:0.06;stroke-linejoin:round;stroke-miterlimit:10;}
	.st14{fill-rule:evenodd;clip-rule:evenodd;fill:#C6DC9B;}
	.st15{fill:none;stroke:#C6DC9B;stroke-width:0.06;stroke-linejoin:round;stroke-miterlimit:10;}
	.st16{fill-rule:evenodd;clip-rule:evenodd;fill:#C3DA94;}
	.st17{fill:none;stroke:#C3DA94;stroke-width:0.06;stroke-linejoin:round;stroke-miterlimit:10;}
	.st18{fill-rule:evenodd;clip-rule:evenodd;fill:#BFD88E;}
	.st19{fill:none;stroke:#BFD88E;stroke-width:0.06;stroke-linejoin:round;stroke-miterlimit:10;}
	.st20{fill-rule:evenodd;clip-rule:evenodd;fill:#BDD788;}
	.st21{fill:none;stroke:#BDD788;stroke-width:0.06;stroke-linejoin:round;stroke-miterlimit:10;}
	.st22{fill-rule:evenodd;clip-rule:evenodd;fill:#BAD584;}
	.st23{fill:none;stroke:#BAD584;stroke-width:0.06;stroke-linejoin:round;stroke-miterlimit:10;}
	.st24{fill-rule:evenodd;clip-rule:evenodd;fill:#B7D480;}
	.st25{fill:none;stroke:#B7D480;stroke-width:0.06;stroke-linejoin:round;stroke-miterlimit:10;}
	.st26{fill-rule:evenodd;clip-rule:evenodd;fill:#B3D27B;}
	.st27{fill:none;stroke:#B3D27B;stroke-width:0.06;stroke-linejoin:round;stroke-miterlimit:10;}
	.st28{fill-rule:evenodd;clip-rule:evenodd;fill:#B2D177;}
	.st29{fill:none;stroke:#B2D177;stroke-width:0.06;stroke-linejoin:round;stroke-miterlimit:10;}
	.st30{fill-rule:evenodd;clip-rule:evenodd;fill:#B1D074;}
	.st31{fill:none;stroke:#B1D074;stroke-width:0.06;stroke-linejoin:round;stroke-miterlimit:10;}
	.st32{fill-rule:evenodd;clip-rule:evenodd;fill:#AFCF72;}
	.st33{fill:none;stroke:#AFCF72;stroke-width:0.06;stroke-linejoin:round;stroke-miterlimit:10;}
	.st34{fill-rule:evenodd;clip-rule:evenodd;fill:#AECF70;}
	.st35{fill:none;stroke:#AECF70;stroke-width:0.06;stroke-linejoin:round;stroke-miterlimit:10;}
	.st36{fill-rule:evenodd;clip-rule:evenodd;fill:#ADCE6E;}
	.st37{fill:none;stroke:#ADCE6E;stroke-width:0.06;stroke-linejoin:round;stroke-miterlimit:10;}
	.st38{fill:#BCD3AF;}
	.st39{fill:none;stroke:#BCD3AF;stroke-width:0.06;stroke-linejoin:round;stroke-miterlimit:10;}
	.st40{fill:#B1CDA4;}
	.st41{fill:none;stroke:#B1CDA4;stroke-width:0.06;stroke-linejoin:round;stroke-miterlimit:10;}
	.st42{fill-rule:evenodd;clip-rule:evenodd;fill:#A9C799;}
	.st43{fill:none;stroke:#A9C799;stroke-width:0.06;stroke-linejoin:round;stroke-miterlimit:10;}
	.st44{fill-rule:evenodd;clip-rule:evenodd;fill:#A1C28F;}
	.st45{fill:none;stroke:#A1C28F;stroke-width:0.06;stroke-linejoin:round;stroke-miterlimit:10;}
	.st46{fill-rule:evenodd;clip-rule:evenodd;fill:#97BC85;}
	.st47{fill:none;stroke:#97BC85;stroke-width:0.06;stroke-linejoin:round;stroke-miterlimit:10;}
	.st48{fill-rule:evenodd;clip-rule:evenodd;fill:#8FB57A;}
	.st49{fill:none;stroke:#8FB57A;stroke-width:0.06;stroke-linejoin:round;stroke-miterlimit:10;}
	.st50{fill-rule:evenodd;clip-rule:evenodd;fill:#87B170;}
	.st51{fill:none;stroke:#87B170;stroke-width:0.06;stroke-linejoin:round;stroke-miterlimit:10;}
	.st52{fill-rule:evenodd;clip-rule:evenodd;fill:#80AE69;}
	.st53{fill:none;stroke:#80AE69;stroke-width:0.06;stroke-linejoin:round;stroke-miterlimit:10;}
	.st54{fill-rule:evenodd;clip-rule:evenodd;fill:#78A85F;}
	.st55{fill:none;stroke:#78A85F;stroke-width:0.06;stroke-linejoin:round;stroke-miterlimit:10;}
	.st56{fill-rule:evenodd;clip-rule:evenodd;fill:#72A458;}
	.st57{fill:none;stroke:#72A458;stroke-width:0.06;stroke-linejoin:round;stroke-miterlimit:10;}
	.st58{fill-rule:evenodd;clip-rule:evenodd;fill:#6B9F4F;}
	.st59{fill:none;stroke:#6B9F4F;stroke-width:0.06;stroke-linejoin:round;stroke-miterlimit:10;}
	.st60{fill-rule:evenodd;clip-rule:evenodd;fill:#659C48;}
	.st61{fill:none;stroke:#659C48;stroke-width:0.06;stroke-linejoin:round;stroke-miterlimit:10;}
	.st62{fill-rule:evenodd;clip-rule:evenodd;fill:#5F9842;}
	.st63{fill:none;stroke:#5F9842;stroke-width:0.06;stroke-linejoin:round;stroke-miterlimit:10;}
	.st64{fill-rule:evenodd;clip-rule:evenodd;fill:#5B953C;}
	.st65{fill:none;stroke:#5B953C;stroke-width:0.06;stroke-linejoin:round;stroke-miterlimit:10;}
	.st66{fill-rule:evenodd;clip-rule:evenodd;fill:#569236;}
	.st67{fill:none;stroke:#569236;stroke-width:0.06;stroke-linejoin:round;stroke-miterlimit:10;}
	.st68{fill-rule:evenodd;clip-rule:evenodd;fill:#528F32;}
	.st69{fill:none;stroke:#528F32;stroke-width:0.06;stroke-linejoin:round;stroke-miterlimit:10;}
	.st70{fill-rule:evenodd;clip-rule:evenodd;fill:#4F8E32;}
	.st71{fill:none;stroke:#4F8E32;stroke-width:0.06;stroke-linejoin:round;stroke-miterlimit:10;}
	.st72{fill-rule:evenodd;clip-rule:evenodd;fill:#4B8B33;}
	.st73{fill:none;stroke:#4B8B33;stroke-width:0.06;stroke-linejoin:round;stroke-miterlimit:10;}
	.st74{fill-rule:evenodd;clip-rule:evenodd;fill:#498933;}
	.st75{fill:none;stroke:#498933;stroke-width:0.06;stroke-linejoin:round;stroke-miterlimit:10;}
	.st76{fill-rule:evenodd;clip-rule:evenodd;fill:#468833;}
	.st77{fill:none;stroke:#468833;stroke-width:0.06;stroke-linejoin:round;stroke-miterlimit:10;}
	.st78{fill-rule:evenodd;clip-rule:evenodd;fill:#448733;}
	.st79{fill:none;stroke:#448733;stroke-width:0.06;stroke-linejoin:round;stroke-miterlimit:10;}
	.st80{fill-rule:evenodd;clip-rule:evenodd;fill:#438532;}
	.st81{fill:none;stroke:#438532;stroke-width:0.06;stroke-linejoin:round;stroke-miterlimit:10;}
	.st82{fill-rule:evenodd;clip-rule:evenodd;fill:#428533;}
	.st83{fill:none;stroke:#428533;stroke-width:0.06;stroke-linejoin:round;stroke-miterlimit:10;}
</style>
<polygon class="st0" points="113.01,11.22 113.5,11.66 113.67,11.73 113.67,11.13 "/>
<polygon class="st1" points="113.67,11.13 113.67,11.73 113.5,11.66 113.01,11.22 "/>
<path class="st2" d="M113.03,11.25l0.46,0.42l0.15,0.07v0.73l-0.5-0.27l-0.7-0.58l-0.15-0.2L113.03,11.25z M117.99,11.79l-0.5,0.42
	l-0.66,0.35l-0.31,0.07l0.13-0.03l0.88-0.46L117.99,11.79z"/>
<path class="st3" d="M113.03,11.25l0.46,0.42l0.15,0.07v0.73l-0.5-0.27l-0.7-0.58l-0.15-0.2L113.03,11.25z M117.99,11.79l-0.5,0.42
	l-0.66,0.35l-0.31,0.07l0.13-0.03l0.88-0.46L117.99,11.79z"/>
<path class="st4" d="M119.31,10.77l-0.39,0.73l-0.58,0.68l-0.66,0.55l-0.78,0.38l-0.82,0.24l-0.8,0.07l-0.55-0.04l0.31-0.07
	l0.82-0.31l0.69-0.39l0.31-0.07l0.66-0.35l0.51-0.42l0.35-0.22l0.38-0.31l0.44-0.35L119.31,10.77z M112.27,11.41l0.15,0.2l0.71,0.57
	l0.51,0.27v0.7l-0.08-0.04l-0.78-0.42l-0.69-0.53l-0.4-0.5L112.27,11.41z"/>
<path class="st5" d="M119.31,10.77l-0.39,0.73l-0.58,0.68l-0.66,0.55l-0.78,0.38l-0.82,0.24l-0.8,0.07l-0.55-0.04l0.31-0.07
	l0.82-0.31l0.69-0.39l0.31-0.07l0.66-0.35l0.51-0.42l0.35-0.22l0.38-0.31l0.44-0.35L119.31,10.77z M112.27,11.41l0.15,0.2l0.71,0.57
	l0.51,0.27v0.7l-0.08-0.04l-0.78-0.42l-0.69-0.53l-0.4-0.5L112.27,11.41z"/>
<polygon class="st6" points="119.85,10.17 119.58,11.06 119.12,11.9 118.5,12.68 117.78,13.25 116.96,13.72 116.07,13.96 
	115.14,14.07 114.22,14 113.33,13.72 112.44,13.25 111.71,12.63 111.09,11.9 111.48,11.75 111.71,11.68 112.1,12.18 112.79,12.72 
	113.56,13.14 113.64,13.18 113.64,13.56 114.3,13.49 114.72,13.41 115.27,13.45 116.07,13.38 116.88,13.14 117.65,12.76 
	118.31,12.21 118.88,11.52 119.27,10.79 "/>
<polygon class="st7" points="119.85,10.17 119.58,11.06 119.12,11.9 118.5,12.68 117.78,13.25 116.96,13.72 116.07,13.96 
	115.14,14.07 114.22,14 113.33,13.72 112.44,13.25 111.71,12.63 111.09,11.9 111.48,11.75 111.71,11.68 112.1,12.18 112.79,12.72 
	113.56,13.14 113.64,13.18 113.64,13.56 114.3,13.49 114.72,13.41 115.27,13.45 116.07,13.38 116.88,13.14 117.65,12.76 
	118.31,12.21 118.88,11.52 119.27,10.79 "/>
<polygon class="st8" points="120.27,9.63 120.27,9.71 120.12,10.6 119.84,11.48 119.37,12.32 118.8,13.06 118.07,13.68 
	117.29,14.14 116.49,14.47 115.6,14.63 114.72,14.67 113.79,14.52 112.94,14.25 112.1,13.79 111.36,13.21 110.75,12.47 
	110.55,12.18 111.09,11.9 111.71,12.63 112.44,13.24 113.33,13.7 114.21,13.98 115.14,14.05 116.06,13.94 116.95,13.7 117.77,13.24 
	118.49,12.67 119.11,11.9 119.57,11.06 119.84,10.18 "/>
<polygon class="st9" points="120.27,9.63 120.27,9.71 120.12,10.6 119.84,11.48 119.37,12.32 118.8,13.06 118.07,13.68 
	117.29,14.14 116.49,14.47 115.6,14.63 114.72,14.67 113.79,14.52 112.94,14.25 112.1,13.79 111.36,13.21 110.75,12.47 
	110.55,12.18 111.09,11.9 111.71,12.63 112.44,13.24 113.33,13.7 114.21,13.98 115.14,14.05 116.06,13.94 116.95,13.7 117.77,13.24 
	118.49,12.67 119.11,11.9 119.57,11.06 119.84,10.18 "/>
<polygon class="st10" points="120.59,9.21 120.63,9.89 120.5,10.85 120.19,11.81 119.7,12.69 119.04,13.5 118.27,14.14 
	117.45,14.64 116.52,14.99 115.55,15.18 114.58,15.21 113.61,15.1 112.64,14.79 111.75,14.29 110.94,13.65 110.28,12.91 
	110.01,12.5 110.54,12.16 110.74,12.45 111.36,13.19 112.11,13.76 112.95,14.22 113.81,14.49 114.74,14.64 115.62,14.6 
	116.52,14.44 117.32,14.11 118.11,13.65 118.84,13.04 119.42,12.3 119.88,11.46 120.17,10.59 120.32,9.71 120.32,9.63 120.5,9.36 
	"/>
<polygon class="st11" points="120.59,9.21 120.63,9.89 120.5,10.85 120.19,11.81 119.7,12.69 119.04,13.5 118.27,14.14 
	117.45,14.64 116.52,14.99 115.55,15.18 114.58,15.21 113.61,15.1 112.64,14.79 111.75,14.29 110.94,13.65 110.28,12.91 
	110.01,12.5 110.54,12.16 110.74,12.45 111.36,13.19 112.11,13.76 112.95,14.22 113.81,14.49 114.74,14.64 115.62,14.6 
	116.52,14.44 117.32,14.11 118.11,13.65 118.84,13.04 119.42,12.3 119.88,11.46 120.17,10.59 120.32,9.71 120.32,9.63 120.5,9.36 
	"/>
<polygon class="st12" points="120.82,8.73 120.9,9.04 120.93,10.08 120.78,11.12 120.44,12.17 119.89,13.13 119.19,13.99 
	118.4,14.72 117.5,15.25 116.54,15.65 115.5,15.84 114.47,15.87 113.42,15.72 112.38,15.38 111.42,14.83 110.54,14.14 109.84,13.33 
	109.53,12.86 109.8,12.67 110.03,12.51 110.3,12.93 110.96,13.68 111.77,14.32 112.65,14.83 113.61,15.14 114.58,15.25 
	115.54,15.22 116.51,15.03 117.43,14.68 118.24,14.17 119.01,13.52 119.67,12.71 120.16,11.82 120.47,10.85 120.59,9.88 
	120.55,9.19 "/>
<polygon class="st13" points="120.82,8.73 120.9,9.04 120.93,10.08 120.78,11.12 120.44,12.17 119.89,13.13 119.19,13.99 
	118.4,14.72 117.5,15.25 116.54,15.65 115.5,15.84 114.47,15.87 113.42,15.72 112.38,15.38 111.42,14.83 110.54,14.14 109.84,13.33 
	109.53,12.86 109.8,12.67 110.03,12.51 110.3,12.93 110.96,13.68 111.77,14.32 112.65,14.83 113.61,15.14 114.58,15.25 
	115.54,15.22 116.51,15.03 117.43,14.68 118.24,14.17 119.01,13.52 119.67,12.71 120.16,11.82 120.47,10.85 120.59,9.88 
	120.55,9.19 "/>
<path class="st14" d="M113.63,3.39v0.27l-1.23,0.11l-0.31,0.08l0.31-0.15l0.97-0.28L113.63,3.39z M121.05,8.22l0.07,0.35l0.11,1
	l-0.03,1.06l-0.15,1l-0.39,1l-0.5,0.93l-0.65,0.86l-0.78,0.69l-0.84,0.55l-0.93,0.42l-0.97,0.27l-1.01,0.13h-1.04l-1.01-0.2
	l-0.99-0.39l-0.94-0.49l-0.84-0.66l-0.7-0.77l-0.46-0.73l0.51-0.35l0.31,0.46l0.7,0.82l0.88,0.69l0.97,0.55l1.04,0.34l1.05,0.16
	l1.04-0.03l1.04-0.2l0.97-0.39l0.9-0.54l0.8-0.73l0.7-0.86l0.55-0.96l0.34-1.06l0.15-1.04l-0.03-1.04l-0.08-0.31l0.11-0.2
	L121.05,8.22z"/>
<path class="st15" d="M113.63,3.39v0.27l-1.23,0.11l-0.31,0.08l0.31-0.15l0.97-0.28L113.63,3.39z M121.05,8.22l0.07,0.35l0.11,1
	l-0.03,1.06l-0.15,1l-0.39,1l-0.5,0.93l-0.65,0.86l-0.78,0.69l-0.84,0.55l-0.93,0.42l-0.97,0.27l-1.01,0.13h-1.04l-1.01-0.2
	l-0.99-0.39l-0.94-0.49l-0.84-0.66l-0.7-0.77l-0.46-0.73l0.51-0.35l0.31,0.46l0.7,0.82l0.88,0.69l0.97,0.55l1.04,0.34l1.05,0.16
	l1.04-0.03l1.04-0.2l0.97-0.39l0.9-0.54l0.8-0.73l0.7-0.86l0.55-0.96l0.34-1.06l0.15-1.04l-0.03-1.04l-0.08-0.31l0.11-0.2
	L121.05,8.22z"/>
<path class="st16" d="M113.66,3.15v0.28l-0.27,0.03l-0.97,0.28l-0.31,0.15l-0.93,0.18l-0.55,0.2l0.51-0.35l1-0.42l1.05-0.31
	L113.66,3.15z M118.88,4.54l0.49,0.39l0.74,0.84l0.07,0.13l-0.11-0.15l-0.66-0.7L118.88,4.54z M121.24,7.78l0.22,0.88l0.13,1.08
	v1.08l-0.24,1.08l-0.39,1.04l-0.53,1.01l-0.7,0.88l-0.81,0.77l-0.93,0.62l-0.97,0.42l-1.04,0.31l-1.08,0.13h-1.08l-1.08-0.24
	l-1.05-0.38l-1-0.55l-0.9-0.69l-0.73-0.85l-0.55-0.77l0.43-0.35l0.07-0.03l0.46,0.73l0.7,0.77l0.84,0.66l0.94,0.49l1,0.39l1.01,0.2
	h1.04l1.01-0.13l0.97-0.27l0.93-0.42l0.84-0.55l0.79-0.69l0.65-0.86l0.51-0.92l0.39-0.99l0.15-0.99l0.03-1.05l-0.11-0.99l-0.07-0.35
	L121.24,7.78z"/>
<path class="st17" d="M113.66,3.15v0.28l-0.27,0.03l-0.97,0.28l-0.31,0.15l-0.93,0.18l-0.55,0.2l0.51-0.35l1-0.42l1.05-0.31
	L113.66,3.15z M118.88,4.54l0.49,0.39l0.74,0.84l0.07,0.13l-0.11-0.15l-0.66-0.7L118.88,4.54z M121.24,7.78l0.22,0.88l0.13,1.08
	v1.08l-0.24,1.08l-0.39,1.04l-0.53,1.01l-0.7,0.88l-0.81,0.77l-0.93,0.62l-0.97,0.42l-1.04,0.31l-1.08,0.13h-1.08l-1.08-0.24
	l-1.05-0.38l-1-0.55l-0.9-0.69l-0.73-0.85l-0.55-0.77l0.43-0.35l0.07-0.03l0.46,0.73l0.7,0.77l0.84,0.66l0.94,0.49l1,0.39l1.01,0.2
	h1.04l1.01-0.13l0.97-0.27l0.93-0.42l0.84-0.55l0.79-0.69l0.65-0.86l0.51-0.92l0.39-0.99l0.15-0.99l0.03-1.05l-0.11-0.99l-0.07-0.35
	L121.24,7.78z"/>
<path class="st18" d="M113.64,2.79V3.1l-0.46,0.04l-1.05,0.31l-0.99,0.42l-0.5,0.35l-0.73,0.27L109.3,4.8l0.55-0.46l0.97-0.65
	l1.04-0.46l1.12-0.35L113.64,2.79z M117.84,3.61L118.57,4l0.97,0.73l0.77,0.89l0.66,0.97l0.46,1.04l0.35,1.12l0.11,1.11l-0.03,1.17
	l-0.2,1.15l-0.43,1.08l-0.57,1.08l-0.73,0.97l-0.9,0.77l-0.95,0.66l-1.05,0.46l-1.12,0.31l-1.12,0.15l-1.15-0.04l-1.16-0.2
	l-1.08-0.42l-1.08-0.58l-0.97-0.74l-0.77-0.89l-0.55-0.82l0.08-0.07l0.38-0.35l0.55,0.77l0.73,0.86l0.9,0.69l0.99,0.55l1.05,0.38
	l1.08,0.24h1.08l1.08-0.13l1.04-0.31l0.97-0.42l0.92-0.62l0.81-0.77l0.7-0.89l0.53-1.01l0.39-1.04l0.24-1.08V9.7l-0.13-1.08
	l-0.22-0.89l0.03-0.11l-0.27-0.62l-0.42-0.66l-0.39-0.49l-0.07-0.13l-0.74-0.84l-0.49-0.39l-0.15-0.15l-0.74-0.65L117.84,3.61z"/>
<path class="st19" d="M113.64,2.79V3.1l-0.46,0.04l-1.05,0.31l-0.99,0.42l-0.5,0.35l-0.73,0.27L109.3,4.8l0.55-0.46l0.97-0.65
	l1.04-0.46l1.12-0.35L113.64,2.79z M117.84,3.61L118.57,4l0.97,0.73l0.77,0.89l0.66,0.97l0.46,1.04l0.35,1.12l0.11,1.11l-0.03,1.17
	l-0.2,1.15l-0.43,1.08l-0.57,1.08l-0.73,0.97l-0.9,0.77l-0.95,0.66l-1.05,0.46l-1.12,0.31l-1.12,0.15l-1.15-0.04l-1.16-0.2
	l-1.08-0.42l-1.08-0.58l-0.97-0.74l-0.77-0.89l-0.55-0.82l0.08-0.07l0.38-0.35l0.55,0.77l0.73,0.86l0.9,0.69l0.99,0.55l1.05,0.38
	l1.08,0.24h1.08l1.08-0.13l1.04-0.31l0.97-0.42l0.92-0.62l0.81-0.77l0.7-0.89l0.53-1.01l0.39-1.04l0.24-1.08V9.7l-0.13-1.08
	l-0.22-0.89l0.03-0.11l-0.27-0.62l-0.42-0.66l-0.39-0.49l-0.07-0.13l-0.74-0.84l-0.49-0.39l-0.15-0.15l-0.74-0.65L117.84,3.61z"/>
<path class="st20" d="M113.63,2.55v0.27l-0.66,0.09l-1.12,0.35l-1.04,0.46l-0.97,0.65l-0.55,0.46l-0.62,0.35l-0.58,0.39l0.42-0.55
	l0.93-0.84l1.05-0.7l1.08-0.51l1.19-0.31L113.63,2.55z M116.91,2.97l0.66,0.24l1.12,0.62l0.93,0.69l0.81,0.86l0.65,0.89l0.51,1
	l0.39,1.05l0.2,1.08l0.07,1.08l-0.07,1.11l-0.28,1.08l-0.38,1.08l-0.59,1.01l-0.8,1l-0.94,0.86l-1,0.69l-1.12,0.51l-1.17,0.31
	l-1.23,0.15h-1.19l-1.21-0.24l-1.19-0.42l-1.12-0.62l-1-0.82l-0.86-0.93l-0.55-0.77l0.46-0.46l0.55,0.82l0.77,0.88l0.97,0.74
	l1.08,0.58l1.08,0.42l1.17,0.2l1.15,0.04l1.12-0.15l1.12-0.31l1.05-0.46l0.96-0.66l0.9-0.77l0.73-0.97l0.58-1.08l0.44-1.08l0.2-1.15
	l0.03-1.17l-0.11-1.11l-0.35-1.12l-0.46-1.04l-0.66-0.97l-0.77-0.88l-0.97-0.73l-0.73-0.39l-0.7-0.51L116.91,2.97z"/>
<path class="st21" d="M113.63,2.55v0.27l-0.66,0.09l-1.12,0.35l-1.04,0.46l-0.97,0.65l-0.55,0.46l-0.62,0.35l-0.58,0.39l0.42-0.55
	l0.93-0.84l1.05-0.7l1.08-0.51l1.19-0.31L113.63,2.55z M116.91,2.97l0.66,0.24l1.12,0.62l0.93,0.69l0.81,0.86l0.65,0.89l0.51,1
	l0.39,1.05l0.2,1.08l0.07,1.08l-0.07,1.11l-0.28,1.08l-0.38,1.08l-0.59,1.01l-0.8,1l-0.94,0.86l-1,0.69l-1.12,0.51l-1.17,0.31
	l-1.23,0.15h-1.19l-1.21-0.24l-1.19-0.42l-1.12-0.62l-1-0.82l-0.86-0.93l-0.55-0.77l0.46-0.46l0.55,0.82l0.77,0.88l0.97,0.74
	l1.08,0.58l1.08,0.42l1.17,0.2l1.15,0.04l1.12-0.15l1.12-0.31l1.05-0.46l0.96-0.66l0.9-0.77l0.73-0.97l0.58-1.08l0.44-1.08l0.2-1.15
	l0.03-1.17l-0.11-1.11l-0.35-1.12l-0.46-1.04l-0.66-0.97l-0.77-0.88l-0.97-0.73l-0.73-0.39l-0.7-0.51L116.91,2.97z"/>
<path class="st22" d="M113.62,2.25v0.31l-0.86,0.11l-1.19,0.31l-1.08,0.51l-1.05,0.7l-0.93,0.84l-0.42,0.55l-0.62,0.42l-0.46,0.38
	l0.22-0.42l0.77-0.97l0.86-0.84l0.97-0.7l1.04-0.53l1.12-0.39l1.17-0.22L113.62,2.25z M116.13,2.45l0.5,0.11l1.12,0.42l1.08,0.62
	l0.97,0.77l0.84,0.86l0.7,0.97l0.51,1.04l0.38,1.11l0.24,1.12l0.07,1.16l-0.07,1.19l-0.28,1.15l-0.42,1.12l-0.62,1.08l-0.77,0.97
	l-0.86,0.84l-0.97,0.7l-1.04,0.49l-1.08,0.39l-1.16,0.22l-1.15,0.08l-1.17-0.08l-1.16-0.27l-1.12-0.42l-1.08-0.62l-0.97-0.77
	l-0.84-0.86l-0.62-0.88l0.22-0.31l0.16-0.2l0.55,0.77l0.86,0.93l1,0.81l1.12,0.62l1.19,0.42l1.21,0.24h1.19l1.24-0.15l1.17-0.31
	l1.12-0.51l1-0.69l0.94-0.86l0.8-1l0.59-1.01l0.38-1.08l0.28-1.08l0.07-1.11l-0.07-1.08l-0.2-1.08l-0.39-1.05l-0.51-1l-0.65-0.88
	l-0.82-0.85l-0.93-0.69l-1.12-0.62l-0.66-0.24l-0.55-0.38L116.13,2.45z"/>
<path class="st23" d="M113.62,2.25v0.31l-0.86,0.11l-1.19,0.31l-1.08,0.51l-1.05,0.7l-0.93,0.84l-0.42,0.55l-0.62,0.42l-0.46,0.38
	l0.22-0.42l0.77-0.97l0.86-0.84l0.97-0.7l1.04-0.53l1.12-0.39l1.17-0.22L113.62,2.25z M116.13,2.45l0.5,0.11l1.12,0.42l1.08,0.62
	l0.97,0.77l0.84,0.86l0.7,0.97l0.51,1.04l0.38,1.11l0.24,1.12l0.07,1.16l-0.07,1.19l-0.28,1.15l-0.42,1.12l-0.62,1.08l-0.77,0.97
	l-0.86,0.84l-0.97,0.7l-1.04,0.49l-1.08,0.39l-1.16,0.22l-1.15,0.08l-1.17-0.08l-1.16-0.27l-1.12-0.42l-1.08-0.62l-0.97-0.77
	l-0.84-0.86l-0.62-0.88l0.22-0.31l0.16-0.2l0.55,0.77l0.86,0.93l1,0.81l1.12,0.62l1.19,0.42l1.21,0.24h1.19l1.24-0.15l1.17-0.31
	l1.12-0.51l1-0.69l0.94-0.86l0.8-1l0.59-1.01l0.38-1.08l0.28-1.08l0.07-1.11l-0.07-1.08l-0.2-1.08l-0.39-1.05l-0.51-1l-0.65-0.88
	l-0.82-0.85l-0.93-0.69l-1.12-0.62l-0.66-0.24l-0.55-0.38L116.13,2.45z"/>
<path class="st24" d="M113.64,1.95v0.27l-0.46,0.04l-1.16,0.22l-1.12,0.39l-1.04,0.53l-0.97,0.7l-0.85,0.84l-0.77,0.97l-0.22,0.42
	l-0.66,0.55l-0.27,0.27l0.07-0.2l0.62-1.11l0.81-1.05l0.93-0.89l1.01-0.69l1.08-0.59l1.16-0.42l1.19-0.22L113.64,1.95z M115.42,2.02
	h0.03l1.21,0.28l1.19,0.46l1.12,0.62l1.04,0.8l0.9,0.93l0.69,1.01l0.59,1.08l0.42,1.15l0.22,1.19l0.08,1.23l-0.11,1.24l-0.28,1.19
	l-0.46,1.21l-0.62,1.11l-0.81,1.05l-0.93,0.88l-1,0.69l-1.08,0.58l-1.16,0.43l-1.19,0.22l-1.25,0.08l-1.23-0.08l-1.19-0.27
	l-1.21-0.46L109.28,18l-1.05-0.8l-0.88-0.9l-0.59-0.8l0.04-0.08l0.39-0.46l0.62,0.89l0.84,0.86l0.97,0.77l1.08,0.62l1.12,0.42
	l1.16,0.27l1.16,0.08l1.15-0.08l1.16-0.23l1.08-0.39l1.04-0.49l0.97-0.7l0.85-0.84l0.77-0.97l0.62-1.08l0.42-1.12l0.28-1.15
	l0.07-1.19l-0.07-1.17l-0.24-1.12l-0.38-1.11l-0.51-1.04l-0.7-0.97l-0.84-0.86l-0.97-0.77l-1.08-0.62l-1.12-0.42l-0.51-0.11
	L115.6,2.1L115.42,2.02z"/>
<path class="st25" d="M113.64,1.95v0.27l-0.46,0.04l-1.16,0.22l-1.12,0.39l-1.04,0.53l-0.97,0.7l-0.85,0.84l-0.77,0.97l-0.22,0.42
	l-0.66,0.55l-0.27,0.27l0.07-0.2l0.62-1.11l0.81-1.05l0.93-0.89l1.01-0.69l1.08-0.59l1.16-0.42l1.19-0.22L113.64,1.95z M115.42,2.02
	h0.03l1.21,0.28l1.19,0.46l1.12,0.62l1.04,0.8l0.9,0.93l0.69,1.01l0.59,1.08l0.42,1.15l0.22,1.19l0.08,1.23l-0.11,1.24l-0.28,1.19
	l-0.46,1.21l-0.62,1.11l-0.81,1.05l-0.93,0.88l-1,0.69l-1.08,0.58l-1.16,0.43l-1.19,0.22l-1.25,0.08l-1.23-0.08l-1.19-0.27
	l-1.21-0.46L109.28,18l-1.05-0.8l-0.88-0.9l-0.59-0.8l0.04-0.08l0.39-0.46l0.62,0.89l0.84,0.86l0.97,0.77l1.08,0.62l1.12,0.42
	l1.16,0.27l1.16,0.08l1.15-0.08l1.16-0.23l1.08-0.39l1.04-0.49l0.97-0.7l0.85-0.84l0.77-0.97l0.62-1.08l0.42-1.12l0.28-1.15
	l0.07-1.19l-0.07-1.17l-0.24-1.12l-0.38-1.11l-0.51-1.04l-0.7-0.97l-0.84-0.86l-0.97-0.77l-1.08-0.62l-1.12-0.42l-0.51-0.11
	L115.6,2.1L115.42,2.02z"/>
<path class="st26" d="M113.65,1.71v0.27l-0.66,0.04l-1.19,0.23l-1.16,0.42l-1.08,0.59l-1.01,0.69l-0.92,0.89l-0.81,1.05l-0.62,1.11
	l-0.07,0.2l-0.74,0.77l-0.18,0.23l0.49-1.19l0.66-1.19l0.85-1.08l0.97-0.93l1.04-0.77l1.16-0.58l1.19-0.42l1.27-0.28L113.65,1.71z
	 M114.57,1.71l0.85,0.07l1.26,0.27l1.24,0.51l1.19,0.66l1.08,0.84l0.92,0.97l0.77,1.04l0.59,1.17l0.42,1.19l0.22,1.28l0.08,1.26
	l-0.08,1.32l-0.31,1.26l-0.46,1.24L121.71,16l-0.85,1.08l-0.97,0.93l-1.04,0.76l-1.16,0.59l-1.23,0.42l-1.23,0.27l-1.32,0.08
	L112.64,20l-1.27-0.27l-1.23-0.51l-1.19-0.65l-1.08-0.86l-0.92-0.96l-0.48-0.66l0.31-0.58l0.59,0.8l0.88,0.9l1.05,0.8l1.11,0.66
	l1.2,0.46l1.19,0.27l1.23,0.08l1.25-0.08l1.19-0.22l1.16-0.44l1.08-0.58l0.99-0.69l0.92-0.89l0.81-1.05l0.62-1.11l0.46-1.21
	l0.28-1.19l0.11-1.24l-0.08-1.24l-0.22-1.19l-0.42-1.15l-0.59-1.08l-0.68-1.01L120,4.21l-1.04-0.8l-1.12-0.62l-1.19-0.46l-1.2-0.28
	h-0.03l-0.55-0.22L114.57,1.71z"/>
<path class="st27" d="M113.65,1.71v0.27l-0.66,0.04l-1.19,0.23l-1.16,0.42l-1.08,0.59l-1.01,0.69l-0.92,0.89l-0.81,1.05l-0.62,1.11
	l-0.07,0.2l-0.74,0.77l-0.18,0.23l0.49-1.19l0.66-1.19l0.85-1.08l0.97-0.93l1.04-0.77l1.16-0.58l1.19-0.42l1.27-0.28L113.65,1.71z
	 M114.57,1.71l0.85,0.07l1.26,0.27l1.24,0.51l1.19,0.66l1.08,0.84l0.92,0.97l0.77,1.04l0.59,1.17l0.42,1.19l0.22,1.28l0.08,1.26
	l-0.08,1.32l-0.31,1.26l-0.46,1.24L121.71,16l-0.85,1.08l-0.97,0.93l-1.04,0.76l-1.16,0.59l-1.23,0.42l-1.23,0.27l-1.32,0.08
	L112.64,20l-1.27-0.27l-1.23-0.51l-1.19-0.65l-1.08-0.86l-0.92-0.96l-0.48-0.66l0.31-0.58l0.59,0.8l0.88,0.9l1.05,0.8l1.11,0.66
	l1.2,0.46l1.19,0.27l1.23,0.08l1.25-0.08l1.19-0.22l1.16-0.44l1.08-0.58l0.99-0.69l0.92-0.89l0.81-1.05l0.62-1.11l0.46-1.21
	l0.28-1.19l0.11-1.24l-0.08-1.24l-0.22-1.19l-0.42-1.15l-0.59-1.08l-0.68-1.01L120,4.21l-1.04-0.8l-1.12-0.62l-1.19-0.46l-1.2-0.28
	h-0.03l-0.55-0.22L114.57,1.71z"/>
<polygon class="st28" points="113.2,1.41 114.44,1.41 115.68,1.56 116.91,1.87 118.08,2.34 119.23,3 120.28,3.81 121.17,4.7 
	121.94,5.71 122.56,6.77 123.06,7.94 123.37,9.13 123.53,10.37 123.57,11.6 123.42,12.84 123.11,14.07 122.6,15.22 121.94,16.39 
	121.13,17.43 120.24,18.31 119.23,19.08 118.15,19.7 116.98,20.17 115.83,20.52 114.6,20.67 113.36,20.67 112.08,20.52 
	110.87,20.21 109.68,19.74 108.51,19.08 107.47,18.27 106.58,17.39 106.11,16.77 106.31,16.28 106.42,16.08 106.9,16.74 
	107.83,17.69 108.91,18.55 110.1,19.2 111.34,19.7 112.61,19.97 113.89,20.09 115.21,20.01 116.45,19.74 117.68,19.32 118.85,18.73 
	119.89,17.98 120.86,17.05 121.72,15.97 122.36,14.76 122.83,13.53 123.13,12.26 123.22,10.94 123.13,9.68 122.91,8.4 122.49,7.21 
	121.9,6.04 121.13,5 120.2,4.04 119.12,3.19 117.92,2.53 116.67,2.03 115.41,1.76 114.55,1.69 114.2,1.56 113.63,1.49 113.63,1.69 
	112.81,1.72 111.53,2 110.34,2.42 109.17,3 108.13,3.77 107.17,4.7 106.31,5.78 105.65,6.97 105.16,8.16 104.45,9.13 104.37,9.29 
	104.37,9.24 104.68,8.01 105.16,6.86 105.8,5.71 106.62,4.65 107.52,3.77 108.56,3 109.64,2.38 110.76,1.92 111.95,1.56 "/>
<polygon class="st29" points="113.2,1.41 114.44,1.41 115.68,1.56 116.91,1.87 118.08,2.34 119.23,3 120.28,3.81 121.17,4.7 
	121.94,5.71 122.56,6.77 123.06,7.94 123.37,9.13 123.53,10.37 123.57,11.6 123.42,12.84 123.11,14.07 122.6,15.22 121.94,16.39 
	121.13,17.43 120.24,18.31 119.23,19.08 118.15,19.7 116.98,20.17 115.83,20.52 114.6,20.67 113.36,20.67 112.08,20.52 
	110.87,20.21 109.68,19.74 108.51,19.08 107.47,18.27 106.58,17.39 106.11,16.77 106.31,16.28 106.42,16.08 106.9,16.74 
	107.83,17.69 108.91,18.55 110.1,19.2 111.34,19.7 112.61,19.97 113.89,20.09 115.21,20.01 116.45,19.74 117.68,19.32 118.85,18.73 
	119.89,17.98 120.86,17.05 121.72,15.97 122.36,14.76 122.83,13.53 123.13,12.26 123.22,10.94 123.13,9.68 122.91,8.4 122.49,7.21 
	121.9,6.04 121.13,5 120.2,4.04 119.12,3.19 117.92,2.53 116.67,2.03 115.41,1.76 114.55,1.69 114.2,1.56 113.63,1.49 113.63,1.69 
	112.81,1.72 111.53,2 110.34,2.42 109.17,3 108.13,3.77 107.17,4.7 106.31,5.78 105.65,6.97 105.16,8.16 104.45,9.13 104.37,9.29 
	104.37,9.24 104.68,8.01 105.16,6.86 105.8,5.71 106.62,4.65 107.52,3.77 108.56,3 109.64,2.38 110.76,1.92 111.95,1.56 "/>
<polygon class="st30" points="113.05,1.17 114.36,1.17 115.64,1.33 116.96,1.63 118.19,2.14 119.38,2.83 120.46,3.69 121.43,4.61 
	122.2,5.65 122.86,6.8 123.36,8.01 123.72,9.25 123.87,10.51 123.87,11.83 123.72,13.1 123.41,14.38 122.97,15.42 122.82,15.7 
	122.09,16.65 121.98,16.85 120.97,17.89 119.85,18.82 118.7,19.63 117.46,20.29 116.21,20.75 114.98,21.02 113.75,21.13 
	113.75,21.33 113.21,21.33 111.94,21.13 110.62,20.82 109.39,20.32 108.18,19.63 107.1,18.77 106.6,18.31 106.29,17.82 106.02,17.2 
	106.13,16.81 106.6,17.42 107.49,18.31 108.53,19.12 109.7,19.79 110.89,20.25 112.09,20.56 113.37,20.71 114.6,20.71 115.84,20.56 
	116.99,20.21 118.15,19.74 119.23,19.12 120.24,18.35 121.12,17.47 121.93,16.43 122.59,15.26 123.1,14.11 123.41,12.87 
	123.56,11.64 123.52,10.4 123.36,9.16 123.06,7.97 122.55,6.8 121.93,5.74 121.16,4.72 120.28,3.84 119.23,3.02 118.08,2.36 
	116.92,1.9 115.68,1.59 114.45,1.44 113.21,1.44 111.97,1.59 110.78,1.94 109.65,2.41 108.57,3.02 107.54,3.8 106.64,4.68 
	105.83,5.74 105.18,6.89 104.7,8.04 104.4,9.28 104.4,9.32 103.75,10.44 103.71,10.48 103.86,9.36 104.17,8.08 104.68,6.85 
	105.36,5.65 106.22,4.57 107.14,3.6 108.18,2.83 109.35,2.18 110.54,1.68 111.78,1.33 "/>
<polygon class="st31" points="113.05,1.17 114.36,1.17 115.64,1.33 116.96,1.63 118.19,2.14 119.38,2.83 120.46,3.69 121.43,4.61 
	122.2,5.65 122.86,6.8 123.36,8.01 123.72,9.25 123.87,10.51 123.87,11.83 123.72,13.1 123.41,14.38 122.97,15.42 122.82,15.7 
	122.09,16.65 121.98,16.85 120.97,17.89 119.85,18.82 118.7,19.63 117.46,20.29 116.21,20.75 114.98,21.02 113.75,21.13 
	113.75,21.33 113.21,21.33 111.94,21.13 110.62,20.82 109.39,20.32 108.18,19.63 107.1,18.77 106.6,18.31 106.29,17.82 106.02,17.2 
	106.13,16.81 106.6,17.42 107.49,18.31 108.53,19.12 109.7,19.79 110.89,20.25 112.09,20.56 113.37,20.71 114.6,20.71 115.84,20.56 
	116.99,20.21 118.15,19.74 119.23,19.12 120.24,18.35 121.12,17.47 121.93,16.43 122.59,15.26 123.1,14.11 123.41,12.87 
	123.56,11.64 123.52,10.4 123.36,9.16 123.06,7.97 122.55,6.8 121.93,5.74 121.16,4.72 120.28,3.84 119.23,3.02 118.08,2.36 
	116.92,1.9 115.68,1.59 114.45,1.44 113.21,1.44 111.97,1.59 110.78,1.94 109.65,2.41 108.57,3.02 107.54,3.8 106.64,4.68 
	105.83,5.74 105.18,6.89 104.7,8.04 104.4,9.28 104.4,9.32 103.75,10.44 103.71,10.48 103.86,9.36 104.17,8.08 104.68,6.85 
	105.36,5.65 106.22,4.57 107.14,3.6 108.18,2.83 109.35,2.18 110.54,1.68 111.78,1.33 "/>
<path class="st32" d="M114.3,0.87l1.35,0.2l1.32,0.35l1.3,0.49l1.25,0.74l1.15,0.84l0.97,1.01l0.86,1.08l0.64,1.19l0.55,1.23
	l0.35,1.3l0.15,1.32l0.04,1.35l-0.2,1.23l-0.46,1.19l-0.59,1l0.43-1.04l0.31-1.28l0.15-1.26V10.5l-0.15-1.26l-0.35-1.23l-0.5-1.21
	l-0.66-1.15l-0.77-1.04l-0.97-0.92l-1.08-0.86l-1.19-0.69l-1.23-0.51l-1.32-0.31l-1.28-0.15h-1.32l-1.26,0.15l-1.25,0.35l-1.19,0.51
	l-1.16,0.64l-1.04,0.77l-0.93,0.97l-0.85,1.08l-0.69,1.19l-0.51,1.23l-0.31,1.28l-0.15,1.12l-0.55,1.3v-1l0.15-1.36l0.35-1.3
	l0.5-1.32l0.73-1.22l0.86-1.16l0.99-0.97l1.12-0.84l1.16-0.66l1.28-0.53l1.28-0.35l1.35-0.15L114.3,0.87z M106.6,18.28l0.5,0.46
	l1.08,0.86l1.21,0.69l1.23,0.5l1.32,0.31l1.28,0.2h0.53v0.58h-0.66l-1.35-0.15l-1.36-0.35l-1.3-0.49h-0.04l-0.42-0.39l-0.7-0.66
	l-0.66-0.69l-0.53-0.7L106.6,18.28z"/>
<path class="st33" d="M114.3,0.87l1.35,0.2l1.32,0.35l1.3,0.49l1.25,0.74l1.15,0.84l0.97,1.01l0.86,1.08l0.64,1.19l0.55,1.23
	l0.35,1.3l0.15,1.32l0.04,1.35l-0.2,1.23l-0.46,1.19l-0.59,1l0.43-1.04l0.31-1.28l0.15-1.26V10.5l-0.15-1.26l-0.35-1.23l-0.5-1.21
	l-0.66-1.15l-0.77-1.04l-0.97-0.92l-1.08-0.86l-1.19-0.69l-1.23-0.51l-1.32-0.31l-1.28-0.15h-1.32l-1.26,0.15l-1.25,0.35l-1.19,0.51
	l-1.16,0.64l-1.04,0.77l-0.93,0.97l-0.85,1.08l-0.69,1.19l-0.51,1.23l-0.31,1.28l-0.15,1.12l-0.55,1.3v-1l0.15-1.36l0.35-1.3
	l0.5-1.32l0.73-1.22l0.86-1.16l0.99-0.97l1.12-0.84l1.16-0.66l1.28-0.53l1.28-0.35l1.35-0.15L114.3,0.87z M106.6,18.28l0.5,0.46
	l1.08,0.86l1.21,0.69l1.23,0.5l1.32,0.31l1.28,0.2h0.53v0.58h-0.66l-1.35-0.15l-1.36-0.35l-1.3-0.49h-0.04l-0.42-0.39l-0.7-0.66
	l-0.66-0.69l-0.53-0.7L106.6,18.28z"/>
<path class="st34" d="M114.17,0.57l1.43,0.2l1.39,0.34l1.36,0.55l1.28,0.73l1.19,0.93l1.01,1.01l0.88,1.15l0.7,1.23l0.53,1.3
	l0.39,1.36l0.2,1.35l-0.08,0.88l-0.35,1.43l-0.07,0.15l0.2-1.24l-0.04-1.35l-0.15-1.32l-0.35-1.3l-0.55-1.23l-0.64-1.19l-0.86-1.08
	l-0.97-1.01l-1.15-0.84l-1.25-0.74l-1.3-0.49l-1.32-0.35l-1.35-0.2l-1.36,0.04l-1.35,0.15l-1.28,0.35l-1.28,0.53l-1.16,0.66
	l-1.12,0.84l-1,0.97l-0.86,1.16l-0.73,1.22l-0.51,1.32l-0.35,1.3l-0.15,1.36v1l-0.34,1.43l-0.04,0.31l-0.15-1.21v-1.38l0.15-1.39
	l0.38-1.39l0.24-0.62l0.58-1.16l0.85-1.3l0.99-1.16l1.09-1.04l0.07-0.07l0.86-0.59l0.88-0.49l1.32-0.55l1.35-0.35l1.39-0.18
	L114.17,0.57z M109.04,20.86h0.04l1.3,0.49l1.36,0.35l1.35,0.15h0.66v0.58l-0.81,0.04l-1.39-0.15l-0.81-0.22l-0.53-0.35l-0.81-0.62
	L109.04,20.86z"/>
<path class="st35" d="M114.17,0.57l1.43,0.2l1.39,0.34l1.36,0.55l1.28,0.73l1.19,0.93l1.01,1.01l0.88,1.15l0.7,1.23l0.53,1.3
	l0.39,1.36l0.2,1.35l-0.08,0.88l-0.35,1.43l-0.07,0.15l0.2-1.24l-0.04-1.35l-0.15-1.32l-0.35-1.3l-0.55-1.23l-0.64-1.19l-0.86-1.08
	l-0.97-1.01l-1.15-0.84l-1.25-0.74l-1.3-0.49l-1.32-0.35l-1.35-0.2l-1.36,0.04l-1.35,0.15l-1.28,0.35l-1.28,0.53l-1.16,0.66
	l-1.12,0.84l-1,0.97l-0.86,1.16l-0.73,1.22l-0.51,1.32l-0.35,1.3l-0.15,1.36v1l-0.34,1.43l-0.04,0.31l-0.15-1.21v-1.38l0.15-1.39
	l0.38-1.39l0.24-0.62l0.58-1.16l0.85-1.3l0.99-1.16l1.09-1.04l0.07-0.07l0.86-0.59l0.88-0.49l1.32-0.55l1.35-0.35l1.39-0.18
	L114.17,0.57z M109.04,20.86h0.04l1.3,0.49l1.36,0.35l1.35,0.15h0.66v0.58l-0.81,0.04l-1.39-0.15l-0.81-0.22l-0.53-0.35l-0.81-0.62
	L109.04,20.86z"/>
<path class="st36" d="M113.22,0.33l1.35,0.04l1.35,0.23l1.32,0.35l1.32,0.53l1.24,0.73l1.24,0.97l1.08,1.08L123,5.43l0.74,1.31
	l0.53,1.35l0.15,0.58l0.04,0.15l0.11,1.32l-0.03,0.62l-0.2-1.35l-0.39-1.36l-0.53-1.3l-0.7-1.24l-0.89-1.15l-1.01-1.01l-1.19-0.93
	l-1.28-0.73L117,1.13l-1.39-0.34l-1.43-0.2l-1.39,0.04l-1.39,0.18l-1.35,0.35l-1.32,0.55l-0.89,0.49l0.38-0.27l1.36-0.77l1.39-0.53
	l0.89-0.2L113.22,0.33z M106.98,2.8l-0.07,0.07L106.98,2.8z M103.38,7.55l-0.24,0.62l-0.38,1.39l-0.16,1.39v1.38l0.16,1.21
	l-0.08,1.19l0.08,0.77l0.04,0.27l-0.15-0.38l-0.09-0.31l-0.15-1.24l-0.09-1.28l0.13-1.66l0.31-1.59l0.51-1.5L103.38,7.55z
	 M110.73,22.13l0.81,0.23l1.39,0.15l0.82-0.04v0.62l-0.93,0.04l-0.42-0.04l-0.62-0.31L111,22.32L110.73,22.13z"/>
<path class="st37" d="M113.22,0.33l1.35,0.04l1.35,0.23l1.32,0.35l1.32,0.53l1.24,0.73l1.24,0.97l1.08,1.08L123,5.43l0.74,1.31
	l0.53,1.35l0.15,0.58l0.04,0.15l0.11,1.32l-0.03,0.62l-0.2-1.35l-0.39-1.36l-0.53-1.3l-0.7-1.24l-0.89-1.15l-1.01-1.01l-1.19-0.93
	l-1.28-0.73L117,1.13l-1.39-0.34l-1.43-0.2l-1.39,0.04l-1.39,0.18l-1.35,0.35l-1.32,0.55l-0.89,0.49l0.38-0.27l1.36-0.77l1.39-0.53
	l0.89-0.2L113.22,0.33z M106.98,2.8l-0.07,0.07L106.98,2.8z M103.38,7.55l-0.24,0.62l-0.38,1.39l-0.16,1.39v1.38l0.16,1.21
	l-0.08,1.19l0.08,0.77l0.04,0.27l-0.15-0.38l-0.09-0.31l-0.15-1.24l-0.09-1.28l0.13-1.66l0.31-1.59l0.51-1.5L103.38,7.55z
	 M110.73,22.13l0.81,0.23l1.39,0.15l0.82-0.04v0.62l-0.93,0.04l-0.42-0.04l-0.62-0.31L111,22.32L110.73,22.13z"/>
<path class="st36" d="M114.26,0.03l1.08,0.2l1.08,0.29l1.12,0.43l1.08,0.49l1.05,0.59l0.99,0.69l0.92,0.77l0.81,0.88l0.73,0.97
	l0.63,1.08l0.42,1.12l0.22,1.11l-0.15-0.57l-0.53-1.35l-0.74-1.3l-0.88-1.17l-1.08-1.08l-1.23-0.97l-1.23-0.73l-1.32-0.53
	l-1.32-0.35l-1.35-0.22l-1.34-0.04l-1.36,0.11l-0.88,0.2l0.07-0.04l1.58-0.38L114.26,0.03z M102.69,15.38l0.15,0.38l0.07,0.51
	L102.69,15.38z M112.41,23.08l0.42,0.04l0.92-0.04v0.35l-0.57-0.07l-0.66-0.24L112.41,23.08z"/>
<path class="st37" d="M114.26,0.03l1.08,0.2l1.08,0.29l1.12,0.43l1.08,0.49l1.05,0.59l0.99,0.69l0.92,0.77l0.81,0.88l0.73,0.97
	l0.63,1.08l0.42,1.12l0.22,1.11l-0.15-0.57l-0.53-1.35l-0.74-1.3l-0.88-1.17l-1.08-1.08l-1.23-0.97l-1.23-0.73l-1.32-0.53
	l-1.32-0.35l-1.35-0.22l-1.34-0.04l-1.36,0.11l-0.88,0.2l0.07-0.04l1.58-0.38L114.26,0.03z M102.69,15.38l0.15,0.38l0.07,0.51
	L102.69,15.38z M112.41,23.08l0.42,0.04l0.92-0.04v0.35l-0.57-0.07l-0.66-0.24L112.41,23.08z"/>
<polygon class="st38" points="113.67,13.53 114.15,13.47 113.77,13.26 113.67,13.23 "/>
<polygon class="st39" points="113.67,13.23 113.77,13.26 114.15,13.47 113.67,13.53 "/>
<polygon class="st40" points="113.67,13.21 113.78,13.24 114.18,13.47 114.31,13.47 114.93,13.32 114.71,13.09 114.03,12.68 
	113.67,12.57 "/>
<polygon class="st41" points="113.67,12.57 114.04,12.68 114.71,13.09 114.93,13.32 114.31,13.47 114.18,13.47 113.78,13.24 
	113.67,13.21 "/>
<polygon class="st42" points="113.67,11.91 114.34,12.15 115.1,12.59 115.59,13.05 115.03,13.29 114.94,13.29 114.73,13.05 
	114.04,12.64 113.67,12.52 "/>
<polygon class="st43" points="113.67,11.91 114.34,12.15 115.1,12.59 115.59,13.05 115.03,13.29 114.94,13.29 114.73,13.05 
	114.04,12.64 113.67,12.52 "/>
<path class="st44" d="M112.27,11.25h0.74l-0.74,0.18l-0.8,0.3l-0.86,0.39l-0.86,0.52l-0.34,0.23l0.62-0.6l0.69-0.5l0.75-0.34
	L112.27,11.25z M113.63,11.32l0.31,0.04l0.82,0.3l0.73,0.45l0.62,0.56l0.08,0.11l-0.35,0.19l-0.24,0.07l-0.51-0.45l-0.77-0.44
	l-0.69-0.23V11.32z"/>
<path class="st45" d="M112.27,11.25h0.74l-0.74,0.18l-0.8,0.3l-0.86,0.39l-0.86,0.52l-0.34,0.23l0.62-0.6l0.69-0.5l0.75-0.34
	L112.27,11.25z M113.63,11.32l0.31,0.04l0.82,0.3l0.73,0.45l0.62,0.56l0.08,0.11l-0.35,0.19l-0.24,0.07l-0.51-0.45l-0.77-0.44
	l-0.69-0.23V11.32z"/>
<polygon class="st46" points="112.36,10.65 113.29,10.65 114.18,10.78 115.08,11.11 115.9,11.62 116.59,12.28 116.79,12.54 
	116.68,12.59 116.21,12.81 116.13,12.7 115.51,12.12 114.77,11.66 113.96,11.35 113.65,11.31 113.65,11.15 113.03,11.24 
	112.28,11.24 111.48,11.42 110.73,11.77 110.04,12.28 109.42,12.9 108.91,13.23 108.63,13.47 108.71,13.27 109.22,12.46 
	109.88,11.77 110.66,11.24 111.48,10.89 "/>
<polygon class="st47" points="112.36,10.65 113.29,10.65 114.18,10.78 115.08,11.11 115.9,11.62 116.59,12.28 116.79,12.54 
	116.68,12.59 116.21,12.81 116.13,12.7 115.51,12.12 114.77,11.66 113.96,11.35 113.65,11.31 113.65,11.15 113.03,11.24 
	112.28,11.24 111.48,11.42 110.73,11.77 110.04,12.28 109.42,12.9 108.91,13.23 108.63,13.47 108.71,13.27 109.22,12.46 
	109.88,11.77 110.66,11.24 111.48,10.89 "/>
<polygon class="st48" points="112.89,10.05 113.78,10.09 114.66,10.29 115.48,10.63 116.29,11.12 116.99,11.73 117.33,12.23 
	116.8,12.53 116.6,12.27 115.91,11.62 115.1,11.12 114.2,10.79 113.31,10.66 112.39,10.66 111.5,10.9 110.69,11.24 109.92,11.77 
	109.26,12.45 108.75,13.26 108.67,13.45 108.13,13.91 108.09,13.95 108.17,13.65 108.51,12.84 109.02,12.04 109.63,11.36 
	110.38,10.81 111.19,10.44 111.99,10.18 "/>
<polygon class="st49" points="112.89,10.05 113.78,10.09 114.66,10.29 115.48,10.63 116.29,11.12 116.99,11.73 117.33,12.23 
	116.8,12.53 116.6,12.27 115.91,11.62 115.1,11.12 114.2,10.79 113.31,10.66 112.39,10.66 111.5,10.9 110.69,11.24 109.92,11.77 
	109.26,12.45 108.75,13.26 108.67,13.45 108.13,13.91 108.09,13.95 108.17,13.65 108.51,12.84 109.02,12.04 109.63,11.36 
	110.38,10.81 111.19,10.44 111.99,10.18 "/>
<polygon class="st50" points="113,9.45 113.93,9.49 114.9,9.69 115.78,10.07 116.64,10.61 117.36,11.3 117.87,11.92 117.56,12.12 
	117.32,12.23 116.99,11.72 116.28,11.11 115.47,10.61 114.66,10.26 113.77,10.07 112.89,10.02 111.99,10.15 111.19,10.42 
	110.38,10.8 109.63,11.34 109.02,12.03 108.51,12.85 108.18,13.66 108.09,13.97 107.67,14.43 107.67,14.35 107.87,13.38 
	108.25,12.49 108.79,11.65 109.48,10.92 110.25,10.31 111.11,9.87 112.03,9.56 "/>
<polygon class="st51" points="113,9.45 113.93,9.49 114.9,9.69 115.78,10.07 116.64,10.61 117.36,11.3 117.87,11.92 117.56,12.12 
	117.32,12.23 116.99,11.72 116.28,11.11 115.47,10.61 114.66,10.26 113.77,10.07 112.89,10.02 111.99,10.15 111.19,10.42 
	110.38,10.8 109.63,11.34 109.02,12.03 108.51,12.85 108.18,13.66 108.09,13.97 107.67,14.43 107.67,14.35 107.87,13.38 
	108.25,12.49 108.79,11.65 109.48,10.92 110.25,10.31 111.11,9.87 112.03,9.56 "/>
<polygon class="st52" points="113.04,8.91 114.09,8.95 115.09,9.18 116.05,9.57 116.97,10.14 117.79,10.87 118.29,11.57 
	117.83,11.95 117.32,11.33 116.6,10.65 115.74,10.1 114.86,9.72 113.9,9.53 112.97,9.48 112.01,9.6 111.09,9.9 110.23,10.34 
	109.46,10.95 108.78,11.68 108.23,12.52 107.86,13.4 107.66,14.37 107.66,14.45 107.31,14.79 107.35,14.15 107.58,13.14 
	107.97,12.19 108.54,11.26 109.28,10.45 110.12,9.83 111.04,9.33 112.05,9.02 "/>
<polygon class="st53" points="113.04,8.91 114.09,8.95 115.09,9.18 116.05,9.57 116.97,10.14 117.79,10.87 118.29,11.57 
	117.83,11.95 117.32,11.33 116.6,10.65 115.74,10.1 114.86,9.72 113.9,9.53 112.97,9.48 112.01,9.6 111.09,9.9 110.23,10.34 
	109.46,10.95 108.78,11.68 108.23,12.52 107.86,13.4 107.66,14.37 107.66,14.45 107.31,14.79 107.35,14.15 107.58,13.14 
	107.97,12.19 108.54,11.26 109.28,10.45 110.12,9.83 111.04,9.33 112.05,9.02 "/>
<path class="st54" d="M113.61,8.31l1.01,0.07l0.97,0.27l0.92,0.39l0.88,0.58l0.77,0.7l0.66,0.8v0.04l-0.46,0.39h-0.04l-0.51-0.7
	l-0.81-0.73l-0.93-0.58l-0.97-0.39l-0.99-0.22l-1.05-0.04L112.07,9l-1.01,0.31l-0.93,0.51l-0.84,0.62l-0.74,0.82l-0.58,0.93
	l-0.39,0.96l-0.23,1.01l-0.04,0.65l-0.27,0.39l-0.04-0.15l0.04-1.08l0.22-1.08l0.46-1.08l0.62-0.97l0.7-0.77l0.81-0.65l0.84-0.46
	l0.97-0.39l0.97-0.2L113.61,8.31z M114.96,21.01l-0.11,0.04l-1.08,0.15v-0.08L114.96,21.01z"/>
<path class="st55" d="M113.61,8.31l1.01,0.07l0.97,0.27l0.92,0.39l0.88,0.58l0.77,0.7l0.66,0.8v0.04l-0.46,0.39h-0.04l-0.51-0.7
	l-0.81-0.73l-0.93-0.58l-0.97-0.39l-0.99-0.22l-1.05-0.04L112.07,9l-1.01,0.31l-0.93,0.51l-0.84,0.62l-0.74,0.82l-0.58,0.93
	l-0.39,0.96l-0.23,1.01l-0.04,0.65l-0.27,0.39l-0.04-0.15l0.04-1.08l0.22-1.08l0.46-1.08l0.62-0.97l0.7-0.77l0.81-0.65l0.84-0.46
	l0.97-0.39l0.97-0.2L113.61,8.31z M114.96,21.01l-0.11,0.04l-1.08,0.15v-0.08L114.96,21.01z"/>
<path class="st56" d="M113.78,7.71l1.04,0.11l1.05,0.27l1,0.42l0.94,0.62l0.8,0.77l0.7,0.86v0.04l-0.11,0.11l-0.35,0.27v-0.04
	l-0.66-0.8l-0.77-0.7l-0.88-0.57l-0.93-0.39l-0.97-0.27l-1.01-0.07l-0.97,0.03l-0.97,0.2l-0.97,0.39l-0.84,0.46l-0.81,0.65
	l-0.7,0.77l-0.62,0.97l-0.46,1.08l-0.22,1.08l-0.04,1.08l0.04,0.15l-0.24,0.27l-0.07,0.11v-0.07l-0.04-1.08l0.11-1.04l0.28-1.05
	l0.42-0.99l0.62-0.92l0.73-0.81l0.9-0.69l0.93-0.55l0.97-0.38l1.04-0.2L113.78,7.71z M117.53,20.26l-0.07,0.03l-0.93,0.55
	l-1.01,0.35l-1.01,0.22l-0.73,0.04v-0.27l1.08-0.15l0.11-0.04h0.04l1.23-0.27l1.25-0.46H117.53z"/>
<path class="st57" d="M113.78,7.71l1.04,0.11l1.05,0.27l1,0.42l0.94,0.62l0.8,0.77l0.7,0.86v0.04l-0.11,0.11l-0.35,0.27v-0.04
	l-0.66-0.8l-0.77-0.7l-0.88-0.57l-0.93-0.39l-0.97-0.27l-1.01-0.07l-0.97,0.03l-0.97,0.2l-0.97,0.39l-0.84,0.46l-0.81,0.65
	l-0.7,0.77l-0.62,0.97l-0.46,1.08l-0.22,1.08l-0.04,1.08l0.04,0.15l-0.24,0.27l-0.07,0.11v-0.07l-0.04-1.08l0.11-1.04l0.28-1.05
	l0.42-0.99l0.62-0.92l0.73-0.81l0.9-0.69l0.93-0.55l0.97-0.38l1.04-0.2L113.78,7.71z M117.53,20.26l-0.07,0.03l-0.93,0.55
	l-1.01,0.35l-1.01,0.22l-0.73,0.04v-0.27l1.08-0.15l0.11-0.04h0.04l1.23-0.27l1.25-0.46H117.53z"/>
<path class="st58" d="M113.85,7.11l1.12,0.13l1.12,0.31l1.04,0.46l1.01,0.65l0.88,0.81l0.7,0.81l-0.46,0.5v-0.04l-0.7-0.85
	l-0.8-0.77l-0.94-0.62l-1-0.42l-1.05-0.27l-1.04-0.11l-1.08,0.07l-1.04,0.2l-0.97,0.38l-0.93,0.55l-0.9,0.69l-0.73,0.81l-0.62,0.92
	l-0.42,0.99l-0.28,1.05l-0.11,1.04l0.04,1.08v0.07l-0.2,0.39l-0.11-0.58l-0.04-1.12l0.11-1.12l0.27-1.11l0.48-1.05l0.65-0.99
	l0.81-0.88l0.9-0.74l1-0.53l1.05-0.39l1.11-0.22L113.85,7.11z M119.18,19.24l-0.49,0.55l-0.9,0.73l-1,0.53l-1.05,0.39l-1.12,0.22
	l-0.89,0.08v-0.31l0.73-0.04l1.01-0.22l1.01-0.35l0.93-0.55l0.07-0.03l1.21-0.66L119.18,19.24z"/>
<path class="st59" d="M113.85,7.11l1.12,0.13l1.12,0.31l1.04,0.46l1.01,0.65l0.88,0.81l0.7,0.81l-0.46,0.5v-0.04l-0.7-0.85
	l-0.8-0.77l-0.94-0.62l-1-0.42l-1.05-0.27l-1.04-0.11l-1.08,0.07l-1.04,0.2l-0.97,0.38l-0.93,0.55l-0.9,0.69l-0.73,0.81l-0.62,0.92
	l-0.42,0.99l-0.28,1.05l-0.11,1.04l0.04,1.08v0.07l-0.2,0.39l-0.11-0.58l-0.04-1.12l0.11-1.12l0.27-1.11l0.48-1.05l0.65-0.99
	l0.81-0.88l0.9-0.74l1-0.53l1.05-0.39l1.11-0.22L113.85,7.11z M119.18,19.24l-0.49,0.55l-0.9,0.73l-1,0.53l-1.05,0.39l-1.12,0.22
	l-0.89,0.08v-0.31l0.73-0.04l1.01-0.22l1.01-0.35l0.93-0.55l0.07-0.03l1.21-0.66L119.18,19.24z"/>
<path class="st60" d="M113.98,6.51l1.19,0.11l1.16,0.31l1.15,0.51l1.05,0.7l0.93,0.84l0.66,0.82l-0.28,0.35l-0.11,0.11l-0.7-0.82
	l-0.88-0.82l-1.01-0.65l-1.04-0.46l-1.12-0.31l-1.12-0.13l-1.12,0.09l-1.11,0.22l-1.05,0.39l-1,0.53l-0.9,0.74l-0.81,0.89l-0.65,1
	l-0.48,1.06l-0.27,1.11l-0.11,1.13l0.04,1.13l0.11,0.58l-0.2,0.35l-0.22-1.06l-0.04-1.15l0.11-1.2l0.31-1.17l0.46-1.15l0.7-1.04
	l0.84-0.93l0.97-0.77l1.05-0.59l1.12-0.42l1.19-0.27L113.98,6.51z M120.39,18.34L119.97,19l-0.86,0.93l-0.97,0.77l-1.04,0.62
	l-1.12,0.42l-1.16,0.24l-1.08,0.07v-0.27l0.88-0.08l1.12-0.22l1.05-0.39l1-0.53l0.9-0.73l0.49-0.55l0.66-0.46L120.39,18.34z"/>
<path class="st61" d="M113.98,6.51l1.19,0.11l1.16,0.31l1.15,0.51l1.05,0.7l0.93,0.84l0.66,0.82l-0.28,0.35l-0.11,0.11l-0.7-0.82
	l-0.88-0.82l-1.01-0.65l-1.04-0.46l-1.12-0.31l-1.12-0.13l-1.12,0.09l-1.11,0.22l-1.05,0.39l-1,0.53l-0.9,0.74l-0.81,0.89l-0.65,1
	l-0.48,1.06l-0.27,1.11l-0.11,1.13l0.04,1.13l0.11,0.58l-0.2,0.35l-0.22-1.06l-0.04-1.15l0.11-1.2l0.31-1.17l0.46-1.15l0.7-1.04
	l0.84-0.93l0.97-0.77l1.05-0.59l1.12-0.42l1.19-0.27L113.98,6.51z M120.39,18.34L119.97,19l-0.86,0.93l-0.97,0.77l-1.04,0.62
	l-1.12,0.42l-1.16,0.24l-1.08,0.07v-0.27l0.88-0.08l1.12-0.22l1.05-0.39l1-0.53l0.9-0.73l0.49-0.55l0.66-0.46L120.39,18.34z"/>
<path class="st62" d="M113.45,5.97h1.16l1.12,0.2l1.11,0.34l1.1,0.51l1,0.66l0.9,0.81l0.69,0.8l-0.04,0.08l-0.34,0.46l-0.66-0.81
	l-0.93-0.84l-1.05-0.7l-1.15-0.51l-1.17-0.31l-1.19-0.11l-1.17,0.04l-1.19,0.27l-1.12,0.42l-1.05,0.59l-0.97,0.77l-0.84,0.93
	l-0.7,1.04l-0.46,1.15l-0.31,1.16l-0.11,1.19l0.04,1.15l0.22,1.05l-0.15,0.42l-0.27-1.01l-0.16-1.11v-1.16l0.2-1.12l0.34-1.11
	l0.51-1.08l0.66-1.01l0.82-0.88l0.89-0.77l1.01-0.58l1.04-0.46l1.12-0.31L113.45,5.97z M121.41,17.42l-0.31,0.7l-0.65,1L119.64,20
	l-0.93,0.77l-0.97,0.62l-1.08,0.46l-1.12,0.31l-1.12,0.13h-0.66v-0.24l1.08-0.07l1.17-0.24l1.12-0.42l1.04-0.62l0.97-0.77l0.86-0.93
	l0.42-0.66l0.58-0.46L121.41,17.42z"/>
<path class="st63" d="M113.45,5.97h1.16l1.12,0.2l1.11,0.34l1.1,0.51l1,0.66l0.9,0.81l0.69,0.8l-0.04,0.08l-0.34,0.46l-0.66-0.81
	l-0.93-0.84l-1.05-0.7l-1.15-0.51l-1.17-0.31l-1.19-0.11l-1.17,0.04l-1.19,0.27l-1.12,0.42l-1.05,0.59l-0.97,0.77l-0.84,0.93
	l-0.7,1.04l-0.46,1.15l-0.31,1.16l-0.11,1.19l0.04,1.15l0.22,1.05l-0.15,0.42l-0.27-1.01l-0.16-1.11v-1.16l0.2-1.12l0.34-1.11
	l0.51-1.08l0.66-1.01l0.82-0.88l0.89-0.77l1.01-0.58l1.04-0.46l1.12-0.31L113.45,5.97z M121.41,17.42l-0.31,0.7l-0.65,1L119.64,20
	l-0.93,0.77l-0.97,0.62l-1.08,0.46l-1.12,0.31l-1.12,0.13h-0.66v-0.24l1.08-0.07l1.17-0.24l1.12-0.42l1.04-0.62l0.97-0.77l0.86-0.93
	l0.42-0.66l0.58-0.46L121.41,17.42z"/>
<path class="st64" d="M113.54,5.37h1.24l1.2,0.2l1.17,0.34l1.13,0.55l1.08,0.69L120.32,8l0.58,0.69l-0.35,0.58l-0.69-0.8l-0.9-0.81
	l-1-0.66l-1.1-0.51l-1.11-0.34l-1.12-0.2h-1.17l-1.12,0.16l-1.12,0.31l-1.04,0.46l-1.01,0.58l-0.89,0.77l-0.82,0.88l-0.66,1.01
	l-0.51,1.08l-0.34,1.11l-0.2,1.12v1.16l0.16,1.11l0.27,1.01l-0.15,0.42l-0.11-0.31l-0.31-1.15l-0.15-1.21v-1.19l0.2-1.19l0.34-1.15
	l0.55-1.17l0.7-1.04l0.84-0.97l0.97-0.77l1.04-0.66l1.1-0.49l1.19-0.31L113.54,5.37z M122.37,16.33l-0.2,0.7l-0.55,1.11l-0.69,1.08
	l-0.86,0.97l-0.97,0.77l-1.04,0.66l-1.12,0.51l-1.17,0.31l-1.19,0.15h-0.82v-0.31h0.66l1.12-0.13l1.13-0.31l1.08-0.46l0.97-0.62
	l0.93-0.77l0.82-0.89l0.65-1l0.31-0.7l0.59-0.58L122.37,16.33z M106.76,18.49l0.51,0.66l0.66,0.69l0.7,0.66l0.77,0.66l0.42,0.31
	l-1.01-0.66l-0.96-0.84l-0.77-0.97L106.76,18.49z"/>
<path class="st65" d="M113.54,5.37h1.24l1.2,0.2l1.17,0.34l1.13,0.55l1.08,0.69L120.32,8l0.58,0.69l-0.35,0.58l-0.69-0.8l-0.9-0.81
	l-1-0.66l-1.1-0.51l-1.11-0.34l-1.12-0.2h-1.17l-1.12,0.16l-1.12,0.31l-1.04,0.46l-1.01,0.58l-0.89,0.77l-0.82,0.88l-0.66,1.01
	l-0.51,1.08l-0.34,1.11l-0.2,1.12v1.16l0.16,1.11l0.27,1.01l-0.15,0.42l-0.11-0.31l-0.31-1.15l-0.15-1.21v-1.19l0.2-1.19l0.34-1.15
	l0.55-1.17l0.7-1.04l0.84-0.97l0.97-0.77l1.04-0.66l1.1-0.49l1.19-0.31L113.54,5.37z M122.37,16.33l-0.2,0.7l-0.55,1.11l-0.69,1.08
	l-0.86,0.97l-0.97,0.77l-1.04,0.66l-1.12,0.51l-1.17,0.31l-1.19,0.15h-0.82v-0.31h0.66l1.12-0.13l1.13-0.31l1.08-0.46l0.97-0.62
	l0.93-0.77l0.82-0.89l0.65-1l0.31-0.7l0.59-0.58L122.37,16.33z M106.76,18.49l0.51,0.66l0.66,0.69l0.7,0.66l0.77,0.66l0.42,0.31
	l-1.01-0.66l-0.96-0.84l-0.77-0.97L106.76,18.49z"/>
<path class="st66" d="M113.66,4.77h1.28l1.23,0.18l1.24,0.39l1.19,0.54l1.12,0.73l1.01,0.9l0.42,0.49l-0.2,0.51l-0.07,0.15
	l-0.58-0.69l-0.97-0.86l-1.08-0.69l-1.12-0.55l-1.16-0.34l-1.19-0.2h-1.24l-1.17,0.16l-1.19,0.31l-1.09,0.49l-1.04,0.66l-0.97,0.77
	l-0.84,0.97l-0.7,1.04l-0.55,1.17l-0.34,1.15l-0.2,1.2v1.2l0.15,1.21l0.31,1.15l0.11,0.31v0.04l0.27,0.62l0.43,0.65l0.03,0.04
	l0.32,0.51l0.77,0.97l0.96,0.84l1.01,0.66l0.39,0.31l0.53,0.35l-0.97-0.44l-1.12-0.73l-1-0.89l-0.86-1.01l-0.66-1.11l-0.49-1.17
	l-0.35-1.2l-0.15-1.28v-1.24l0.2-1.27l0.38-1.24l0.55-1.17L107,8.29l0.88-1.01l1.01-0.84l1.12-0.66l1.16-0.51l1.19-0.34L113.66,4.77
	z M123.09,15.24l-0.08,0.55l-0.38,1.24l-0.55,1.2l-0.73,1.13l-0.88,1l-1.01,0.82l-1.08,0.69l-1.16,0.51l-1.23,0.31l-1.24,0.16h-0.97
	V22.6h0.81l1.19-0.16l1.17-0.31l1.12-0.51l1.04-0.66l0.97-0.77l0.86-0.97l0.69-1.08l0.55-1.11l0.2-0.7l0.49-0.65L123.09,15.24z"/>
<path class="st67" d="M113.66,4.77h1.28l1.23,0.18l1.24,0.39l1.19,0.54l1.12,0.73l1.01,0.9l0.42,0.49l-0.2,0.51l-0.07,0.15
	l-0.58-0.69l-0.97-0.86l-1.08-0.69l-1.12-0.55l-1.16-0.34l-1.19-0.2h-1.24l-1.17,0.16l-1.19,0.31l-1.09,0.49l-1.04,0.66l-0.97,0.77
	l-0.84,0.97l-0.7,1.04l-0.55,1.17l-0.34,1.15l-0.2,1.2v1.2l0.15,1.21l0.31,1.15l0.11,0.31v0.04l0.27,0.62l0.43,0.65l0.03,0.04
	l0.32,0.51l0.77,0.97l0.96,0.84l1.01,0.66l0.39,0.31l0.53,0.35l-0.97-0.44l-1.12-0.73l-1-0.89l-0.86-1.01l-0.66-1.11l-0.49-1.17
	l-0.35-1.2l-0.15-1.28v-1.24l0.2-1.27l0.38-1.24l0.55-1.17L107,8.29l0.88-1.01l1.01-0.84l1.12-0.66l1.16-0.51l1.19-0.34L113.66,4.77
	z M123.09,15.24l-0.08,0.55l-0.38,1.24l-0.55,1.2l-0.73,1.13l-0.88,1l-1.01,0.82l-1.08,0.69l-1.16,0.51l-1.23,0.31l-1.24,0.16h-0.97
	V22.6h0.81l1.19-0.16l1.17-0.31l1.12-0.51l1.04-0.66l0.97-0.77l0.86-0.97l0.69-1.08l0.55-1.11l0.2-0.7l0.49-0.65L123.09,15.24z"/>
<path class="st68" d="M113.73,4.23h1.36l1.3,0.2l1.28,0.39l1.24,0.58l1.21,0.77l0.73,0.65L121,7.05l0.27,0.62l-0.11,0.38l-0.42-0.49
	l-1.01-0.9l-1.12-0.73l-1.19-0.53L116.17,5l-1.23-0.18h-1.28l-1.28,0.15l-1.19,0.34l-1.16,0.51l-1.12,0.66l-1.01,0.84l-0.88,1.01
	l-0.73,1.11l-0.55,1.16l-0.38,1.24l-0.2,1.26v1.23l0.15,1.28l0.35,1.19l0.49,1.16l0.66,1.11l0.86,1.01l1,0.88l1.12,0.73l0.97,0.43
	l0.27,0.18l0.74,0.43l-0.81-0.24l-1.23-0.58l-1.21-0.77l-1.04-0.93l-0.88-1.08l-0.7-1.12l-0.51-1.23L105,15.54l-0.15-1.32v-1.3
	l0.2-1.32l0.38-1.3L106,9.06l0.77-1.16l0.94-1.04l1.08-0.88l1.12-0.69l1.23-0.55l1.28-0.35L113.73,4.23z M123.75,14v0.42l-0.2,1.3
	l-0.39,1.32l-0.58,1.23l-0.77,1.15l-0.93,1.04l-1.04,0.9l-1.16,0.69l-1.19,0.55l-1.28,0.34l-1.32,0.2l-1.12-0.04v-0.27h0.97
	l1.24-0.16l1.23-0.31l1.16-0.51l1.08-0.69l1.01-0.81l0.88-1l0.73-1.12l0.55-1.19l0.38-1.23l0.08-0.55l0.51-0.84L123.75,14z"/>
<path class="st69" d="M113.73,4.23h1.36l1.3,0.2l1.28,0.39l1.24,0.58l1.21,0.77l0.73,0.65L121,7.05l0.27,0.62l-0.11,0.38l-0.42-0.49
	l-1.01-0.9l-1.12-0.73l-1.19-0.53L116.17,5l-1.23-0.18h-1.28l-1.28,0.15l-1.19,0.34l-1.16,0.51l-1.12,0.66l-1.01,0.84l-0.88,1.01
	l-0.73,1.11l-0.55,1.16l-0.38,1.24l-0.2,1.26v1.23l0.15,1.28l0.35,1.19l0.49,1.16l0.66,1.11l0.86,1.01l1,0.88l1.12,0.73l0.97,0.43
	l0.27,0.18l0.74,0.43l-0.81-0.24l-1.23-0.58l-1.21-0.77l-1.04-0.93l-0.88-1.08l-0.7-1.12l-0.51-1.23L105,15.54l-0.15-1.32v-1.3
	l0.2-1.32l0.38-1.3L106,9.06l0.77-1.16l0.94-1.04l1.08-0.88l1.12-0.69l1.23-0.55l1.28-0.35L113.73,4.23z M123.75,14v0.42l-0.2,1.3
	l-0.39,1.32l-0.58,1.23l-0.77,1.15l-0.93,1.04l-1.04,0.9l-1.16,0.69l-1.19,0.55l-1.28,0.34l-1.32,0.2l-1.12-0.04v-0.27h0.97
	l1.24-0.16l1.23-0.31l1.16-0.51l1.08-0.69l1.01-0.81l0.88-1l0.73-1.12l0.55-1.19l0.38-1.23l0.08-0.55l0.51-0.84L123.75,14z"/>
<path class="st70" d="M114.42,3.57l1.28,0.09l1.23,0.22l1.23,0.44l1.04,0.49l0.2,0.2l0.66,0.7l0.51,0.65l0.27,0.42l-0.73-0.65
	l-1.21-0.77l-1.23-0.58l-1.28-0.39l-1.3-0.2h-1.36l-1.3,0.15l-1.28,0.35l-1.23,0.55l-1.12,0.69l-1.08,0.89l-0.94,1.04l-0.77,1.17
	l-0.58,1.24l-0.38,1.31l-0.2,1.32v1.3l0.15,1.32l0.38,1.26l0.51,1.24l0.7,1.12l0.88,1.08l1.04,0.93l1.21,0.77l1.23,0.58l0.81,0.24
	l0.04,0.03l0.73,0.35l0.42,0.15l-1.04-0.2l-1.21-0.42l-1.19-0.58l-1.12-0.73l-1-0.9l-0.9-1l-0.69-1.08l-0.59-1.15L104.84,16
	l-0.24-1.24l-0.11-1.26l0.07-1.28l0.28-1.28l0.38-1.19l0.59-1.19l0.77-1.12l0.88-1l1.01-0.86l1.08-0.73l1.12-0.53l1.23-0.39
	l0.84-0.2l0.9-0.07V3.61L114.42,3.57z M124.27,12.37l0.08,1.08l-0.08,1.28L124,16l-0.39,1.21l-0.57,1.19l-0.77,1.11l-0.88,1.01
	l-1.01,0.84l-1.08,0.74l-1.12,0.53l-1.23,0.39l-1.23,0.27l-1.23,0.07l-0.7-0.03v-0.28l1.12,0.04l1.32-0.2l1.28-0.34l1.19-0.55
	l1.16-0.69l1.04-0.9l0.92-1.04l0.77-1.15l0.58-1.24l0.39-1.32l0.2-1.31v-0.42l0.38-0.93L124.27,12.37z"/>
<path class="st71" d="M114.42,3.57l1.28,0.09l1.23,0.22l1.23,0.44l1.04,0.49l0.2,0.2l0.66,0.7l0.51,0.65l0.27,0.42l-0.73-0.65
	l-1.21-0.77l-1.23-0.58l-1.28-0.39l-1.3-0.2h-1.36l-1.3,0.15l-1.28,0.35l-1.23,0.55l-1.12,0.69l-1.08,0.89l-0.94,1.04l-0.77,1.17
	l-0.58,1.24l-0.38,1.31l-0.2,1.32v1.3l0.15,1.32l0.38,1.26l0.51,1.24l0.7,1.12l0.88,1.08l1.04,0.93l1.21,0.77l1.23,0.58l0.81,0.24
	l0.04,0.03l0.73,0.35l0.42,0.15l-1.04-0.2l-1.21-0.42l-1.19-0.58l-1.12-0.73l-1-0.9l-0.9-1l-0.69-1.08l-0.59-1.15L104.84,16
	l-0.24-1.24l-0.11-1.26l0.07-1.28l0.28-1.28l0.38-1.19l0.59-1.19l0.77-1.12l0.88-1l1.01-0.86l1.08-0.73l1.12-0.53l1.23-0.39
	l0.84-0.2l0.9-0.07V3.61L114.42,3.57z M124.27,12.37l0.08,1.08l-0.08,1.28L124,16l-0.39,1.21l-0.57,1.19l-0.77,1.11l-0.88,1.01
	l-1.01,0.84l-1.08,0.74l-1.12,0.53l-1.23,0.39l-1.23,0.27l-1.23,0.07l-0.7-0.03v-0.28l1.12,0.04l1.32-0.2l1.28-0.34l1.19-0.55
	l1.16-0.69l1.04-0.9l0.92-1.04l0.77-1.15l0.58-1.24l0.39-1.32l0.2-1.31v-0.42l0.38-0.93L124.27,12.37z"/>
<path class="st72" d="M114.52,3.03l1.32,0.09l1.31,0.22l0.51,0.15l0.31,0.24l0.74,0.64l0.49,0.46l-1.04-0.49l-1.24-0.43l-1.24-0.22
	l-1.28-0.08l-0.77,0.04V3.07L114.52,3.03z M112.73,3.76l-0.84,0.2l-1.24,0.39l-1.12,0.53l-1.08,0.73l-1.01,0.86l-0.89,1l-0.77,1.12
	l-0.59,1.19l-0.38,1.19l-0.28,1.28l-0.07,1.28l0.11,1.26l0.24,1.23l0.38,1.21l0.59,1.15l0.69,1.08l0.9,1l1,0.9l1.12,0.73l1.19,0.58
	l1.21,0.42l1.04,0.2l0.24,0.08l0.58,0.07v-0.07l0.7,0.03l1.24-0.07l1.24-0.27l1.24-0.39l1.13-0.53l1.08-0.74l1.01-0.84l0.89-1.01
	l0.77-1.11l0.58-1.19l0.39-1.21l0.27-1.26l0.08-1.28l-0.08-1.08l0.2-0.77l0.09-0.93v0.04l0.27,1.28l0.07,1.3l-0.07,1.35l-0.27,1.32
	l-0.44,1.26l-0.62,1.23l-0.77,1.16l-0.93,1.04l-1.04,0.93l-1.12,0.73l-1.21,0.58l-1.28,0.43l-1.27,0.22l-1.36,0.08l-1.31-0.08
	l-1.32-0.22l-1.28-0.43l-1.24-0.62l-1.17-0.77l-1.04-0.93l-0.93-1.04l-0.75-1.12l-0.58-1.19l-0.42-1.26l-0.24-1.32l-0.07-1.3
	l0.07-1.35l0.24-1.32l0.42-1.28l0.62-1.23l0.77-1.15l0.27-0.31l0.9-0.73l1.2-0.81l1.21-0.66l1.28-0.46l1.24-0.27L112.73,3.76z"/>
<path class="st73" d="M114.52,3.03l1.32,0.09l1.31,0.22l0.51,0.15l0.31,0.24l0.74,0.64l0.49,0.46l-1.04-0.49l-1.24-0.43l-1.24-0.22
	l-1.28-0.08l-0.77,0.04V3.07L114.52,3.03z M112.73,3.76l-0.84,0.2l-1.24,0.39l-1.12,0.53l-1.08,0.73l-1.01,0.86l-0.89,1l-0.77,1.12
	l-0.59,1.19l-0.38,1.19l-0.28,1.28l-0.07,1.28l0.11,1.26l0.24,1.23l0.38,1.21l0.59,1.15l0.69,1.08l0.9,1l1,0.9l1.12,0.73l1.19,0.58
	l1.21,0.42l1.04,0.2l0.24,0.08l0.58,0.07v-0.07l0.7,0.03l1.24-0.07l1.24-0.27l1.24-0.39l1.13-0.53l1.08-0.74l1.01-0.84l0.89-1.01
	l0.77-1.11l0.58-1.19l0.39-1.21l0.27-1.26l0.08-1.28l-0.08-1.08l0.2-0.77l0.09-0.93v0.04l0.27,1.28l0.07,1.3l-0.07,1.35l-0.27,1.32
	l-0.44,1.26l-0.62,1.23l-0.77,1.16l-0.93,1.04l-1.04,0.93l-1.12,0.73l-1.21,0.58l-1.28,0.43l-1.27,0.22l-1.36,0.08l-1.31-0.08
	l-1.32-0.22l-1.28-0.43l-1.24-0.62l-1.17-0.77l-1.04-0.93l-0.93-1.04l-0.75-1.12l-0.58-1.19l-0.42-1.26l-0.24-1.32l-0.07-1.3
	l0.07-1.35l0.24-1.32l0.42-1.28l0.62-1.23l0.77-1.15l0.27-0.31l0.9-0.73l1.2-0.81l1.21-0.66l1.28-0.46l1.24-0.27L112.73,3.76z"/>
<path class="st74" d="M114.65,2.43l1.36,0.07l0.38,0.08l0.77,0.53l0.5,0.35l-0.5-0.15l-1.3-0.23l-1.32-0.08l-0.88,0.04V2.47
	L114.65,2.43z M106.62,6.71l-0.27,0.31l-0.77,1.15l-0.62,1.24l-0.42,1.28l-0.24,1.32l-0.07,1.35l0.07,1.31l0.24,1.32l0.42,1.26
	l0.58,1.19l0.74,1.12l0.93,1.04l1.04,0.93l1.16,0.77l1.23,0.62l1.28,0.43l1.32,0.22l1.3,0.08l1.36-0.08l1.26-0.22l1.28-0.43
	l1.21-0.58l1.12-0.73l1.04-0.93l0.93-1.04l0.77-1.16l0.62-1.24l0.43-1.26l0.27-1.32l0.07-1.35l-0.07-1.31l-0.27-1.28v-0.04
	l0.03-0.58l-0.11-1.32V8.72l0.2,0.42l0.42,1.32l0.27,1.35l0.08,1.39l-0.08,1.35l-0.27,1.39l-0.46,1.31L124,18.52l-0.81,1.24
	l-0.97,1.08l-1.08,0.97l-1.19,0.77l-1.23,0.58l-1.32,0.46l-1.35,0.27l-1.4,0.08l-1.34-0.08l-1.39-0.27l-1.32-0.46l-1.28-0.62
	l-1.23-0.81l-1.08-0.97l-0.97-1.08l-0.77-1.19l-0.58-1.24l-0.46-1.31L104,14.55l-0.11-1.35l0.07-1.39l0.28-1.39l0.46-1.32l0.31-0.65
	l0.38-0.51l0.92-0.97l0.08-0.07L106.62,6.71z"/>
<path class="st75" d="M114.65,2.43l1.36,0.07l0.38,0.08l0.77,0.53l0.5,0.35l-0.5-0.15l-1.3-0.23l-1.32-0.08l-0.88,0.04V2.47
	L114.65,2.43z M106.62,6.71l-0.27,0.31l-0.77,1.15l-0.62,1.24l-0.42,1.28l-0.24,1.32l-0.07,1.35l0.07,1.31l0.24,1.32l0.42,1.26
	l0.58,1.19l0.74,1.12l0.93,1.04l1.04,0.93l1.16,0.77l1.23,0.62l1.28,0.43l1.32,0.22l1.3,0.08l1.36-0.08l1.26-0.22l1.28-0.43
	l1.21-0.58l1.12-0.73l1.04-0.93l0.93-1.04l0.77-1.16l0.62-1.24l0.43-1.26l0.27-1.32l0.07-1.35l-0.07-1.31l-0.27-1.28v-0.04
	l0.03-0.58l-0.11-1.32V8.72l0.2,0.42l0.42,1.32l0.27,1.35l0.08,1.39l-0.08,1.35l-0.27,1.39l-0.46,1.31L124,18.52l-0.81,1.24
	l-0.97,1.08l-1.08,0.97l-1.19,0.77l-1.23,0.58l-1.32,0.46l-1.35,0.27l-1.4,0.08l-1.34-0.08l-1.39-0.27l-1.32-0.46l-1.28-0.62
	l-1.23-0.81l-1.08-0.97l-0.97-1.08l-0.77-1.19l-0.58-1.24l-0.46-1.31L104,14.55l-0.11-1.35l0.07-1.39l0.28-1.39l0.46-1.32l0.31-0.65
	l0.38-0.51l0.92-0.97l0.08-0.07L106.62,6.71z"/>
<path class="st76" d="M114.75,1.89h0.23l0.62,0.27l0.77,0.46l-0.38-0.09l-1.36-0.07l-1,0.04V1.96L114.75,1.89z M123.64,6.24
	l0.08,0.08l0.82,1.23l0.62,1.26l0.46,1.39l0.27,1.39l0.08,1.43l-0.08,1.46l-0.27,1.39l-0.46,1.39l-0.66,1.35l-0.86,1.28l-1,1.12
	l-1.12,0.97l-1.24,0.8l-1.32,0.62l-1.35,0.46l-1.43,0.27l-1.43,0.08l-1.43-0.08l-1.43-0.27l-1.39-0.46l-1.32-0.65l-1.28-0.86
	l-1.17-1l-0.95-1.12L105,18.54l-0.66-1.28l-0.44-1.35l-0.27-1.43l-0.11-1.42l0.11-1.43l0.27-1.43l0.08-0.22l0.46-0.81l0.51-0.69
	l-0.31,0.64l-0.46,1.32l-0.28,1.39l-0.07,1.39l0.11,1.35l0.24,1.39l0.46,1.3l0.58,1.23l0.77,1.19l0.97,1.08l1.08,0.97l1.23,0.81
	l1.28,0.62l1.32,0.46l1.39,0.27l1.35,0.08l1.4-0.08l1.35-0.27l1.32-0.46l1.24-0.58l1.19-0.77l1.08-0.97l0.97-1.08l0.81-1.23
	l0.62-1.28l0.46-1.3l0.27-1.39l0.08-1.35l-0.08-1.39l-0.27-1.35l-0.42-1.32l-0.2-0.42l-0.27-1.19l-0.42-1.12L123.64,6.24z"/>
<path class="st77" d="M114.75,1.89h0.23l0.62,0.27l0.77,0.46l-0.38-0.09l-1.36-0.07l-1,0.04V1.96L114.75,1.89z M123.64,6.24
	l0.08,0.08l0.82,1.23l0.62,1.26l0.46,1.39l0.27,1.39l0.08,1.43l-0.08,1.46l-0.27,1.39l-0.46,1.39l-0.66,1.35l-0.86,1.28l-1,1.12
	l-1.12,0.97l-1.24,0.8l-1.32,0.62l-1.35,0.46l-1.43,0.27l-1.43,0.08l-1.43-0.08l-1.43-0.27l-1.39-0.46l-1.32-0.65l-1.28-0.86
	l-1.17-1l-0.95-1.12L105,18.54l-0.66-1.28l-0.44-1.35l-0.27-1.43l-0.11-1.42l0.11-1.43l0.27-1.43l0.08-0.22l0.46-0.81l0.51-0.69
	l-0.31,0.64l-0.46,1.32l-0.28,1.39l-0.07,1.39l0.11,1.35l0.24,1.39l0.46,1.3l0.58,1.23l0.77,1.19l0.97,1.08l1.08,0.97l1.23,0.81
	l1.28,0.62l1.32,0.46l1.39,0.27l1.35,0.08l1.4-0.08l1.35-0.27l1.32-0.46l1.24-0.58l1.19-0.77l1.08-0.97l0.97-1.08l0.81-1.23
	l0.62-1.28l0.46-1.3l0.27-1.39l0.08-1.35l-0.08-1.39l-0.27-1.35l-0.42-1.32l-0.2-0.42l-0.27-1.19l-0.42-1.12L123.64,6.24z"/>
<path class="st78" d="M113.64,1.53l0.58,0.07l0.66,0.24l0.11,0.04h-0.23l-1.12,0.07V1.53z M121.18,3.14l0.81,0.55l1.12,0.97
	l0.93,1.04l0.81,1.15l0.65,1.23L126,9.35l0.31,1.35l0.2,1.35v1.39l-0.11,1.35l-0.31,1.36l-0.51,1.35l-0.66,1.26l-0.81,1.21
	l-0.97,1.11l-1.04,0.93l-1.16,0.81l-1.23,0.66l-1.28,0.5l-1.35,0.29l-1.35,0.2h-1.4l-1.35-0.11l-1.35-0.31l-1.36-0.5L109,22.88
	l-1.19-0.81l-1.12-0.97l-0.93-1.04l-0.81-1.16l-0.66-1.22l-0.51-1.28l-0.31-1.35l-0.18-1.36v-1.39l0.07-0.99l0.39-0.88l0.27-0.46
	l-0.08,0.22l-0.27,1.43l-0.11,1.43l0.11,1.42l0.27,1.43l0.43,1.35l0.66,1.28l0.77,1.23l0.95,1.12l1.16,1l1.28,0.86l1.32,0.64
	l1.39,0.46l1.43,0.27l1.43,0.09l1.43-0.09l1.43-0.27l1.35-0.46l1.32-0.62l1.23-0.8l1.12-0.97l1-1.12l0.86-1.28l0.66-1.35l0.46-1.39
	l0.27-1.39l0.08-1.46l-0.08-1.43l-0.27-1.39l-0.46-1.39l-0.62-1.26l-0.81-1.23l-0.08-0.08l-0.51-0.88l-0.73-0.97l-0.81-0.88
	L121.18,3.14z"/>
<path class="st79" d="M113.64,1.53l0.58,0.07l0.66,0.24l0.11,0.04h-0.23l-1.12,0.07V1.53z M121.18,3.14l0.81,0.55l1.12,0.97
	l0.93,1.04l0.81,1.15l0.65,1.23L126,9.35l0.31,1.35l0.2,1.35v1.39l-0.11,1.35l-0.31,1.36l-0.51,1.35l-0.66,1.26l-0.81,1.21
	l-0.97,1.11l-1.04,0.93l-1.16,0.81l-1.23,0.66l-1.28,0.5l-1.35,0.29l-1.35,0.2h-1.4l-1.35-0.11l-1.35-0.31l-1.36-0.5L109,22.88
	l-1.19-0.81l-1.12-0.97l-0.93-1.04l-0.81-1.16l-0.66-1.22l-0.51-1.28l-0.31-1.35l-0.18-1.36v-1.39l0.07-0.99l0.39-0.88l0.27-0.46
	l-0.08,0.22l-0.27,1.43l-0.11,1.43l0.11,1.42l0.27,1.43l0.43,1.35l0.66,1.28l0.77,1.23l0.95,1.12l1.16,1l1.28,0.86l1.32,0.64
	l1.39,0.46l1.43,0.27l1.43,0.09l1.43-0.09l1.43-0.27l1.35-0.46l1.32-0.62l1.23-0.8l1.12-0.97l1-1.12l0.86-1.28l0.66-1.35l0.46-1.39
	l0.27-1.39l0.08-1.46l-0.08-1.43l-0.27-1.39l-0.46-1.39l-0.62-1.26l-0.81-1.23l-0.08-0.08l-0.51-0.88l-0.73-0.97l-0.81-0.88
	L121.18,3.14z"/>
<polygon class="st80" points="117.63,0.99 118.43,1.19 119.79,1.69 121.09,2.35 122.37,3.19 123.53,4.2 124.5,5.28 125.34,6.48 
	126,7.74 126.5,9.1 126.85,10.49 127.05,11.88 127.05,13.3 126.92,14.73 126.59,16.16 126.08,17.51 125.42,18.81 124.57,20.09 
	123.57,21.24 122.49,22.21 121.29,23.07 120.01,23.71 118.67,24.22 117.28,24.57 115.89,24.75 114.46,24.75 113.03,24.64 
	111.6,24.29 110.24,23.8 108.93,23.14 107.66,22.29 106.49,21.28 105.53,20.2 104.69,19.01 104.03,17.73 103.52,16.39 103.17,15 
	102.99,13.61 102.99,12.61 103.17,11.8 103.37,11.33 103.3,12.33 103.3,13.72 103.48,15.08 103.79,16.43 104.29,17.71 104.95,18.93 
	105.77,20.09 106.69,21.13 107.81,22.1 109,22.91 110.28,23.56 111.64,24.06 112.99,24.37 114.33,24.48 115.73,24.48 117.08,24.29 
	118.43,23.99 119.7,23.49 120.94,22.83 122.1,22.01 123.14,21.09 124.11,19.98 124.92,18.77 125.58,17.51 126.08,16.16 126.39,14.8 
	126.5,13.45 126.5,12.06 126.31,10.72 126,9.37 125.49,8.09 124.85,6.86 124.04,5.71 123.11,4.67 121.99,3.7 121.17,3.15 
	120.67,2.73 119.67,2.04 118.62,1.45 "/>
<polygon class="st81" points="117.63,0.99 118.43,1.19 119.79,1.69 121.09,2.35 122.37,3.19 123.53,4.2 124.5,5.28 125.34,6.48 
	126,7.74 126.5,9.1 126.85,10.49 127.05,11.88 127.05,13.3 126.92,14.73 126.59,16.16 126.08,17.51 125.42,18.81 124.57,20.09 
	123.57,21.24 122.49,22.21 121.29,23.07 120.01,23.71 118.67,24.22 117.28,24.57 115.89,24.75 114.46,24.75 113.03,24.64 
	111.6,24.29 110.24,23.8 108.93,23.14 107.66,22.29 106.49,21.28 105.53,20.2 104.69,19.01 104.03,17.73 103.52,16.39 103.17,15 
	102.99,13.61 102.99,12.61 103.17,11.8 103.37,11.33 103.3,12.33 103.3,13.72 103.48,15.08 103.79,16.43 104.29,17.71 104.95,18.93 
	105.77,20.09 106.69,21.13 107.81,22.1 109,22.91 110.28,23.56 111.64,24.06 112.99,24.37 114.33,24.48 115.73,24.48 117.08,24.29 
	118.43,23.99 119.7,23.49 120.94,22.83 122.1,22.01 123.14,21.09 124.11,19.98 124.92,18.77 125.58,17.51 126.08,16.16 126.39,14.8 
	126.5,13.45 126.5,12.06 126.31,10.72 126,9.37 125.49,8.09 124.85,6.86 124.04,5.71 123.11,4.67 121.99,3.7 121.17,3.15 
	120.67,2.73 119.67,2.04 118.62,1.45 "/>
<polygon class="st82" points="114.68,0.09 115.73,0.09 117.23,0.24 118.66,0.6 119.54,0.9 120.13,1.13 121.56,1.87 121.59,1.9 
	122.82,2.76 123.98,3.84 125.02,5.03 125.88,6.34 126.58,7.77 127.11,9.27 127.42,10.9 127.53,12.56 127.42,14.26 127.11,15.87 
	126.58,17.39 125.88,18.85 124.99,20.15 123.94,21.36 122.75,22.44 121.43,23.32 120.24,23.94 118.88,24.47 117.47,24.83 116,25.02 
	114.52,25.05 113.05,24.9 111.59,24.56 110.16,24.05 108.8,23.37 107.5,22.47 106.3,21.43 105.3,20.31 104.45,19.04 103.76,17.72 
	103.21,16.33 102.86,14.91 102.75,14.1 102.83,13.22 102.99,12.6 102.99,13.6 103.17,14.99 103.52,16.37 104.03,17.72 104.68,19 
	105.53,20.19 106.49,21.27 107.66,22.28 108.93,23.13 110.23,23.79 111.59,24.28 113.02,24.63 114.45,24.74 115.88,24.74 
	117.27,24.56 118.66,24.21 120,23.7 121.28,23.06 122.48,22.2 123.56,21.23 124.56,20.08 125.41,18.8 126.07,17.5 126.58,16.15 
	126.91,14.72 127.04,13.29 127.04,11.87 126.84,10.48 126.49,9.09 125.99,7.73 125.33,6.46 124.49,5.27 123.52,4.19 122.36,3.18 
	121.08,2.34 119.78,1.68 118.42,1.17 117.62,0.97 117.54,0.95 116.42,0.51 115.34,0.22 "/>
<polygon class="st83" points="114.68,0.09 115.73,0.09 117.23,0.24 118.66,0.6 119.54,0.9 120.13,1.13 121.56,1.87 121.59,1.9 
	122.82,2.76 123.98,3.84 125.02,5.03 125.88,6.34 126.58,7.77 127.11,9.27 127.42,10.9 127.53,12.56 127.42,14.26 127.11,15.87 
	126.58,17.39 125.88,18.85 124.99,20.15 123.94,21.36 122.75,22.44 121.43,23.32 120.24,23.94 118.88,24.47 117.47,24.83 116,25.02 
	114.52,25.05 113.05,24.9 111.59,24.56 110.16,24.05 108.8,23.37 107.5,22.47 106.3,21.43 105.3,20.31 104.45,19.04 103.76,17.72 
	103.21,16.33 102.86,14.91 102.75,14.1 102.83,13.22 102.99,12.6 102.99,13.6 103.17,14.99 103.52,16.37 104.03,17.72 104.68,19 
	105.53,20.19 106.49,21.27 107.66,22.28 108.93,23.13 110.23,23.79 111.59,24.28 113.02,24.63 114.45,24.74 115.88,24.74 
	117.27,24.56 118.66,24.21 120,23.7 121.28,23.06 122.48,22.2 123.56,21.23 124.56,20.08 125.41,18.8 126.07,17.5 126.58,16.15 
	126.91,14.72 127.04,13.29 127.04,11.87 126.84,10.48 126.49,9.09 125.99,7.73 125.33,6.46 124.49,5.27 123.52,4.19 122.36,3.18 
	121.08,2.34 119.78,1.68 118.42,1.17 117.62,0.97 117.54,0.95 116.42,0.51 115.34,0.22 "/>
<path class="st82" d="M114.25,0.03h1.16l1.66,0.15l1.59,0.38l0.88,0.35l-0.88-0.31l-1.43-0.35l-1.5-0.15h-1.05L114.25,0.03z
	 M121.56,1.88l0.03,0.03L121.56,1.88z M102.73,14.09l0.11,0.81l0.35,1.42l0.55,1.39l0.69,1.32l0.86,1.26l1,1.12l1.21,1.04l1.3,0.9
	l1.36,0.69l1.43,0.5l1.46,0.34l1.47,0.15l1.47-0.03l1.47-0.2l1.42-0.35l1.36-0.53l-0.2,0.11l-1.54,0.57l-1.63,0.35l-1.65,0.15h-0.28
	L113.28,25l-1.63-0.31l-1.5-0.55l-1.47-0.69l-1.3-0.86l-1.21-1.04l-1.04-1.15l-0.93-1.28l-0.74-1.39l-0.58-1.5l-0.11-0.77
	l-0.08-0.77L102.73,14.09z"/>
<path class="st83" d="M114.25,0.03h1.16l1.66,0.15l1.59,0.38l0.88,0.35l-0.88-0.31l-1.43-0.35l-1.5-0.15h-1.05L114.25,0.03z
	 M121.56,1.88l0.03,0.03L121.56,1.88z M102.73,14.09l0.11,0.81l0.35,1.42l0.55,1.39l0.69,1.32l0.86,1.26l1,1.12l1.21,1.04l1.3,0.9
	l1.36,0.69l1.43,0.5l1.46,0.34l1.47,0.15l1.47-0.03l1.47-0.2l1.42-0.35l1.36-0.53l-0.2,0.11l-1.54,0.57l-1.63,0.35l-1.65,0.15h-0.28
	L113.28,25l-1.63-0.31l-1.5-0.55l-1.47-0.69l-1.3-0.86l-1.21-1.04l-1.04-1.15l-0.93-1.28l-0.74-1.39l-0.58-1.5l-0.11-0.77
	l-0.08-0.77L102.73,14.09z"/>
<path class="st82" d="M6.26,18.81h5.98l0.24,0.07l0.15,0.24v2.36l-0.15,0.22l-0.24,0.08H7.06l-0.53,0.07l-0.59,0.11l-0.58,0.2
	l-0.5,0.31l-0.38,0.39l-0.31,0.49l-0.2,0.51L3.82,24.4l-0.04,0.46l-0.04,0.39v2.98h5.66l0.22,0.15l0.08,0.23v2.16l-0.08,0.22
	L9.5,31.13L9.26,31.2H3.74v7.11l-0.07,0.23l-0.11,0.13l-0.24,0.07H0.45l-0.23-0.07l-0.11-0.13l-0.08-0.23V24.64l0.08-1l0.18-0.97
	l0.31-0.86l0.43-0.73l0.58-0.69l0.7-0.55l0.8-0.46l0.94-0.31l1.04-0.2L6.26,18.81z M71.75,19.16h0.22l0.13,0.07l0.07,0.08l0.04,0.11
	l0.04,0.15v16.26l0.07,0.46l0.15,0.35l0.24,0.22l0.27,0.11l0.31,0.04l0.51-0.04l0.38-0.07h0.2l0.15,0.15l0.04,0.11l0.27,1.63V39
	l-0.04,0.13l-0.07,0.03l-0.04,0.08l-0.07,0.04l-0.2,0.07l-0.35,0.08l-0.42,0.07l-0.62,0.08l-0.74,0.03l-0.93-0.07l-0.77-0.24
	l-0.66-0.38l-0.49-0.55l-0.35-0.62l-0.24-0.77l-0.07-0.89V19.96l0.07-0.15l0.08-0.07l0.11-0.09l0.15-0.03L71.75,19.16z M44.76,19.81
	H45l0.11,0.08l0.07,0.07l0.08,0.13v4.51h3.79l0.11,0.08l0.08,0.07l0.07,0.11v2.09l-0.07,0.11l-0.08,0.04l-0.11,0.07h-3.79v7.46
	l0.04,0.53l0.11,0.44l0.22,0.34l0.35,0.2l0.46,0.15l0.59,0.04l0.77-0.04l0.66-0.11l0.53-0.13h0.24l0.07,0.08l0.04,0.07l0.04,0.16
	l0.34,1.47v0.2l-0.03,0.15l-0.04,0.11l-0.24,0.15l-0.34,0.11l-0.51,0.11l-0.66,0.15l-0.81,0.08l-0.93,0.04l-0.93-0.04l-0.81-0.15
	l-0.7-0.24l-0.62-0.34l-0.46-0.46l-0.38-0.55l-0.27-0.69l-0.2-0.82l-0.04-0.97V20.71l0.08-0.15l0.07-0.13l0.11-0.07l0.15-0.04
	L44.76,19.81z M18.82,24.25l1.23,0.04l1.08,0.2l0.93,0.27l0.77,0.35l0.62,0.46L24,26.1l0.38,0.62l0.35,0.7l0.24,0.73l0.15,0.81
	l0.07,0.84l0.08,0.93v1.85l-0.08,0.93l-0.07,0.86l-0.15,0.8l-0.24,0.73l-0.35,0.7L24,37.23l-0.55,0.53l-0.62,0.46l-0.77,0.35
	l-0.93,0.27l-1.08,0.2l-1.23,0.04l-1.24-0.04l-1.05-0.2l-0.93-0.27l-0.77-0.35l-0.62-0.46l-0.55-0.53l-0.38-0.62l-0.35-0.7
	l-0.23-0.73l-0.15-0.8l-0.08-0.86l-0.07-0.93v-1.85l0.07-0.93l0.08-0.84l0.15-0.81l0.23-0.73l0.35-0.7l0.38-0.62l0.55-0.53
	l0.62-0.46l0.77-0.35l0.93-0.27l1.05-0.2L18.82,24.25z M32.86,24.25h0.58l1.01,0.04l0.93,0.09l0.77,0.11l0.66,0.11l0.49,0.15
	l0.32,0.08l0.15,0.07l0.15,0.15v0.35l-0.28,1.5l-0.03,0.11l-0.08,0.09l-0.11,0.04h-0.2l-0.24-0.08L36.56,27l-0.57-0.08l-0.66-0.11
	l-0.73-0.04l-0.7-0.04h-0.55l-0.49,0.09l-0.46,0.15l-0.43,0.2l-0.34,0.27l-0.2,0.42l-0.08,0.51l0.08,0.51l0.15,0.38l0.27,0.27
	l0.35,0.24l0.42,0.16l0.51,0.11l1.01,0.16l0.58,0.11l0.53,0.11l0.55,0.15l0.51,0.2l0.51,0.27l0.42,0.31l0.39,0.44l0.34,0.49
	l0.24,0.62l0.15,0.74l0.04,0.88l-0.08,0.97l-0.2,0.84l-0.34,0.73l-0.48,0.58l-0.58,0.46l-0.62,0.39l-0.73,0.27l-0.81,0.15L33.67,39
	l-0.9,0.04L31.81,39l-0.89-0.07l-0.81-0.15l-0.73-0.15l-1.08-0.27l-0.28-0.13l-0.07-0.03l-0.11-0.13L27.79,38v-0.27l0.27-1.55
	l0.04-0.13l0.04-0.07l0.07-0.08l0.08-0.03h0.18l0.24,0.07l0.38,0.08l0.51,0.15l0.62,0.15l0.7,0.11l0.73,0.07l0.77,0.04l0.59-0.04
	l0.53-0.07l0.46-0.16l0.39-0.27l0.31-0.31l0.15-0.42l0.07-0.51l-0.03-0.55l-0.15-0.38l-0.24-0.31l-0.35-0.2l-0.38-0.16l-0.46-0.11
	l-0.55-0.08l-0.62-0.11l-0.46-0.07l-0.46-0.13l-0.55-0.11l-0.49-0.2l-0.51-0.27l-0.46-0.31l-0.43-0.42l-0.34-0.51l-0.28-0.62
	l-0.15-0.77l-0.07-0.89l0.07-0.89l0.15-0.77l0.31-0.62l0.39-0.55l0.42-0.46l0.55-0.34l0.53-0.28l0.62-0.18l1.25-0.24L32.86,24.25z
	 M60.07,24.91l1.08,0.04l0.93,0.2l0.81,0.22l0.66,0.39l0.58,0.42l0.42,0.53l0.39,0.62l0.27,0.7l0.2,0.73l0.15,0.82l0.08,0.84
	l0.07,0.93v0.97l-0.04,1.04l-0.03,1.01l-0.15,0.93l-0.2,0.84l-0.27,0.77l-0.35,0.73l-0.46,0.62l-0.59,0.51l-0.69,0.42l-0.86,0.27
	l-0.97,0.2l-1.12,0.08l-1.24-0.04l-1.08-0.15l-1-0.2v4.83l-0.04,0.11l-0.08,0.11l-0.07,0.08l-0.08,0.03l-0.15,0.04l-2.55,0.46h-0.23
	l-0.11-0.07l-0.08-0.08l-0.07-0.11V27.96l0.03-0.62l0.13-0.49l0.23-0.35l0.31-0.31l0.39-0.24l0.53-0.18l1.24-0.35l1.32-0.27
	l1.36-0.2L60.07,24.91z M80.21,24.91h0.24l0.11,0.08l0.04,0.07l0.07,0.11v9.54l0.04,0.7l0.11,0.58l0.24,0.46l0.34,0.35l0.48,0.27
	l0.65,0.2l0.77,0.03l0.79-0.03l0.58-0.16l0.46-0.24l0.31-0.35l0.22-0.38l0.13-0.42l0.07-0.51v-9.46l0.08-0.16l0.07-0.08l0.13-0.07
	l0.15-0.04l2.47-0.46h0.07l0.08-0.04h0.2l0.11,0.08l0.07,0.07l0.04,0.15v9.27l-0.04,0.97l-0.15,0.88l-0.27,0.77l-0.35,0.65
	l-0.49,0.62l-0.66,0.46l-0.77,0.39l-0.94,0.27l-1.08,0.2l-1.28,0.04l-1.19-0.04l-1.04-0.15l-0.93-0.24L79.36,39l-0.65-0.46L78.16,38
	l-0.38-0.7l-0.32-0.77l-0.18-0.91l-0.04-1.08v-8.74l0.04-0.11l0.07-0.11l0.08-0.08l0.23-0.07L80.21,24.91z M97.46,24.91h0.58
	l1.01,0.04l0.93,0.07l0.77,0.13l0.66,0.15l0.49,0.11l0.31,0.07l0.15,0.08l0.15,0.16v0.35l-0.27,1.5l-0.04,0.11l-0.03,0.04
	l-0.16,0.07h-0.2l-0.24-0.03l-0.42-0.08l-0.57-0.11l-0.66-0.08l-0.73-0.07l-0.7-0.04l-0.55,0.04l-0.49,0.04L97,27.62l-0.43,0.18
	l-0.35,0.31l-0.18,0.44l-0.08,0.49l0.08,0.51l0.15,0.38l0.27,0.28l0.39,0.18l0.38,0.15l0.51,0.13l1.01,0.15l0.58,0.11l0.53,0.11
	l0.55,0.16l0.51,0.2l0.51,0.27l0.42,0.31l0.38,0.42l0.35,0.51l0.24,0.66l0.15,0.73l0.04,0.89l-0.08,0.97l-0.2,0.84l-0.35,0.7
	l-0.46,0.58l-0.53,0.51l-0.66,0.35l-0.73,0.27l-0.81,0.2l-0.86,0.07l-0.93,0.04l-0.97-0.04l-0.88-0.07l-0.81-0.15l-0.73-0.13
	l-0.62-0.15L92.9,39l-0.28-0.07l-0.03-0.04l-0.09-0.04l-0.04-0.03l-0.07-0.15v-0.28l0.27-1.5l0.04-0.11l0.04-0.08l0.07-0.07
	l0.08-0.04h0.18l0.24,0.08l0.38,0.07l0.51,0.15l0.62,0.11l0.7,0.13l0.73,0.07l0.77,0.04l0.59-0.04l0.53-0.07l0.46-0.15L99,36.73
	l0.31-0.35l0.15-0.38l0.07-0.51l-0.03-0.53l-0.15-0.42l-0.24-0.31l-0.35-0.2l-0.38-0.15l-0.46-0.11l-0.55-0.08l-0.62-0.11
	l-0.93-0.15l-0.55-0.16l-0.49-0.15l-0.51-0.27l-0.46-0.31l-0.43-0.44l-0.34-0.49l-0.28-0.62l-0.15-0.77l-0.07-0.89l0.07-0.9
	l0.15-0.77L93.08,27l0.39-0.55l0.42-0.42l0.55-0.35l0.53-0.27l0.62-0.24l0.62-0.11L97.46,24.91z M18.82,26.72l-0.77,0.04l-0.59,0.15
	l-0.49,0.27l-0.35,0.35L16.34,28l-0.18,0.55l-0.13,0.62L16,29.9l-0.04,0.84v1.85L16,33.41l0.03,0.73l0.13,0.66l0.18,0.53l0.28,0.42
	l0.35,0.35l0.49,0.27l0.59,0.15l0.77,0.04l0.77-0.04l0.58-0.15l0.51-0.27l0.39-0.35l0.22-0.42l0.2-0.53l0.11-0.66l0.08-0.73
	l0.03-0.82v-1.85l-0.03-0.84l-0.08-0.73l-0.11-0.62L21.29,28l-0.22-0.46l-0.39-0.35l-0.51-0.27l-0.58-0.15L18.82,26.72z
	 M59.34,27.47l-0.51,0.03l-0.55,0.04l-0.51,0.09l-0.46,0.11l-0.34,0.07l-0.28,0.04l-0.07,0.04v9.08l0.07,0.03l0.28,0.04l0.34,0.08
	l0.51,0.07l0.62,0.04l0.66,0.04l0.73-0.04l0.62-0.11l0.51-0.24l0.39-0.35l0.31-0.49l0.22-0.66l0.15-0.84l0.08-1.05l0.04-1.24
	l-0.04-1.19l-0.08-0.97l-0.11-0.8l-0.2-0.58l-0.23-0.46l-0.31-0.35l-0.39-0.24l-0.42-0.11l-0.51-0.07H59.34z"/>
<path class="st83" d="M6.26,18.81h5.98l0.24,0.07l0.15,0.24v2.36l-0.15,0.22l-0.24,0.08H7.06l-0.53,0.07l-0.59,0.11l-0.58,0.2
	l-0.5,0.31l-0.38,0.39l-0.31,0.49l-0.2,0.51L3.82,24.4l-0.04,0.46l-0.04,0.39v2.98h5.66l0.22,0.15l0.08,0.23v2.16l-0.08,0.22
	L9.5,31.13L9.26,31.2H3.73v7.11l-0.07,0.23l-0.11,0.13l-0.24,0.07H0.45l-0.23-0.07l-0.11-0.13l-0.08-0.23V24.64l0.08-1l0.18-0.97
	l0.31-0.86l0.43-0.73l0.58-0.69l0.7-0.55l0.8-0.46l0.94-0.31l1.04-0.2L6.26,18.81z M71.75,19.16h0.22l0.13,0.07l0.07,0.08l0.04,0.11
	l0.04,0.15v16.26l0.07,0.46l0.15,0.35l0.24,0.22l0.27,0.11l0.31,0.04l0.51-0.04l0.38-0.07h0.2l0.15,0.15l0.04,0.11l0.27,1.63V39
	l-0.04,0.13l-0.07,0.03l-0.04,0.08l-0.07,0.04l-0.2,0.07l-0.35,0.08l-0.42,0.07l-0.62,0.08l-0.74,0.03l-0.93-0.07l-0.77-0.24
	l-0.66-0.38l-0.49-0.55l-0.35-0.62l-0.24-0.77l-0.07-0.89V19.96l0.07-0.15l0.08-0.07l0.11-0.09l0.15-0.03L71.75,19.16z M44.76,19.81
	H45l0.11,0.08l0.07,0.07l0.08,0.13v4.51h3.79l0.11,0.08l0.08,0.07l0.07,0.11v2.09l-0.07,0.11l-0.08,0.04l-0.11,0.07h-3.79v7.46
	l0.04,0.53l0.11,0.44l0.22,0.34l0.35,0.2l0.46,0.15l0.59,0.04l0.77-0.04l0.66-0.11l0.53-0.13h0.24l0.07,0.08l0.04,0.07l0.04,0.16
	l0.34,1.47v0.2l-0.03,0.15l-0.04,0.11l-0.24,0.15l-0.34,0.11l-0.51,0.11l-0.66,0.15l-0.81,0.08l-0.93,0.04l-0.93-0.04l-0.81-0.15
	l-0.7-0.24l-0.62-0.34l-0.46-0.46l-0.38-0.55l-0.27-0.69l-0.2-0.82l-0.04-0.97V20.71l0.08-0.15l0.07-0.13l0.11-0.07l0.15-0.04
	L44.76,19.81z M18.82,24.25l1.23,0.04l1.08,0.2l0.93,0.27l0.77,0.35l0.62,0.46L24,26.1l0.38,0.62l0.35,0.7l0.24,0.73l0.15,0.81
	l0.07,0.84l0.08,0.93v1.85l-0.08,0.93l-0.07,0.86l-0.15,0.8l-0.24,0.73l-0.35,0.7L24,37.23l-0.55,0.53l-0.62,0.46l-0.77,0.35
	l-0.93,0.27l-1.08,0.2l-1.23,0.04l-1.24-0.04l-1.05-0.2l-0.93-0.27l-0.77-0.35l-0.62-0.46l-0.55-0.53l-0.38-0.62l-0.35-0.7
	l-0.23-0.73l-0.15-0.8l-0.08-0.86l-0.07-0.93v-1.85l0.07-0.93l0.08-0.84l0.15-0.81l0.23-0.73l0.35-0.7l0.38-0.62l0.55-0.53
	l0.62-0.46l0.77-0.35l0.93-0.27l1.05-0.2L18.82,24.25z M32.86,24.25h0.58l1.01,0.04l0.93,0.09l0.77,0.11l0.66,0.11l0.49,0.15
	l0.32,0.08l0.15,0.07l0.15,0.15v0.35l-0.28,1.5l-0.03,0.11l-0.08,0.09l-0.11,0.04h-0.2l-0.24-0.08L36.56,27l-0.57-0.08l-0.66-0.11
	l-0.73-0.04l-0.7-0.04h-0.55l-0.49,0.09l-0.46,0.15l-0.43,0.2l-0.34,0.27l-0.2,0.42l-0.08,0.51l0.08,0.51l0.15,0.38l0.27,0.27
	l0.35,0.24l0.42,0.16l0.51,0.11l1.01,0.16l0.58,0.11l0.53,0.11l0.55,0.15l0.51,0.2l0.51,0.27l0.42,0.31l0.39,0.44l0.34,0.49
	l0.24,0.62l0.15,0.74l0.04,0.88l-0.08,0.97l-0.2,0.84l-0.34,0.73l-0.48,0.58l-0.58,0.46l-0.62,0.39l-0.73,0.27l-0.81,0.15L33.67,39
	l-0.9,0.04L31.8,39l-0.89-0.07l-0.81-0.15l-0.73-0.15l-1.08-0.27l-0.28-0.13l-0.07-0.03l-0.11-0.13L27.79,38v-0.27l0.27-1.55
	l0.04-0.13l0.04-0.07l0.07-0.08l0.08-0.03h0.18l0.24,0.07l0.38,0.08l0.51,0.15l0.62,0.15l0.7,0.11l0.73,0.07l0.77,0.04l0.59-0.04
	l0.53-0.07l0.46-0.16l0.39-0.27l0.31-0.31l0.15-0.42l0.07-0.51l-0.03-0.55l-0.15-0.38l-0.24-0.31l-0.35-0.2l-0.38-0.16l-0.46-0.11
	l-0.55-0.08l-0.62-0.11l-0.46-0.07l-0.46-0.13l-0.55-0.11l-0.49-0.2l-0.51-0.27l-0.46-0.31l-0.43-0.42l-0.34-0.51l-0.28-0.62
	l-0.15-0.77l-0.07-0.89l0.07-0.89l0.15-0.77l0.31-0.62l0.39-0.55l0.42-0.46l0.55-0.34l0.53-0.28l0.62-0.18l1.25-0.24L32.86,24.25z
	 M60.07,24.91l1.08,0.04l0.93,0.2l0.81,0.22l0.66,0.39l0.58,0.42l0.42,0.53l0.39,0.62l0.27,0.7l0.2,0.73l0.15,0.82l0.08,0.84
	l0.07,0.93v0.97l-0.04,1.04l-0.03,1.01l-0.15,0.93l-0.2,0.84l-0.27,0.77l-0.35,0.73l-0.46,0.62l-0.59,0.51l-0.69,0.42l-0.86,0.27
	l-0.97,0.2l-1.12,0.08l-1.24-0.04l-1.08-0.15l-1-0.2v4.83l-0.04,0.11l-0.08,0.11l-0.07,0.08l-0.08,0.03l-0.15,0.04l-2.55,0.46h-0.23
	l-0.11-0.07l-0.08-0.08l-0.07-0.11V27.96l0.03-0.62l0.13-0.49l0.23-0.35l0.31-0.31l0.39-0.24l0.53-0.18l1.24-0.35l1.32-0.27
	l1.36-0.2L60.07,24.91z M80.21,24.91h0.24l0.11,0.08l0.04,0.07l0.07,0.11v9.54l0.04,0.7l0.11,0.58l0.24,0.46l0.34,0.35l0.48,0.27
	l0.65,0.2l0.77,0.03l0.79-0.03l0.58-0.16l0.46-0.24l0.31-0.35l0.22-0.38l0.13-0.42l0.07-0.51v-9.46l0.08-0.16l0.07-0.08l0.13-0.07
	l0.15-0.04l2.47-0.46h0.07l0.08-0.04h0.2l0.11,0.08l0.07,0.07l0.04,0.15v9.27l-0.04,0.97l-0.15,0.88l-0.27,0.77l-0.35,0.65
	l-0.49,0.62l-0.66,0.46l-0.77,0.39l-0.94,0.27l-1.08,0.2l-1.28,0.04l-1.19-0.04l-1.04-0.15l-0.93-0.24L79.35,39l-0.65-0.46L78.16,38
	l-0.38-0.7l-0.32-0.77l-0.18-0.91l-0.04-1.08v-8.74l0.04-0.11l0.07-0.11l0.08-0.08l0.23-0.07L80.21,24.91z M97.46,24.91h0.58
	l1.01,0.04l0.93,0.07l0.77,0.13l0.66,0.15l0.49,0.11l0.31,0.07l0.15,0.08l0.15,0.16v0.35l-0.27,1.5l-0.04,0.11l-0.03,0.04
	l-0.16,0.07h-0.2l-0.24-0.03l-0.42-0.08l-0.57-0.11l-0.66-0.08l-0.73-0.07l-0.7-0.04l-0.55,0.04l-0.49,0.04L97,27.62l-0.43,0.18
	l-0.35,0.31l-0.18,0.44l-0.08,0.49l0.08,0.51l0.15,0.38l0.27,0.28l0.39,0.18l0.38,0.15l0.51,0.13l1.01,0.15l0.58,0.11l0.53,0.11
	l0.55,0.16l0.51,0.2l0.51,0.27l0.42,0.31l0.38,0.42l0.35,0.51l0.24,0.66l0.15,0.73l0.04,0.89l-0.08,0.97l-0.2,0.84l-0.35,0.7
	l-0.46,0.58l-0.53,0.51l-0.66,0.35l-0.73,0.27l-0.81,0.2l-0.86,0.07l-0.93,0.04l-0.97-0.04l-0.88-0.07l-0.81-0.15l-0.73-0.13
	l-0.62-0.15L92.9,39l-0.28-0.07l-0.03-0.04l-0.09-0.04l-0.04-0.03l-0.07-0.15v-0.28l0.27-1.5l0.04-0.11l0.04-0.08l0.07-0.07
	l0.08-0.04h0.18l0.24,0.08l0.38,0.07l0.51,0.15l0.62,0.11l0.7,0.13l0.73,0.07l0.77,0.04l0.59-0.04l0.53-0.07l0.46-0.15L99,36.73
	l0.31-0.35l0.15-0.38l0.07-0.51l-0.03-0.53l-0.16-0.42l-0.24-0.31l-0.35-0.2l-0.38-0.15l-0.46-0.11l-0.55-0.08l-0.62-0.11
	l-0.93-0.15l-0.55-0.16l-0.49-0.15l-0.51-0.27l-0.46-0.31l-0.43-0.44l-0.34-0.49l-0.28-0.62l-0.15-0.77l-0.07-0.89l0.07-0.9
	l0.15-0.77L93.08,27l0.39-0.55l0.42-0.42l0.55-0.35l0.53-0.27l0.62-0.24l0.62-0.11L97.46,24.91z M18.82,26.72l-0.77,0.04l-0.59,0.15
	l-0.49,0.27l-0.35,0.35L16.34,28l-0.18,0.55l-0.13,0.62L16,29.9l-0.04,0.84v1.85L16,33.41l0.03,0.73l0.13,0.66l0.18,0.53l0.28,0.42
	l0.35,0.35l0.49,0.27l0.59,0.15l0.77,0.04l0.77-0.04l0.58-0.15l0.51-0.27l0.39-0.35l0.22-0.42l0.2-0.53l0.11-0.66l0.08-0.73
	l0.03-0.82v-1.85l-0.03-0.84l-0.08-0.73l-0.11-0.62L21.29,28l-0.22-0.46l-0.39-0.35l-0.51-0.27l-0.58-0.15L18.82,26.72z
	 M59.34,27.47l-0.51,0.03l-0.55,0.04l-0.51,0.09l-0.46,0.11l-0.34,0.07l-0.28,0.04l-0.07,0.04v9.08l0.07,0.03l0.28,0.04l0.34,0.08
	l0.51,0.07l0.62,0.04l0.66,0.04l0.73-0.04l0.62-0.11l0.51-0.24l0.39-0.35l0.31-0.49l0.22-0.66l0.15-0.84l0.08-1.05l0.04-1.24
	l-0.04-1.19l-0.08-0.97l-0.11-0.8l-0.2-0.58l-0.23-0.46l-0.31-0.35l-0.39-0.24l-0.42-0.11l-0.51-0.07H59.34z"/>
<path class="st36" d="M70.91,18.51h0.11l0.24,0.08l0.07,0.11l0.08,0.23V35.2l0.07,0.46l0.15,0.35l0.24,0.2l0.27,0.11l0.31,0.04
	l0.5-0.04l0.39-0.08h0.07l0.11,0.04l0.08,0.04l0.07,0.07l0.04,0.13l0.27,1.61v0.24l-0.03,0.07l-0.13,0.11l-0.07,0.04l-0.2,0.08
	l-0.35,0.11l-0.42,0.07l-0.62,0.08l-0.73,0.04l-0.94-0.08l-0.77-0.22l-0.65-0.39l-0.51-0.53l-0.35-0.62L68,36.36l-0.07-0.88V19.32
	L68,19.17l0.08-0.08l0.11-0.07l0.15-0.04L70.91,18.51z M59.23,24.29l1.08,0.04l0.93,0.2l0.81,0.22l0.66,0.39l0.57,0.42l0.43,0.55
	l0.38,0.57l0.27,0.69l0.2,0.77l0.15,0.81l0.08,0.85l0.07,0.91v0.97l-0.04,1.04L64.8,33.7l-0.15,0.92l-0.2,0.88l-0.27,0.77l-0.35,0.7
	l-0.46,0.62l-0.58,0.53l-0.7,0.39l-0.86,0.31l-0.97,0.18l-1.11,0.08l-1.25-0.08l-1.08-0.11l-1-0.22v4.85l-0.08,0.15l-0.2,0.2
	l-0.15,0.03l-2.54,0.46h-0.24L52.5,44.3l-0.08-0.08l-0.07-0.11V27.3l0.04-0.62l0.11-0.46l0.22-0.39l0.31-0.27l0.39-0.22l0.53-0.24
	l1.25-0.35l1.31-0.27l1.36-0.15L59.23,24.29z M79.33,24.29h0.28l0.11,0.08l0.04,0.07l0.07,0.13v9.48l0.04,0.69l0.11,0.59l0.24,0.45
	l0.35,0.39l0.46,0.27l0.66,0.15l0.77,0.04l0.77-0.04l0.58-0.15l0.46-0.22l0.31-0.35l0.24-0.38l0.11-0.43l0.07-0.46v-9.44l0.08-0.15
	l0.2-0.2l0.15-0.04l2.47-0.46h0.35l0.15,0.15l0.04,0.13v9.28l-0.04,0.97l-0.15,0.84l-0.24,0.77l-0.38,0.7l-0.51,0.57l-0.62,0.5
	l-0.77,0.38l-0.93,0.27l-1.1,0.2l-1.26,0.04l-1.21-0.04l-1.04-0.15l-0.93-0.22l-0.77-0.31l-0.66-0.46l-0.55-0.55l-0.42-0.69
	l-0.27-0.81l-0.2-0.92l-0.04-1.08v-8.71l0.08-0.15l0.07-0.11l0.11-0.08l0.15-0.04L79.33,24.29z M96.62,24.29h0.58l1.01,0.04
	l0.93,0.08l0.77,0.11l0.66,0.11l0.51,0.16l0.31,0.08l0.16,0.07l0.15,0.15v0.35l-0.28,1.5l-0.03,0.11l-0.08,0.08l-0.11,0.04h-0.2
	l-0.22-0.08l-0.44-0.07l-0.58-0.08l-0.66-0.11l-0.73-0.04l-0.7-0.04h-0.53l-0.51,0.08l-0.46,0.15l-0.43,0.2l-0.34,0.27l-0.2,0.42
	l-0.08,0.51l0.08,0.51l0.16,0.38l0.27,0.27L96,29.77l0.38,0.15l0.51,0.11l1.01,0.15l0.58,0.11l0.55,0.11l0.53,0.15l0.51,0.2
	l0.51,0.27l0.42,0.31l0.39,0.43l0.34,0.49l0.24,0.62l0.15,0.74l0.04,0.88l-0.08,0.97l-0.2,0.84l-0.34,0.73l-0.46,0.58l-0.55,0.46
	l-0.66,0.39l-0.73,0.27l-0.81,0.15l-0.86,0.11l-0.93,0.04l-0.97-0.04l-0.88-0.07l-0.81-0.15l-0.73-0.15l-1.08-0.27l-0.28-0.13
	l-0.07-0.03h-0.04l-0.07-0.08l-0.08-0.15v-0.22l0.31-1.54l0.04-0.13l0.04-0.07l0.07-0.08l0.08-0.03h0.2l0.22,0.07l0.39,0.08
	l0.49,0.15l0.62,0.15l0.7,0.11l0.73,0.07l0.77,0.04l0.59-0.04l0.53-0.07l0.46-0.15l0.39-0.27l0.31-0.31l0.15-0.42l0.08-0.51
	l-0.04-0.55l-0.15-0.38l-0.24-0.31l-0.35-0.2l-0.38-0.15l-0.46-0.11l-0.55-0.08l-0.62-0.11l-0.46-0.07l-0.46-0.13l-0.53-0.11
	l-0.51-0.2l-0.51-0.27l-0.46-0.31l-0.42-0.42l-0.35-0.51l-0.28-0.62l-0.15-0.77l-0.07-0.88l0.07-0.88l0.15-0.77l0.32-0.62l0.38-0.55
	l0.42-0.46l0.55-0.34l0.53-0.28l0.63-0.18L96,24.33L96.62,24.29z M58.5,26.8l-0.51,0.04l-0.55,0.04l-0.49,0.07l-0.46,0.11
	l-0.35,0.08l-0.28,0.04l-0.07,0.03v9.06l0.07,0.04l0.24,0.04l0.39,0.07l0.49,0.09l0.59,0.03l0.69,0.04L59,36.55l0.62-0.11l0.49-0.22
	l0.39-0.35l0.31-0.5l0.24-0.62l0.15-0.84l0.07-1.04l0.04-1.23l-0.04-1.21l-0.07-0.95l-0.13-0.81l-0.18-0.62l-0.24-0.46l-0.31-0.35
	l-0.39-0.18l-0.42-0.15l-0.51-0.08H58.5z"/>
<path class="st37" d="M70.91,18.51h0.11l0.24,0.08l0.07,0.11l0.08,0.23V35.2l0.07,0.46l0.15,0.35l0.24,0.2l0.27,0.11l0.31,0.04
	l0.5-0.04l0.39-0.08h0.07l0.11,0.04l0.08,0.04l0.07,0.07l0.04,0.13l0.27,1.61v0.24l-0.03,0.07l-0.13,0.11l-0.07,0.04l-0.2,0.08
	l-0.35,0.11l-0.42,0.07l-0.62,0.08l-0.73,0.04l-0.94-0.08l-0.77-0.22l-0.65-0.39l-0.51-0.53l-0.35-0.62L68,36.36l-0.07-0.88V19.32
	L68,19.17l0.08-0.08l0.11-0.07l0.15-0.04L70.91,18.51z M59.23,24.29l1.08,0.04l0.93,0.2l0.81,0.22l0.66,0.39l0.57,0.42l0.43,0.55
	l0.38,0.57l0.27,0.69l0.2,0.77l0.15,0.81l0.08,0.85l0.07,0.91v0.97l-0.04,1.04L64.8,33.7l-0.15,0.92l-0.2,0.88l-0.27,0.77l-0.35,0.7
	l-0.46,0.62l-0.58,0.53l-0.7,0.39l-0.86,0.31l-0.97,0.18l-1.11,0.08l-1.25-0.08l-1.08-0.11l-1-0.22v4.85l-0.08,0.15l-0.2,0.2
	l-0.15,0.03l-2.54,0.46h-0.24L52.5,44.3l-0.08-0.08l-0.07-0.11V27.3l0.04-0.62l0.11-0.46l0.22-0.39l0.31-0.27l0.39-0.22l0.53-0.24
	l1.25-0.35l1.31-0.27l1.36-0.15L59.23,24.29z M79.33,24.29h0.28l0.11,0.08l0.04,0.07l0.07,0.13v9.48l0.04,0.69l0.11,0.59l0.24,0.45
	l0.35,0.39l0.46,0.27l0.66,0.15l0.77,0.04l0.77-0.04l0.58-0.15l0.46-0.22l0.31-0.35l0.24-0.38l0.11-0.43l0.07-0.46v-9.44l0.08-0.15
	l0.2-0.2l0.15-0.04l2.47-0.46h0.35l0.15,0.15l0.04,0.13v9.28l-0.04,0.97l-0.15,0.84l-0.24,0.77l-0.38,0.7l-0.51,0.57l-0.62,0.5
	l-0.77,0.38l-0.93,0.27l-1.1,0.2l-1.26,0.04l-1.21-0.04l-1.04-0.15l-0.93-0.22l-0.77-0.31l-0.66-0.46l-0.55-0.55l-0.42-0.69
	l-0.27-0.81l-0.2-0.92l-0.04-1.08v-8.71l0.08-0.15l0.07-0.11l0.11-0.08l0.15-0.04L79.33,24.29z M96.62,24.29h0.58l1.01,0.04
	l0.93,0.08l0.77,0.11l0.66,0.11l0.51,0.16l0.31,0.08l0.16,0.07l0.15,0.15v0.35l-0.28,1.5l-0.03,0.11l-0.08,0.08l-0.11,0.04h-0.2
	l-0.22-0.08l-0.44-0.07l-0.58-0.08l-0.66-0.11l-0.73-0.04l-0.7-0.04h-0.53l-0.51,0.08l-0.46,0.15l-0.43,0.2l-0.34,0.27l-0.2,0.42
	l-0.08,0.51l0.08,0.51l0.16,0.38l0.27,0.27L96,29.77l0.38,0.15l0.51,0.11l1.01,0.15l0.58,0.11l0.55,0.11l0.53,0.15l0.51,0.2
	l0.51,0.27l0.42,0.31l0.39,0.43l0.34,0.49l0.24,0.62l0.15,0.74l0.04,0.88l-0.08,0.97l-0.2,0.84l-0.34,0.73l-0.46,0.58l-0.55,0.46
	l-0.66,0.39l-0.73,0.27l-0.81,0.15l-0.86,0.11l-0.93,0.04l-0.97-0.04l-0.88-0.07l-0.81-0.15l-0.73-0.15l-1.08-0.27l-0.28-0.13
	l-0.07-0.03h-0.04l-0.07-0.08l-0.08-0.15v-0.22l0.31-1.54l0.04-0.13l0.04-0.07l0.07-0.08l0.08-0.03h0.2l0.22,0.07l0.39,0.08
	l0.49,0.15l0.62,0.15l0.7,0.11l0.73,0.07l0.77,0.04l0.59-0.04l0.53-0.07l0.46-0.15l0.39-0.27l0.31-0.31l0.15-0.42l0.08-0.51
	l-0.04-0.55l-0.15-0.38l-0.24-0.31l-0.35-0.2l-0.38-0.15l-0.46-0.11l-0.55-0.08l-0.62-0.11l-0.46-0.07l-0.46-0.13l-0.53-0.11
	l-0.51-0.2l-0.51-0.27l-0.46-0.31l-0.42-0.42l-0.35-0.51l-0.28-0.62l-0.15-0.77l-0.07-0.88l0.07-0.88l0.15-0.77l0.32-0.62l0.38-0.55
	l0.42-0.46l0.55-0.34l0.53-0.28l0.63-0.18L96,24.33L96.62,24.29z M58.5,26.8l-0.51,0.04l-0.55,0.04l-0.49,0.07l-0.46,0.11
	l-0.35,0.08l-0.28,0.04l-0.07,0.03v9.06l0.07,0.04l0.24,0.04l0.39,0.07l0.49,0.09l0.59,0.03l0.69,0.04L59,36.55l0.62-0.11l0.49-0.22
	l0.39-0.35l0.31-0.5l0.24-0.62l0.15-0.84l0.07-1.04l0.04-1.23l-0.04-1.21l-0.07-0.95l-0.13-0.81l-0.18-0.62l-0.24-0.46l-0.31-0.35
	l-0.39-0.18l-0.42-0.15l-0.51-0.08H58.5z"/>
</svg>
