<?xml version="1.0" encoding="utf-8"?>
<!-- Generator: Adobe Illustrator 23.0.2, SVG Export Plug-In . SVG Version: 6.00 Build 0)  -->
<svg version="1.1" id="icons" xmlns="http://www.w3.org/2000/svg" xmlns:xlink="http://www.w3.org/1999/xlink" x="0px" y="0px"
	 viewBox="0 0 408 380" style="enable-background:new 0 0 408 380;" xml:space="preserve">
<style type="text/css">
	.st0{fill:#FFFFFF;}
</style>
<g>
	<path class="st0" d="M318.4,313c0-3.7-3-6.7-6.7-6.7H165.6c-3.7,0-6.7,3-6.7,6.7v46.1c0,3.7,3,6.7,6.7,6.7h146.1
		c3.7,0,6.7-3,6.7-6.7V313z M304.9,352.4H172.3v-32.7h132.7V352.4z"/>
	<path class="st0" d="M310.7,290c0-11.9,6.8-38.8,14.1-67.3c10.9-42.7,24.4-95.7,24.4-132.6c0-12.2-9.9-22.1-22.1-22.1
		c-7.5,0-17.4,3.5-21.8,20.1l-6,19.9l3.7-56.1c0.3-8.8-2.5-17-7.8-22.5c-4.7-4.9-11-7.5-18.1-7.5c-21.2,0-24.6,20.9-25.9,28.8
		l-6.3,40.8l-3.5-48.3c-2.8-25.2-17.4-29-25.9-29c-15.5,0-26,12-26,29.8L189.5,98l-9.8-40.3C175.2,39,166.6,29.5,154,29.5
		c-8.1,0-14.9,2.8-19.6,8c-5,5.6-7.2,13.3-6.3,22.5c0.6,5.6,8,47.4,13.9,80.9c3.1,17.5,5.9,33.5,7.5,42.6l0.6,3.7l-2.3-3
		c-15.4-19.5-34.4-39.4-59.2-39.4c-19.6,0-29.8,11.1-29.8,22.1c0,9.7,5.6,15.5,20.6,30.9l4.4,4.5c7.6,7.8,14.5,17.9,21.9,28.6
		c8.9,12.9,18.9,27.5,31.8,40.4c9.5,11.7,22,19.2,28.6,22.6l0.5,0.3V313c0,3.7,3,6.7,6.7,6.7H304c3.7,0,6.7-3,6.7-6.7V290z
		 M297.2,290v16.3H180V290c0-2.7-1.6-5.2-4.1-6.2c-0.2-0.1-17-7.2-28.1-21.1c-0.2-0.2-0.3-0.4-0.5-0.5
		c-12.1-12.1-21.4-25.7-30.5-38.8c-7.7-11.2-15-21.8-23.3-30.4l-4.4-4.5c-13-13.4-16.8-17.5-16.8-21.6c0-4.3,5.6-8.7,16.3-8.7
		c21.7,0,40.3,23.7,50.3,36.4c2.6,3.4,4.7,6,6.5,7.7c1.8,1.8,4.1,2.6,6.8,2.7c3.1-0.1,6.2-1.6,8.4-4.1c3-3.3,4.3-7.8,3.8-12.2
		c-5.7-31.2-22.2-122.4-23-130.1c-0.5-5.2,0.5-9.4,2.9-12.1c2.7-3,6.7-3.6,9.6-3.6c5.5,0,9.8,6,12.7,17.9l23,95
		c0.8,3.3,4,5.5,7.3,5.1c3.4-0.4,5.9-3.3,5.9-6.7L203,43.9c0-4.9,1.2-16.3,12.5-16.3c3.2,0,10.6,0,12.5,16.8l7.7,107.7
		c0.2,3.4,3,6.1,6.4,6.2c3.4,0.3,6.4-2.3,6.9-5.7l15.4-99.9c2.6-16.1,7.4-17.4,12.6-17.4c3.4,0,6.3,1.1,8.4,3.4
		c2.8,2.9,4.3,7.5,4.1,12.5l-7.7,115.4c-0.2,3.4,2.1,6.5,5.5,7.1c3.4,0.6,6.7-1.4,7.6-4.7l23.1-77.1c2.4-9.1,5.7-10.3,8.9-10.3
		c4.8,0,8.7,3.9,8.7,8.7c0,35.2-13.3,87.3-23.9,129.2C303.6,251.3,297.2,276.4,297.2,290z"/>
</g>
</svg>
